<svg width="112" height="113" viewBox="0 0 112 113" fill="none" xmlns="http://www.w3.org/2000/svg">
<path d="M42.4697 72.3653L34.7842 73.4867C36.5767 64.9054 39.052 53.7805 40.1732 45.3677C40.5208 42.7593 40.7733 40.6383 40.9961 38.7669C41.7007 32.8458 42.0544 29.8736 43.8471 25.4434C45.5614 21.2068 50.1147 9.95376 62.0005 4.33811C72.4174 -0.583497 84.9559 0.216513 94.7233 6.42562C105.47 13.2573 111.569 26.0266 110.259 38.957C109.385 47.5963 105.343 54.0115 102.106 57.872L96.8686 53.4977C99.4906 50.3709 102.763 45.1923 103.462 38.2768C103.947 33.492 103.11 28.3863 101.105 23.8999C98.9295 19.03 95.4523 14.9767 91.0504 12.1781C87.1305 9.68616 82.5647 8.24273 77.8468 8.00363C73.3332 7.77416 68.8622 8.63817 64.9193 10.5011C55.4483 14.9758 51.7573 24.0976 50.1813 27.9927C48.7308 31.5778 48.4523 33.9163 47.7799 39.5662C47.5543 41.4596 47.299 43.6058 46.9452 46.2618C45.8021 54.8388 44.2964 63.6212 42.4697 72.3653Z" fill="#F99201"/>
<path d="M84.1742 62.9315L88.7312 69.3753C80.1026 71.704 68.8467 74.586 60.6809 77.4455C58.1487 78.332 56.1036 79.0802 54.2997 79.7404C48.5905 81.8292 45.7252 82.8776 40.8712 83.2946C36.23 83.6935 23.901 84.7528 13.324 76.5748C4.05463 69.4079 -0.988971 57.6844 0.162007 45.9791C1.42822 33.1003 10.2334 21.6963 22.5942 16.9263C30.8527 13.7391 38.5469 14.4453 43.5472 15.5988L41.98 22.3565C37.9299 21.4222 31.7146 20.8437 25.104 23.3951C20.5301 25.1603 16.2724 28.2697 13.1153 32.1513C9.68802 36.3649 7.60236 41.3805 7.08367 46.6558C6.62165 51.3536 7.41031 56.1532 9.36438 60.5363C11.2332 64.7292 14.0764 68.3804 17.5855 71.0932C26.0134 77.6093 36.0069 76.7508 40.2743 76.3843C44.2021 76.0466 46.4569 75.2218 51.904 73.2287C53.7298 72.5609 55.7988 71.8037 58.377 70.9009C66.7027 67.9857 75.382 65.3044 84.1742 62.9315Z" fill="#5DC9F1"/>
<path d="M54.1358 29.9304L57.4414 22.8458C58.4109 23.8156 59.4232 24.8335 60.466 25.8819C66.0938 31.5405 72.6056 38.0878 78.0319 42.7675C80.0168 44.4793 81.6487 45.8471 83.0891 47.0544L83.1098 47.0717C87.5902 50.8266 87.8053 51.0764 92.4095 56.4226L92.7017 56.7619C95.3055 60.5229 102.222 70.5134 100.363 83.5934C98.7334 95.0564 91.1367 105.176 80.5372 110.003C68.8747 115.313 54.8035 113.461 44.6891 105.285C37.9311 99.8223 34.7874 92.9091 33.3398 88.0716L39.8993 86.0551C41.0716 89.9733 43.6046 95.5619 49.014 99.9344C52.7567 102.96 57.4983 105.049 62.3657 105.816C67.6494 106.648 72.9676 105.938 77.7445 103.763C81.9985 101.826 85.7305 98.7712 88.5371 94.9296C91.2228 91.255 92.9682 87.0178 93.5848 82.6787C95.0664 72.2563 89.4601 64.1582 87.066 60.7001C84.8626 57.5172 83.0563 56.0033 78.6924 52.3461L78.6866 52.3412C77.2257 51.1168 75.5698 49.7289 73.542 47.98C66.9846 42.3252 60.4553 36.2524 54.1358 29.9304Z" fill="#A1D10E"/>
<path d="M54.1358 29.9304L57.4414 22.8458C58.4109 23.8156 59.4232 24.8335 60.466 25.8819C66.0938 31.5405 72.6056 38.0878 78.0319 42.7675C80.0168 44.4793 81.6487 45.8471 83.0891 47.0544L83.1098 47.0717C87.5902 50.8266 87.8053 51.0764 92.4095 56.4226L92.7017 56.7619C95.3055 60.5229 102.222 70.5134 100.363 83.5934C98.7334 95.0564 91.1367 105.176 80.5372 110.003C68.8747 115.313 54.8035 113.461 44.6891 105.285C37.9311 99.8223 34.7874 92.9091 33.3398 88.0716L39.8993 86.0551C41.0716 89.9733 43.6046 95.5619 49.014 99.9344C52.7567 102.96 57.4983 105.049 62.3657 105.816C67.6494 106.648 72.9676 105.938 77.7445 103.763C81.9985 101.826 85.7305 98.7712 88.5371 94.9296C91.2228 91.255 92.9682 87.0178 93.5848 82.6787C95.0664 72.2563 89.4601 64.1582 87.066 60.7001C84.8626 57.5172 83.0563 56.0033 78.6924 52.3461L78.6866 52.3412C77.2257 51.1168 75.5698 49.7289 73.542 47.98C66.9846 42.3252 60.4553 36.2524 54.1358 29.9304Z" stroke="#A1D10E"/>
</svg>
