<?xml version="1.0" encoding="utf-8"?><svg xmlns="http://www.w3.org/2000/svg" xmlns:xlink="http://www.w3.org/1999/xlink"><symbol fill="none" viewBox="0 0 123 86" id="svg-access" xmlns="http://www.w3.org/2000/svg"><path fill-rule="evenodd" clip-rule="evenodd" d="M25.716 7.879c1.334 0 2.431 1.117 2.431 2.444 0 1.326-1.097 2.443-2.43 2.443-1.333 0-2.42-1.117-2.42-2.444 0-1.326 1.087-2.443 2.42-2.443z" fill="#BFD4C3"/><path fill-rule="evenodd" clip-rule="evenodd" d="M17.052 7.879c1.333 0 2.42 1.117 2.42 2.444 0 1.326-1.087 2.443-2.42 2.443-1.332 0-2.43-1.104-2.43-2.444 0-1.339 1.098-2.443 2.43-2.443z" fill="#FFCEA8"/><path fill-rule="evenodd" clip-rule="evenodd" d="M8.376 7.879c1.333 0 2.42 1.117 2.42 2.444 0 1.326-1.087 2.443-2.42 2.443-1.332 0-2.43-1.104-2.43-2.444 0-1.339 1.098-2.443 2.43-2.443z" fill="#EBB3B3"/><path fill-rule="evenodd" clip-rule="evenodd" d="M101.187 0C106.029 0 110 4 110 8.868v54.274c0 4.879-3.971 8.88-8.813 8.88H8.8c-4.842 0-8.8-4.004-8.8-8.88V8.868C0 4.002 3.958 0 8.8 0h92.387zm0 2.578H8.8c-3.447 0-6.242 2.829-6.242 6.29v8.48h104.884v-8.48c0-3.459-2.808-6.29-6.255-6.29zm6.255 17.348H2.558v43.216c0 3.476 2.795 6.303 6.242 6.303h92.387c3.447 0 6.255-2.83 6.255-6.303V19.926z" fill="#0288D1"/><path d="M121.751 66.546c0 9.753-7.901 17.658-17.645 17.658-9.745 0-17.645-7.905-17.645-17.657 0-9.753 7.9-17.658 17.645-17.658 9.744 0 17.645 7.905 17.645 17.657z" fill="#fff" stroke="#0288D1" stroke-width="2"/><path d="M113.161 75.609l-.102-3.605-6.767-6.809a5.79 5.79 0 00.32-1.892c0-3.214-2.588-5.819-5.781-5.819-3.193 0-5.782 2.605-5.782 5.819 0 3.213 2.589 5.818 5.782 5.818.544 0 1.069-.081 1.569-.223l1.449 1.459h2.865v2.471h3.172v2.78h3.275zM99.398 63.663c-.99 0-1.791-.807-1.791-1.803 0-.995.802-1.802 1.791-1.802.99 0 1.791.807 1.791 1.802 0 .996-.801 1.803-1.791 1.803z" fill="#0288D1"/></symbol><symbol fill="none" viewBox="0 0 120 138" id="svg-contributions" xmlns="http://www.w3.org/2000/svg"><g clip-path="url(#bclip0)"><path d="M80.696 69.022h-1.562c-4.34 0-7.9-2.803-7.9-6.363v-.582h4.34v.583c0 .97 1.52 2.049 3.56 2.049h1.562c2.04 0 3.56-1.079 3.56-2.05 0-.97-1.02-1.747-2.757-2.005l-3.754-.561a6.965 6.965 0 01-4.396-1.896 6.887 6.887 0 01-2.115-4.273c0-3.667 3.473-6.471 7.9-6.471h1.562c4.427 0 7.9 2.804 7.9 6.47v.583h-4.34v-.582c0-.97-1.52-2.05-3.56-2.05h-1.562c-2.04-.107-3.56.971-3.56 2.05 0 1.078 1.02 1.747 2.757 2.006l3.82.56a6.964 6.964 0 014.428 1.937 6.886 6.886 0 012.082 4.34c-.066 3.452-3.538 6.255-7.965 6.255z" fill="#0288D1"/><path d="M82.086 66.866h-4.34v4.314h4.34v-4.314z" fill="#0288D1"/><path d="M79.916 79.807a21.796 21.796 0 01-12.056-3.635 21.598 21.598 0 01-7.993-9.68 21.448 21.448 0 01-1.235-12.462 21.53 21.53 0 015.939-11.044 21.743 21.743 0 0111.112-5.903A21.825 21.825 0 0188.22 38.31a21.673 21.673 0 019.74 7.944 21.475 21.475 0 013.657 11.984 21.46 21.46 0 01-1.652 8.254 21.561 21.561 0 01-4.705 6.998 21.711 21.711 0 01-7.04 4.675 21.815 21.815 0 01-8.305 1.642zm0-38.825c-3.433 0-6.79 1.012-9.645 2.908a17.279 17.279 0 00-6.394 7.744 17.157 17.157 0 00-.988 9.97 17.223 17.223 0 004.751 8.835 17.394 17.394 0 008.89 4.723 17.46 17.46 0 0010.03-.982 17.34 17.34 0 007.791-6.356 17.18 17.18 0 002.926-9.586c0-4.577-1.829-8.966-5.085-12.202a17.415 17.415 0 00-12.276-5.054z" fill="#B3DBF2"/><path d="M82.086 45.296h-4.34v4.314h4.34v-4.314zM43.545 38.825h-1.042a5.728 5.728 0 01-4.098-1.438 5.66 5.66 0 01-1.891-3.89v-1.143h4.34v1.144c0 .474.694 1.013 1.65 1.013h1.04c.956 0 1.65-.539 1.65-1.014 0-.474-.477-.84-1.259-.97l-2.538-.41a5.567 5.567 0 01-3.403-1.722 5.505 5.505 0 01-1.48-3.498 5.659 5.659 0 011.89-3.89 5.728 5.728 0 014.1-1.438h1.04a5.729 5.729 0 014.1 1.439 5.66 5.66 0 011.89 3.89v1.142h-4.34v-1.143c0-.474-.694-1.014-1.65-1.014h-1.04c-.956 0-1.65.54-1.65 1.014 0 .475.477.841 1.259.97l2.539.41A5.568 5.568 0 0148.054 30a5.505 5.505 0 011.48 3.498 5.66 5.66 0 01-1.89 3.889 5.729 5.729 0 01-4.1 1.438z" fill="#0288D1"/><path d="M45.194 36.668h-4.34v4.314h4.34v-4.314z" fill="#0288D1"/><path d="M43.023 47.453c-3.434 0-6.79-1.012-9.645-2.908a17.278 17.278 0 01-6.394-7.744 17.158 17.158 0 01-.988-9.97 17.224 17.224 0 014.751-8.835 17.394 17.394 0 018.89-4.723 17.46 17.46 0 0110.03.982 17.338 17.338 0 017.791 6.356 17.181 17.181 0 012.926 9.586c0 4.577-1.829 8.966-5.085 12.202a17.415 17.415 0 01-12.276 5.054zm0-30.197c-2.575 0-5.093.759-7.234 2.18a12.96 12.96 0 00-4.796 5.809 12.869 12.869 0 00-.74 7.477 12.917 12.917 0 003.563 6.627 13.046 13.046 0 006.667 3.541c2.526.5 5.144.243 7.523-.736a13.003 13.003 0 005.844-4.767 12.885 12.885 0 002.194-7.19c0-3.432-1.372-6.724-3.814-9.15a13.061 13.061 0 00-9.207-3.791z" fill="#B3DBF2"/><path d="M45.194 19.413h-4.34v4.314h4.34v-4.314zM99.967 25.883h-1.042a5.729 5.729 0 01-4.098-1.438 5.66 5.66 0 01-1.891-3.89v-1.142h4.34v1.143c0 .474.694 1.014 1.65 1.014h1.04c.956 0 1.65-.54 1.65-1.014 0-.475-.477-.841-1.259-.97l-2.539-.41a5.567 5.567 0 01-3.402-1.723 5.505 5.505 0 01-1.48-3.497 5.66 5.66 0 011.89-3.89 5.729 5.729 0 014.1-1.438h1.04a5.729 5.729 0 014.099 1.438 5.656 5.656 0 011.891 3.89v1.143h-4.34v-1.143c0-.475-.694-1.014-1.65-1.014h-1.04c-.956 0-1.65.539-1.65 1.014 0 .474.477.84 1.258.97l2.54.41a5.568 5.568 0 013.402 1.722 5.501 5.501 0 011.48 3.498 5.656 5.656 0 01-1.891 3.89 5.729 5.729 0 01-4.098 1.437z" fill="#0288D1"/><path d="M101.618 23.726h-4.34v4.314h4.34v-4.314z" fill="#0288D1"/><path d="M99.447 34.511c-3.434 0-6.79-1.012-9.645-2.908a17.279 17.279 0 01-6.395-7.744 17.16 17.16 0 01-.987-9.97 17.224 17.224 0 014.75-8.835A17.394 17.394 0 0196.06.332a17.46 17.46 0 0110.031.982 17.336 17.336 0 017.791 6.355 17.179 17.179 0 012.926 9.587c0 4.576-1.829 8.965-5.085 12.201a17.416 17.416 0 01-12.276 5.054zm0-30.197c-2.575 0-5.093.759-7.234 2.181a12.959 12.959 0 00-4.796 5.808 12.869 12.869 0 00-.74 7.477 12.917 12.917 0 003.563 6.627 13.046 13.046 0 006.667 3.542c2.526.5 5.144.243 7.523-.737a13 13 0 005.843-4.766 12.885 12.885 0 002.195-7.19c0-3.433-1.372-6.725-3.814-9.152a13.062 13.062 0 00-9.207-3.79z" fill="#B3DBF2"/><path d="M101.618 6.47h-4.34v4.315h4.34V6.47z" fill="#0288D1"/><path d="M118.979 45.296h-4.34v15.099h4.34V45.296zM118.979 36.668h-4.34v4.314h4.34v-4.314z" fill="#BFD4C3"/><path d="M43.024 62.552h-4.34V77.65h4.34V62.552zM43.024 53.924h-4.34v4.314h4.34v-4.314z" fill="#FFCEA8"/><path d="M110.299 66.866h-4.34V77.65h4.34V66.866z" fill="#EBB3B3"/><path d="M73.407 8.628h-4.34V28.04h4.34V8.628z" fill="#BFD4C3"/><path d="M38.684 0h-4.34v6.47h4.34V0z" fill="#EBB3B3"/><path d="M7.782 121.558l17.825 2.808c2.7.425 5.474-1.696 6.185-4.73l.007-.031 15.573 9.031a21.494 21.494 0 007.456 2.645c3.646.574 7.49.233 11.297-1.046l30.104-10.45c1.866-.648 3.475-2.029 4.53-3.891 1.054-1.862 1.429-3.979 1.054-5.964-.774-4.086-4.53-6.33-8.378-5.001l-17.193 5.949c.067-3.614-2.124-6.662-5.464-7.188l-10.662-1.68-3.24-2.85a21.526 21.526 0 00-10.888-5.108l-7.917-1.247.032-.135c.71-3.032-.91-5.847-3.61-6.272L16.667 83.59c-2.702-.424-5.476 1.697-6.186 4.73l-6.31 26.965c-.71 3.034.909 5.847 3.61 6.273zm37.112-22.832c3.37.531 6.502 2 9.058 4.25l3.637 3.2c.022.019.047.028.07.045.08.064.166.118.257.169.05.028.099.06.152.083.092.04.191.064.292.088.048.012.094.036.143.043.008.002.016-.001.024.001l11.156 1.757c1.619.255 2.59 1.941 2.162 3.767-.426 1.818-2.09 3.089-3.707 2.834l-15.611-2.459c-1.149-.181-2.327.719-2.629 2.009-.302 1.29.386 2.485 1.535 2.665l15.611 2.46c2.743.432 5.532-.952 7.315-3.331l19.919-6.891c1.523-.526 3.01.362 3.316 1.979.148.786 0 1.624-.418 2.36-.417.738-1.053 1.285-1.792 1.54L65.3 125.74c-5.422 1.822-10.955 1.344-15.581-1.335l-16.768-9.724 4.026-17.201 7.917 1.246zm-30.25-9.75c.108-.456.524-.775.93-.711l17.824 2.808c.406.064.648.486.542.942l-6.311 26.965c-.107.456-.523.775-.928.711l-17.825-2.808c-.405-.064-.649-.486-.542-.942l6.31-26.966z" fill="#0288D1"/></g><defs><clipPath id="bclip0"><path fill="#fff" transform="translate(.332)" d="M0 0h118.7v137.77H0z"/></clipPath></defs></symbol><symbol fill="none" viewBox="0 0 97 101" id="svg-conversation" xmlns="http://www.w3.org/2000/svg"><g clip-path="url(#cclip0)"><path d="M38.637 72.245a2.525 2.525 0 103.032 4.041 13.135 13.135 0 002.495-18.339 2.526 2.526 0 00-4.041 3.032 8.083 8.083 0 01-1.486 11.266z" fill="#FFCEA8"/><path d="M45.6 79.651a2.526 2.526 0 003.032 4.042 22.138 22.138 0 004.213-31.02 2.526 2.526 0 10-4.042 3.031 17.074 17.074 0 01-3.253 23.937l.05.01z" fill="#BFD4C3"/><path d="M8.215 97.505V87.078a48.168 48.168 0 0015.157-.324 8.933 8.933 0 006.82-11.6 9.346 9.346 0 01.252-2.454l.324-1.284a4.225 4.225 0 00-3.355-5.183c-3.163-.556-5.234-1.89-6.194-3.85 3.374.06 6.737-.415 9.963-1.404a2.526 2.526 0 001.708-2.516l-.293-5.982a12.813 12.813 0 004.92-3.324 6.123 6.123 0 00.657-7.275 7.436 7.436 0 00-3.031-2.597 12.853 12.853 0 01-6.952-10.771 35.928 35.928 0 00-.394-4.133C25.635 11.044 17.29 2.971 3.658 1.011a2.55 2.55 0 00-.707 5.052C14.49 7.699 20.997 13.974 22.816 25.26c.179 1.179.29 2.366.333 3.557a17.853 17.853 0 009.64 14.934c.413.184.792.437 1.121.748a1.091 1.091 0 01-.111 1.303 8.982 8.982 0 01-4.436 2.456 2.526 2.526 0 00-1.849 2.556l.283 5.85c-2.321.512-4.697.73-7.073.647a4.617 4.617 0 00-3.83 1.788 4.536 4.536 0 00-.727 4.103c.718 2.334 2.89 6.355 9.448 7.82l-.112.455a12.57 12.57 0 00-.242 4.86c.023.106.054.211.09.313a3.89 3.89 0 01-.282 3.264 3.8 3.8 0 01-2.637 1.88 44.218 44.218 0 01-16.268-.152 2.525 2.525 0 00-3.031 2.485v13.378a2.526 2.526 0 105.052 0h.03zM93.342 1.01c-13.63 1.94-21.976 10.014-24.149 23.351a35.904 35.904 0 00-.394 4.133 12.894 12.894 0 01-7.073 10.801 7.356 7.356 0 00-3.03 2.567 6.123 6.123 0 00.656 7.264 12.842 12.842 0 004.92 3.325l-.292 5.981a2.526 2.526 0 001.707 2.516 31.667 31.667 0 0010.094 1.435c-.909 1.96-3.03 3.284-6.123 3.84a4.223 4.223 0 00-3.354 5.183l.323 1.283c.192.804.277 1.63.253 2.456a8.933 8.933 0 006.82 11.6 48.197 48.197 0 0015.156.323v10.437a2.526 2.526 0 005.052 0V84.117a2.525 2.525 0 00-3.031-2.485 44.255 44.255 0 01-16.268.151 3.799 3.799 0 01-2.637-1.88 3.89 3.89 0 01-.283-3.263 2.45 2.45 0 00.091-.313 12.57 12.57 0 00-.263-4.86l-.11-.455c6.557-1.465 8.73-5.487 9.447-7.82a4.537 4.537 0 00-.738-4.093 4.627 4.627 0 00-3.83-1.788 28.488 28.488 0 01-7.072-.647l.283-5.85a2.527 2.527 0 00-1.85-2.556 8.993 8.993 0 01-4.435-2.456 1.091 1.091 0 01-.122-1.344c.344-.323.74-.586 1.173-.778a17.824 17.824 0 009.599-14.974c.042-1.191.154-2.378.333-3.557C76.014 13.944 82.511 7.68 94.06 6.063a2.55 2.55 0 00-.707-5.053h-.01z" fill="#B3DBF2"/></g><defs><clipPath id="cclip0"><path fill="#fff" d="M0 0h97v100.031H0z"/></clipPath></defs></symbol><symbol fill="none" viewBox="0 0 126 107" id="svg-proposal" xmlns="http://www.w3.org/2000/svg"><g clip-path="url(#dclip0)"><path d="M125.115 29.668l-1.5-2.593-6.502 3.747-10.745-18.573 6.253-3.602-1.5-2.593-8.851 5.1 1.795 3.1c-1.435.102-2.728.16-3.916.16-3.562 0-6.397-.518-11.042-1.603a7.019 7.019 0 00-1.601-.187c-4.625 0-7.718 4.451-8.833 6.365a844.29 844.29 0 00-3.502 6.046c-.597 1.04-1.192 2.078-2.77 4.787l-2.184-1.294-14.09 21.235h-9.603L32.897 60.396l.003.004h-.015v12.162h5.528v33.596h3V72.562H98.6v33.596h3V72.562h5.533V60.4h-.014l.015-.02-13.69-10.617h-2.278l4.012-6.465-3.142-1.859.165-.066c1.848-.747 3.55-.993 5.5-.814.369.033.744.051 1.125.051 2.75 0 5.383-.922 7.223-2.53.503-.438.958-.78 1.521-1.141l7.014-4.502 1.432 2.475 9.098-5.244zm-20.981 39.9h-68.25v-6.175h68.25v6.175zM92.417 52.757l9.853 7.643H37.763l9.794-7.643h6.585l-1.332 2.008h-3.06v2.993h40.517v-2.993h-2.203l1.246-2.008h3.107zm-1.398-8.44l-6.4 10.312-28.11-.019 14.636-22.053 1.776 1.052 2.687 1.827a6.008 6.008 0 003.907 10.595 5.97 5.97 0 002.25-.438l6.778-2.742 2.476 1.465zm14.928-9.898c-.693.445-1.253.865-1.873 1.406-1.301 1.138-3.214 1.79-5.247 1.79-.29 0-.574-.015-.853-.04-2.465-.223-4.601.093-6.9 1.022l-10.436 4.22c-1.506.607-3.336-.182-3.938-1.663a3.02 3.02 0 011.666-3.93l3.983-1.612 10.104-4.618a1.494 1.494 0 00.633-2.173l-.284-.438a5.386 5.386 0 00-4.142-2.49 5.582 5.582 0 00-.514-.021c-1.548 0-2.931.608-4 1.758-.937 1.009-1.771 2.484-2.441 3.67-.314.556-.64 1.128-.863 1.45-.451.269-1.658.812-2.327 1.042l-3.55-2.414c1.605-2.757 2.206-3.804 2.81-4.853.679-1.184 1.36-2.37 3.492-6.03 1.778-3.053 4.11-4.875 6.239-4.875.305 0 .612.036.916.106 4.77 1.115 7.894 1.683 11.727 1.683 1.654 0 3.491-.108 5.578-.278l7.354 12.71-7.134 4.578zM85.41 30.922c.31-.48.628-.924.938-1.258.493-.53 1.099-.8 1.8-.8.083 0 .167.003.253.011.342.03.652.115.93.255l-3.921 1.792z" fill="#0288D1"/><path d="M43.908 18.185L37.924 0" stroke="#BFD4C3" stroke-width="3"/><path d="M30.41 40.14L15.965 26.4" stroke="#B3DBF2" stroke-width="3"/><path d="M27.91 54.11L.643 62.574" stroke="#FFCEA8" stroke-width="3"/></g><defs><clipPath id="dclip0"><path fill="#fff" d="M0 0h126v107H0z"/></clipPath></defs></symbol><symbol fill="none" viewBox="0 0 97 98" id="svg-vote" xmlns="http://www.w3.org/2000/svg"><g clip-path="url(#eclip0)"><path d="M1.488 49.421c.298-.132.629-.23.96-.23.827 0 1.621.461 2.118 1.254l3.74 6.57s.364-.1.992-.133L6.651 38.131c-.331-1.387.43-2.74 1.655-3.103l.297-.066c1.258-.33 2.549.528 2.913 1.914l2.018 12.149 1.622-.297-1.224-15.087c-.199-1.42.695-2.707 1.952-2.905l.133.033c1.257-.165 2.449.792 2.68 2.179l1.655 15.219 1.622.066-.497-12.71c-.033-.264 0-.495.033-.727-1.026-6.998-1.688-14.525-1.754-15.648-.53-2.377.795-4.754 3.078-5.612 1.258-.495 2.68-.396 3.905.198 1.225.594 2.118 1.684 2.515 2.971 0 .066.034.132.034.165l1.29 7.032-1.191-13.931v-.066a5.265 5.265 0 014.765-5.547 5.447 5.447 0 013.939 1.189 5.302 5.302 0 011.886 3.631l.86 7.56-.397-11.455v-.1c.1-2.905 2.416-5.15 5.329-5.15H46c2.913 0 5.295 2.345 5.328 5.25l.894 13.502.265-9.508v-.132a5.273 5.273 0 011.985-3.565 5.26 5.26 0 013.906-1.123l.463.066c2.813.33 4.898 2.873 4.7 5.679V32.42l2.746-6.24c0-.033.033-.033.033-.066a5.552 5.552 0 016.487-2.905c2.846.76 4.567 3.697 3.839 6.602l-.1.463c-.76 2.97-1.456 5.843-2.118 8.187l-1.158 8.616 1.787.165 3.177-14.922c.364-1.353 1.787-2.145 3.144-1.815l.133.033c1.39.33 2.25 1.75 1.886 3.136L80.683 48.53l1.754.495 3.343-11.852c.496-1.353 2.019-2.014 3.342-1.518l.298.132a2.567 2.567 0 011.523 3.301l-4.6 18.29a9.35 9.35 0 011.092.264l4.699-6.042a2.806 2.806 0 012.118-.99c.463 0 .927.132 1.357.363 1.29.726 1.754 2.377 1.059 3.697-1.522 2.806-3.938 7.362-4.865 8.65-1.555 2.146-3.078 3.961-4.733 5.315-1.654 1.353-3.441 2.245-5.592 2.575l-.795 3.17c.066 0 .133.032.166.065 4.534 1.684 4.401 3.368 4.236 4.06 0 .034-.033.1-.033.133L80.22 96.663a1.658 1.658 0 01-1.589 1.222c-.132 0-.297 0-.43-.067-.893-.23-1.423-1.122-1.158-2.013l4.137-15.517c-.596-.032-1.159-.099-1.622-.165-2.317-.297-5.494-.924-9.167-1.848a82.02 82.02 0 01-3.707-.99V96.2c0 .924-.728 1.65-1.654 1.65a1.637 1.637 0 01-1.655-1.65V68.239c-.066.033-.133.033-.199.066-.562.132-1.191.264-1.952.429-.662.132-1.357.264-2.151.396a76.329 76.329 0 01-6.156.76c-3.376.263-7.28.362-11.517 0a69.016 69.016 0 01-8.902-1.288c-.199-.033-.364-.1-.563-.132V96.2c0 .925-.728 1.651-1.655 1.651a1.637 1.637 0 01-1.654-1.65V78.374c-1.754.396-4.005.792-6.719 1.188-3.408.462-6.32.727-8.472.727h-.264c-.298 0-.662 0-1.026-.034l2.35 15.682a1.669 1.669 0 01-1.39 1.881h-.232c-.795 0-1.523-.594-1.622-1.42L8.504 78.177v-.066-.066-.1-.099c-.066-1.485 1.357-2.64 4.27-3.433.066-.033.132-.033.231-.033l-.463-3.235C10.655 70.55 9.1 69.46 7.71 67.908c-1.39-1.518-2.615-3.499-3.84-5.843-.727-1.386-2.547-6.206-3.673-9.177-.496-1.32.034-2.873 1.291-3.467zm21.545-30.933c.033.099.033.165.033.264 0 .132.596 7.263 1.555 14.229.596 4.225 1.29 8.385 2.118 10.828.066.231.133.43.232.627.662 1.717 1.258 3.103 1.886 4.259 1.291 2.377 2.648 3.862 4.832 5.58.397.33.827.66 1.29.99.431.297.663.792.663 1.32v9.21c2.184.397 4.335.661 6.387.793 1.522.033 3.276.066 5.262.066 1.754 0 3.343-.033 4.799-.066 2.35-.165 4.467-.43 6.254-.726v-8.683c0-.66.398-1.254.993-1.518.133-.066.298-.132.43-.198 3.045-1.387 5.263-3.764 7.083-6.867.265-.462.53-.924.794-1.42.761-1.485 1.49-3.136 2.184-4.886.63-1.617 1.953-6.734 2.979-10.762.198-.726.364-1.42.53-2.08l.132-.462c.297-1.188-.397-2.344-1.556-2.674-1.026-.297-2.118.198-2.614 1.155l-3.939 8.914-.43.957a1.715 1.715 0 01-1.72.99s-.63-.065-1.622.034c-.828.099-1.953.297-3.144.76-1.423.593-2.482 1.287-2.515 1.287-.762.495-1.788.297-2.284-.463-.496-.759-.298-1.782.463-2.277a16.337 16.337 0 013.475-1.75 15.104 15.104 0 012.615-.726l.033-25.09v-.165a2.017 2.017 0 00-1.754-2.18l-.463-.065c-.53-.066-1.06.099-1.49.429-.397.33-.662.792-.728 1.287L55.3 26.642c0 .43-.199.858-.53 1.156a1.798 1.798 0 01-1.191.462l-2.581-.066c-.86-.033-1.556-.694-1.589-1.552l-1.39-21.227v-.1c0-1.089-.893-2.013-2.019-2.013h-.198c-1.092 0-1.953.825-2.02 1.915l.762 21.392a1.645 1.645 0 01-1.39 1.684l-2.515.396a1.717 1.717 0 01-1.258-.297 1.563 1.563 0 01-.629-1.123L36.734 9.51v-.067c-.033-.528-.298-1.023-.728-1.386s-.927-.495-1.49-.462a1.974 1.974 0 00-1.787 2.08l1.82 21.16a1.596 1.596 0 01-.992 1.652l-2.45 1.056a1.653 1.653 0 01-1.422-.066 1.714 1.714 0 01-.86-1.156l-2.748-14.79a1.515 1.515 0 00-.794-.89 1.596 1.596 0 00-1.29-.067c-.729.33-1.159 1.123-.96 1.915z" fill="#B3DBF2"/></g><defs><clipPath id="eclip0"><path fill="#fff" transform="rotate(-180 48.5 48.925)" d="M0 0h97v97.851H0z"/></clipPath></defs></symbol></svg>