<?xml version="1.0" encoding="utf-8"?><svg xmlns="http://www.w3.org/2000/svg" xmlns:xlink="http://www.w3.org/1999/xlink"><symbol fill="none" viewBox="0 0 52 50" id="svg-bitcoin" xmlns="http://www.w3.org/2000/svg"><g opacity=".5"><path d="M50.148 29.595c-3.247 12.763-16.439 20.53-29.465 17.348C7.662 43.76-.265 30.833 2.984 18.07 6.23 5.305 19.422-2.464 32.444.719 45.47 3.9 53.396 16.83 50.148 29.595z" fill="#7A7A7A"/><path d="M37.289 20.434c.484-3.17-1.98-4.875-5.348-6.011l1.093-4.295-2.668-.651-1.063 4.18c-.701-.17-1.422-.332-2.137-.492l1.07-4.209-2.665-.651-1.094 4.293c-.58-.13-1.15-.258-1.703-.393l.003-.013-3.679-.9-.71 2.792s1.98.444 1.938.472c1.08.264 1.276.965 1.243 1.52l-1.244 4.892c.074.02.17.046.277.088l-.282-.069-1.744 6.854c-.133.321-.468.804-1.223.62.027.039-1.939-.474-1.939-.474L14.09 30.98l3.471.848c.646.158 1.279.324 1.902.48l-1.104 4.344 2.664.652 1.094-4.298c.728.194 1.434.372 2.126.54l-1.09 4.278 2.668.651 1.104-4.335c4.548.844 7.969.503 9.409-3.528 1.16-3.246-.058-5.119-2.451-6.34 1.742-.394 3.055-1.517 3.406-3.838zm-6.095 8.375c-.825 3.246-6.402 1.491-8.21 1.051l1.465-5.754c1.808.442 7.606 1.318 6.745 4.703zm.825-8.422c-.752 2.953-5.394 1.453-6.9 1.085l1.328-5.22c1.506.369 6.355 1.055 5.572 4.135z" fill="#fff"/></g></symbol><symbol fill="none" viewBox="0 0 97 132" id="svg-hello" xmlns="http://www.w3.org/2000/svg"><path d="M31.096.23c.25.106.496.215.749.318 2.007.813 3.514 2.084 4.34 4.17 2.768 6.985 4.557 14.23 5.944 21.587l.48 2.542c1.02-5.611 2.02-11.41 3.137-17.182.628-3.252 3.681-5.137 6.937-4.47 3.064.627 5.044 3.708 4.42 6.888-1.295 6.613-1.945 13.295-2.07 20.077.174-.483.353-.964.52-1.448 1.274-3.702 2.806-7.28 5.1-10.484 2.107-2.937 5.591-3.603 8.353-1.622 2.694 1.932 3.155 5.472 1.127 8.372-2.776 3.972-3.982 8.54-4.959 13.19-1.024 4.855-.075 9.535 1.044 14.26 2.951 12.503 3.496 25.173 2.4 37.955-1.013 11.843-3.94 23.178-8.642 34.076-.365.843-1.167 1.502-1.76 2.246h-.721c-1.821-.936-2.078-1.666-1.26-3.644 3.148-7.627 5.784-15.413 7.142-23.58 1.648-9.937 2.204-19.917 1.4-29.97a113.568 113.568 0 00-3.186-19.159c-2.014-7.87-.462-15.396 2.545-22.71.717-1.754 1.765-3.378 2.733-5.018.665-1.117.64-2.114-.228-2.753-.946-.696-1.905-.484-2.72.717-2.967 4.377-4.835 9.234-5.915 14.367-.52 2.477-.71 5.034-.944 7.563-.18 1.915-1.298 3.17-3.038 3.177-1.75.003-2.909-1.198-3.027-3.156-.687-11.018.083-21.945 2.097-32.79.162-.878.168-1.675-.592-2.28-1.096-.867-2.62-.26-2.88 1.242-1.001 5.878-2.055 11.75-2.863 17.658-.49 3.577-.575 7.215-.82 10.826-.12 1.813-1.138 2.972-2.735 3.044-1.753.075-2.887-.899-3.06-2.783-.838-9.213-2.383-18.3-4.982-27.188-.825-2.82-1.872-5.578-2.873-8.343-.366-1.01-1.654-1.8-2.544-1.647-1.075.184-1.67.924-1.843 1.942-.075.442.015.951.158 1.387 3.387 10.36 5.531 20.988 6.828 31.794a16.1 16.1 0 01.098 1.549c.038 1.557-.836 2.74-2.188 2.988-1.47.273-2.612-.52-3.299-1.955-1.321-2.752-2.515-5.612-4.212-8.124-3.753-5.555-8.845-9.684-14.867-12.664-.382-.19-.81-.358-1.232-.394-.932-.09-1.891-.125-2.22 1.07-.308 1.124-.061 1.98 1.006 2.64a48.077 48.077 0 019.461 7.668c4.314 4.52 7.75 9.617 8.839 15.828.43 2.455 1.42 3.32 3.668 3.909 3.655.958 6.965 2.768 9.814 5.307.91.814 1.012 2.053.314 2.88-.707.834-1.929.914-2.913.185-.032-.024-.061-.054-.09-.079-4.552-3.82-9.933-5.612-15.76-5.894-3.647-.176-7.334.104-10.977.455-1.49.145-2.953.921-4.346 1.585-1.42.676-1.911 2.079-1.412 3.398.519 1.372 1.846 2.067 3.397 1.683 7.343-1.817 14.018-.394 20.041 4.11 3.034 2.269 4.592 5.402 4.754 9.11.796 18.327-2.618 35.852-10.34 52.522-.617 1.333-1.001 2.893-2.609 3.527h-.72c-1.72-1.043-2.003-1.784-1.214-3.366 3.94-7.91 6.747-16.207 8.571-24.838 1.945-9.221 2.884-18.54 2.257-27.963-.157-2.367-1.235-4.401-3.237-5.87-5-3.665-10.48-4.84-16.538-3.33-3.68.918-7.025-.946-8.274-4.504-.074-.214-.188-.416-.283-.62v-2.868c.936-2.934 3.11-4.564 5.869-5.634 2.917-1.13 5.966-1.442 9.047-1.522 2.422-.066 4.845-.015 7.332-.015-.22-2.46-1.082-4.757-2.198-6.954-3.345-6.59-8.507-11.508-14.713-15.348-3.328-2.065-3.394-6.031-2.111-8.37 1.41-2.577 5.07-3.602 7.994-2.21 5.627 2.677 10.515 6.335 14.56 11.071 1.28 1.5 2.43 3.112 3.801 4.881-.086-.628-.126-1.009-.193-1.388-1.36-7.923-3.136-15.743-5.654-23.39-.921-2.804.265-5.822 2.778-7.355.568-.346 1.201-.587 1.806-.878.8-.004 1.602-.004 2.4-.004z" fill="#B3DBF2"/><path d="M84.34 23.602c-.094 6.89-2.151 13.121-6.328 18.636-.263.349-.543.7-.877.974-.776.641-1.631.644-2.423.06-.83-.617-1.073-1.463-.632-2.425.148-.32.383-.604.596-.889 5.718-7.73 7.07-16.148 4.046-25.27-.168-.509-.295-1.1-.207-1.61.157-.918.84-1.45 1.768-1.514 1.038-.073 1.748.455 2.1 1.423a30.545 30.545 0 011.866 9.067c.028.515.058 1.03.09 1.548z" fill="#FFCEA8"/><path d="M96.62 25.628c-.03 4.888-1.323 9.401-4.082 13.477-.87 1.285-1.978 1.622-3.017.942-1.028-.669-1.172-1.898-.357-3.136 3.55-5.389 4.223-11.196 2.587-17.346-.063-.232-.152-.454-.203-.685-.269-1.25.263-2.18 1.418-2.492 1.066-.291 2.122.199 2.402 1.385 0 0 1.278 5.93 1.252 7.855z" fill="#BFD4C3"/></symbol><symbol fill="none" viewBox="0 0 42 48" id="svg-money" xmlns="http://www.w3.org/2000/svg"><path d="M10.641 48c4.032 0 7.531-2.277 9.273-5.598.389.016.774.027 1.147.027.187 0 .368 0 .568-.005.196-.004.391-.01.583-.022a6.242 6.242 0 00.32-.011l.571-.04c.149-.01.29-.023.468-.038 5.085-.474 8.436-2.238 8.616-4.511.01-.055.201-1.086.201-2.175 0-.864-.12-1.701-.179-2.047.146-.905.179-1.605.179-2.034 0-.424-.032-1.114-.178-2.03.145-.904.178-1.603.178-2.031 0-.879-.122-1.709-.174-2.024.056-.339.173-1.152.173-2.008 0-.877-.123-1.706-.177-2.03.054-.323.177-1.153.177-2.029 0-.932-.14-1.815-.187-2.087-.046-3.106-5.76-4.781-11.139-4.781-5.394 0-11.126 1.685-11.14 4.807-.05.302-.18 1.155-.18 2.056 0 .877.122 1.706.176 2.03a13.077 13.077 0 00-.177 2.029c0 .869.121 1.692.176 2.021a13.112 13.112 0 00-.176 1.878C4.4 27.802.193 32.245.193 37.65.193 43.357 4.88 48 10.641 48zm17.393-19.56a.81.81 0 00-1.002-.542c-1.725.504-3.79.77-5.97.77-3.496 0-6.741-.71-8.468-1.85-.002 0-.004-.003-.006-.004-.461-.307-1.005-.784-1.046-1.337l-.001-.012v-.014c0-.027-.005-.053-.008-.08-.002-.013-.001-.027-.004-.04l-.002-.01a12.277 12.277 0 01-.163-1.47c.095.072.182.143.288.213a.811.811 0 001.121-.214.795.795 0 00-.216-1.111c-.37-.248-.988-.745-1.015-1.3v-.021c0-.03-.005-.058-.008-.086-.002-.02 0-.04-.005-.062a12.229 12.229 0 01-.163-1.462c2.044 1.541 5.95 2.354 9.694 2.354 3.748 0 7.656-.814 9.7-2.357a12.12 12.12 0 01-.165 1.47c-.002.01 0 .02-.002.03a1.722 1.722 0 00-.006.052c-.001.021-.005.041-.005.063-.01.423-.38.897-1.048 1.338-1.722 1.146-4.969 1.857-8.473 1.857-2.435 0-4.77-.342-6.575-.963a.808.808 0 00-1.028.494.799.799 0 00.498 1.018c1.97.678 4.494 1.05 7.105 1.05 3.866 0 7.37-.795 9.37-2.125.12-.08.224-.16.33-.241-.03.657-.123 1.239-.155 1.421-.005.02-.007.041-.01.062v.002l-.001.006c-.005.038-.011.075-.011.114V25.47c-.006.42-.38.897-1.053 1.343a5.655 5.655 0 01-.406.245.796.796 0 00-.31 1.088.809.809 0 001.098.31 7.502 7.502 0 00.55-.338c.107-.072.201-.145.297-.217-.018.365-.06.84-.158 1.442v.001a.795.795 0 00-.017.177c-.01.415-.365.88-1.006 1.314l-.05.03c-1.717 1.143-4.962 1.852-8.469 1.852-.438 0-.855-.014-1.256-.034a10.415 10.415 0 00-2.085-2.625c1.062.136 2.185.209 3.342.209 2.332 0 4.555-.29 6.426-.835a.798.798 0 00.548-.994zm-4.647 12.282c-.127.012-.25.023-.393.032l-.555.04-.066.001c-.083.005-.161.004-.249.01-.175.011-.354.015-.55.02-.166.004-.328.004-.494.004-.158 0-.329-.005-.496-.008.254-.778.41-1.598.47-2.444h.007c.42 0 .833-.01 1.24-.028a.803.803 0 00.77-.835.806.806 0 00-.843-.763c-.387.018-.785.023-1.182.023a10.17 10.17 0 00-.525-2.463c.18.003.356.009.54.009 3.835 0 7.311-.78 9.318-2.09.016-.008.03-.018.045-.027l.027-.02c.113-.075.21-.151.31-.227-.017.365-.058.842-.157 1.446a.842.842 0 00-.02.17l.002.009c-.017.572-.665 1.083-1.05 1.338l-.038.027-.004.002c-1.05.686-2.707 1.234-4.666 1.544a.8.8 0 00-.67.916.806.806 0 00.926.663c2.21-.35 4.043-.968 5.29-1.78a.998.998 0 00.07-.05c.118-.077.217-.156.32-.235-.035.798-.164 1.496-.165 1.504-.007.035-.007.07-.009.104l-.003.021c-.036 1.192-2.726 2.67-7.2 3.087zM21.06 14.126c5.884 0 9.502 1.863 9.524 3.206l-.001.032c-.035 1.343-3.65 3.199-9.523 3.199-5.855 0-9.464-1.845-9.52-3.186v-.06c.047-1.341 3.658-3.191 9.52-3.191zM10.64 28.9c4.871 0 8.834 3.925 8.834 8.75 0 4.824-3.963 8.749-8.834 8.749-4.87 0-8.833-3.925-8.833-8.75 0-4.824 3.963-8.749 8.833-8.749z" fill="#0288D1"/><path d="M10.545 38.444h.096c.383 0 .748.185.977.493.222.3.285.688.172 1.058-.13.394-.468.704-.864.792-.078.02-.164.03-.28.03-.52 0-.983-.329-1.15-.816a.779.779 0 00-.75-.521c-.258 0-.501.123-.652.33-.155.214-.314.46-.24.682.255.782 1.054 1.47 1.69 1.778l.034.017v.89c0 .419.594.79 1.063.79.467 0 1.062-.372 1.062-.79v-.891l.037-.017c.558-.249 1.302-.845 1.615-1.566.34-.8.23-1.83-.295-2.757-.434-.748-1.372-1.25-2.335-1.25h-.085c-.468 0-.807-.154-1.007-.456a1.095 1.095 0 01-.095-1.088c.144-.337.458-.586.842-.665.084-.018.168-.018.249-.018.524 0 .988.33 1.155.822.103.313.41.531.745.531.26 0 .505-.122.659-.332.127-.181.32-.455.244-.684-.288-.849-1.17-1.52-1.694-1.763l-.036-.016v-.908c0-.416-.594-.785-1.062-.785-.469 0-1.063.37-1.063.785v.909l-.037.016c-.569.248-1.32.854-1.625 1.598-.343.84-.205 1.811.388 2.734.428.668 1.266 1.068 2.242 1.068zM1.124 21.349h5.584a.804.804 0 00.808-.8c0-.442-.362-.8-.808-.8H1.124a.804.804 0 00-.808.8c0 .442.362.8.808.8zM34.61 20.549c0 .442.361.8.807.8h5.584a.804.804 0 00.808-.8c0-.442-.362-.8-.808-.8h-5.584a.804.804 0 00-.808.8zM6.393 6.019a.794.794 0 000 1.13l3.948 3.912a.81.81 0 00.572.234.81.81 0 00.571-.234.794.794 0 000-1.131L7.536 6.019a.813.813 0 00-1.143 0zM20.254.8v5.531c0 .442.362.8.808.8a.804.804 0 00.807-.8V.8c0-.442-.362-.8-.807-.8a.804.804 0 00-.808.8zM35.732 6.019a.813.813 0 00-1.142 0l-3.949 3.91a.794.794 0 000 1.132.81.81 0 00.571.234.81.81 0 00.572-.234l3.948-3.911a.795.795 0 000-1.131z" fill="#0288D1"/></symbol></svg>