<?xml version="1.0" encoding="utf-8"?><svg xmlns="http://www.w3.org/2000/svg" xmlns:xlink="http://www.w3.org/1999/xlink"><symbol fill="none" viewBox="0 0 160 107" id="svg-broken-link" xmlns="http://www.w3.org/2000/svg"><path d="M75.912 54.748c-.356-1.961-2.134-3.21-3.912-3.21-.355 0-.71 0-1.066.179l-2.667.713 3.022-1.783c1.778-1.07 2.49-3.567 1.245-5.35l-2.667-4.459c-.533-.891-1.422-1.605-2.489-1.783.534-.535 1.067-1.248 1.245-1.962.355-1.248.177-2.675-.712-3.923l-2.133-3.21c-.889-1.07-2.133-1.783-3.378-1.783-.355 0-.71 0-1.244.178l-4.267 1.248c-5.689 1.605-9.066 7.669-7.466 13.375l1.422 4.815-10.133 6.242-2.667-2.853c-1.956-2.319-4.978-3.567-8-3.567-2.667 0-5.156 1.07-7.111 2.675L4.089 67.41C-.355 71.333-.71 78.288 3.2 82.568l10.845 11.949c1.955 2.318 4.978 3.566 8 3.566 2.666 0 5.155-.891 7.111-2.675l19.022-17.12a11.065 11.065 0 003.556-7.49c.177-2.496-.534-4.993-2.134-6.955l5.156-3.21c1.778 3.389 5.511 5.529 9.422 5.529.89 0 1.956-.179 2.845-.357l6.755-1.605c2.133-.535 3.378-2.675 3.022-4.815l-.888-4.637zm-46.223 10.7l2.667 4.459c.711 1.248 1.956 1.961 3.378 1.961.355 0 .71 0 1.244-.178L22.223 85.065l-8.356-9.452L30.223 60.99c-.356.535-.711 1.07-.711 1.605-.534.892-.356 1.962.177 2.853zm23.645-8.916l-6.578 4.101-3.733 2.319-3.378 2.14-3.734 2.318-2.31-3.923 3.022-1.784L40 59.563l3.734-2.318 8.355-5.172 3.734-2.318 3.555-2.14 3.733-2.318 3.2-1.962 2.312 3.923-4.267 2.675-3.733 2.319-3.556 2.14-3.733 2.14zm.177-14.802c-.888-3.388 1.067-6.955 4.445-8.025l4.267-1.248 2.31 3.21-4.088 1.605c-1.956.535-3.2 2.675-2.667 4.815l.356 1.426-3.556 2.14-1.067-3.923zm-6.044 28.89c-.178 1.783-.889 3.388-2.133 4.458L26.31 92.198c-1.244 1.07-2.666 1.605-4.266 1.605-1.778 0-3.556-.713-4.8-2.14L6.4 79.715c-2.31-2.675-2.133-6.777.534-9.095L25.956 53.5c1.244-1.07 2.667-1.605 4.267-1.605 1.777 0 3.555.713 4.8 2.14l2.133 2.318-3.378 2.14-.71-.713c-.712-.892-1.779-1.248-2.845-1.248-.89 0-1.956.356-2.667 1.07l-16.889 14.98c-1.6 1.426-1.778 3.923-.355 5.528l8.888 9.987c.712.891 1.778 1.248 2.845 1.248.889 0 1.955-.357 2.666-1.07l16.89-15.337c1.422-1.248 1.6-3.21.71-4.815l3.556-2.14c1.067 1.427 1.6 3.032 1.6 4.637zm18.667-8.917c-.711.179-1.245.357-1.778.357-2.489 0-4.622-1.427-5.689-3.567l3.733-2.318c.712.892 1.778 1.427 3.023 1.427.355 0 .71 0 1.066-.179L72 55.818l.89 4.28-6.756 1.605zM157.157 78.467l-15.645-19.974c-1.955-2.675-5.155-4.101-8.355-4.101-2.489 0-4.8.891-6.756 2.318l-3.022 2.319-12.267-10.7 1.778-6.242c1.6-5.707-1.778-11.592-7.467-13.197l-4.978-1.783c-.533-.178-.888-.178-1.422-.178-1.777 0-3.377 1.248-4.089 2.853l-1.422 4.101c-.355 1.07-.355 2.319.178 3.389.533 1.07 1.6 1.783 2.667 2.14l2.666.713c-.71.178-1.422.714-1.955 1.248l-3.378 3.924c-1.422 1.605-1.245 4.102.356 5.528l1.6 1.427c-1.245-.357-2.49-.714-3.734-.892-.355 0-.711-.178-1.067-.178-2.31 0-4.266 1.783-4.622 4.101l-.355 3.389c-.356 2.318 1.422 4.637 3.733 5.172 1.778.356 3.733.713 5.511 1.248.889.178 1.956.356 2.845.356 3.2 0 6.222-1.426 8.355-3.923l6.578 5.707c-3.911 3.745-4.445 9.987-1.067 14.445l15.645 19.973c1.955 2.675 5.155 4.102 8.355 4.102 2.489 0 4.8-.892 6.756-2.319l12.622-10.165c4.8-3.388 5.689-10.165 1.956-14.801zM101.69 51.895l-3.556-3.032-.888-.713 1.6-1.783 1.422-1.605 2.844 2.496 3.378 2.854 3.555 3.032 10.134 8.916 3.2 2.853 3.022 2.675 2.667 2.319-3.023 3.388-3.377-2.853-3.023-2.675-3.2-2.853-8-6.956-3.555-3.031-3.2-3.032zm24.355 25.68c1.067 0 2.312-.535 3.023-1.427l3.377-3.923c1.067-1.248 1.245-3.031.534-4.458l13.511 17.12-9.956 7.847-12.266-15.515c.533.356 1.066.356 1.777.356zM97.601 35.488l-.533 2.14.533-2.14 1.422-4.101 5.156 1.783h.178c3.377.892 5.511 4.459 4.444 8.025l-1.244 4.28-3.378-2.853.355-1.07c.534-2.14-.711-4.28-2.666-4.815l-4.267-1.248zm.533 26.037c-.533 0-1.244 0-1.777-.178-1.956-.535-3.912-.892-5.69-1.427-.177 0-.355-.178-.355-.357l.356-3.388c0-.178.177-.356.355-.356h.178c1.245.178 2.489.534 3.556.891l1.422.357c.355.178.71.178 1.067.178 1.066 0 1.955-.356 2.666-1.07l3.378 2.854c-1.245 1.604-3.022 2.496-5.156 2.496zm54.756 28.712l-12.622 10.165c-1.067.891-2.489 1.426-4.089 1.426-1.956 0-3.911-.891-4.978-2.496l-15.644-19.973c-2.134-2.675-1.778-6.599.888-8.917l3.023 2.675a4.022 4.022 0 000 4.815l14.044 17.833c.711.892 1.778 1.427 3.022 1.427.889 0 1.778-.357 2.489-.892l10.489-8.382c1.6-1.248 1.956-3.745.533-5.35l-14.044-17.833c-.711-.892-1.778-1.426-3.022-1.426-.889 0-1.778.356-2.489.891l-.711.535-3.022-2.675 2.311-1.962c1.066-.891 2.489-1.426 4.089-1.426 1.955 0 3.911.892 4.977 2.497l15.645 19.973c2.311 2.853 1.778 6.955-.889 9.095z" fill="#0288D1"/><path d="M66.846 69.728l-9.778 9.095c-.89.714-.89 2.14-.178 3.032.355.535 1.067.713 1.6.713.533 0 1.067-.178 1.422-.535l9.778-9.095c.889-.713.889-2.14.178-3.031-.711-1.07-2.134-1.07-3.022-.179z" fill="#BFD4C3"/><path d="M81.245 72.938c-1.245 0-2.134.892-2.134 2.14v11.949c0 1.248.89 2.14 2.134 2.14 1.244 0 2.133-.892 2.133-2.14V75.078c0-1.248-1.067-2.14-2.133-2.14z" fill="#B3DBF2"/><path d="M95.823 71.333c-.71-.891-2.133-1.07-3.022-.178-.889.713-1.066 2.14-.177 3.032l4.977 5.885c.356.535 1.067.713 1.6.713.534 0 1.067-.178 1.422-.535.889-.713 1.067-2.14.178-3.032l-4.978-5.885z" fill="#FFCEA8"/><path d="M89.779 24.253c.355.357.889.535 1.244.535.711 0 1.245-.356 1.6-.713l8.178-10.165c.711-.892.533-2.318-.356-3.032-.888-.713-2.31-.535-3.022.357l-8 10.165c-.71.892-.533 2.14.356 2.853z" fill="#BFD4C3"/><path d="M65.245 25.68c.355.357.889.713 1.6.713.533 0 1.066-.178 1.422-.535.889-.891.889-2.14 0-3.031l-7.644-7.669c-.89-.891-2.134-.891-3.023 0-.889.892-.889 2.14 0 3.032l7.645 7.49z" fill="#FFCEA8"/><path d="M80.356 19.973c1.244-.178 2.133-1.07 1.955-2.318L81.067 2.853C80.889 1.605 80 .713 78.756.892c-1.245.178-2.134 1.07-1.956 2.318l1.244 14.802c.178 1.07 1.067 1.961 2.312 1.961-.178 0 0 0 0 0z" fill="#B3DBF2"/></symbol><symbol fill="none" viewBox="0 0 156 154" id="svg-create-group" xmlns="http://www.w3.org/2000/svg"><path d="M25.07 39.242c4.625-2.758 92.06-19.644 92.842-14.705.782 4.938 22.474 87.562 14.705 92.843-7.77 5.28-86.237 21.252-92.843 14.704-6.605-6.547-19.33-90.085-14.705-92.842z" fill="#fff" stroke="#0288D1" stroke-width="2" stroke-dasharray="4 2"/><circle cx="24" cy="36.001" r="23" fill="#E5F3FA" stroke="#0288D1" stroke-width="2"/><circle cx="23.5" cy="31.5" r="5" fill="#fff" stroke="#0288D1"/><path d="M12.15 55.285l.093-.253c.132-.368.301-.874.501-1.471l.013-.036c.4-1.195.927-2.77 1.549-4.437.628-1.686 1.35-3.459 2.128-5.023.782-1.573 1.604-2.895 2.42-3.71 1.631-1.633 3.345-1.962 4.82-1.735 1.504.231 2.786 1.047 3.472 1.734.144.144.39.481.728 1.012.329.516.72 1.178 1.152 1.937a187.177 187.177 0 012.844 5.243 437.12 437.12 0 013.503 6.82l-2.591 2.112-5.33 1.023h-6.894l-4.378-1.027-4.03-2.19z" fill="#fff" stroke="#0288D1"/><circle cx="120" cy="24" r="23" fill="#E5F3FA" stroke="#0288D1" stroke-width="2"/><circle cx="119.5" cy="19.5" r="5" fill="#fff" stroke="#0288D1"/><path d="M108.15 43.284l.093-.253c.132-.368.301-.873.501-1.47l.013-.037c.4-1.195.927-2.769 1.549-4.437.628-1.686 1.35-3.458 2.128-5.022.782-1.573 1.603-2.895 2.42-3.711 1.631-1.632 3.345-1.962 4.82-1.735 1.504.232 2.786 1.048 3.472 1.735.144.143.39.48.728 1.011.329.517.721 1.179 1.152 1.937a187.772 187.772 0 012.844 5.243 440.76 440.76 0 013.38 6.575l.123.246-2.591 2.111-5.33 1.023h-6.894l-4.378-1.027-4.03-2.189z" fill="#fff" stroke="#0288D1"/><circle cx="132" cy="118" r="23" fill="#E5F3FA" stroke="#0288D1" stroke-width="2"/><circle cx="131.5" cy="113.5" r="5" fill="#fff" stroke="#0288D1"/><path d="M120.15 137.284l.093-.252c.132-.368.301-.874.501-1.471l.013-.036c.4-1.195.927-2.769 1.549-4.437.628-1.686 1.35-3.459 2.128-5.022.782-1.574 1.603-2.896 2.42-3.712 1.631-1.632 3.345-1.961 4.82-1.734 1.504.231 2.786 1.047 3.472 1.734.144.144.39.481.728 1.012.329.516.721 1.178 1.152 1.937a187.489 187.489 0 012.844 5.243 446.439 446.439 0 013.38 6.575l.123.245-2.591 2.112-5.33 1.022h-6.894l-4.378-1.026-4.03-2.19z" fill="#fff" stroke="#0288D1"/><circle cx="38" cy="130" r="23" fill="#E5F3FA" stroke="#0288D1" stroke-width="2"/><circle cx="37.5" cy="125.5" r="5" fill="#fff" stroke="#0288D1"/><path d="M26.15 149.284l.093-.252c.132-.368.301-.874.501-1.471l.013-.036c.4-1.195.927-2.769 1.549-4.437.628-1.686 1.35-3.459 2.128-5.022.782-1.574 1.604-2.896 2.42-3.712 1.631-1.632 3.345-1.961 4.82-1.734 1.504.231 2.786 1.047 3.472 1.734.144.144.39.481.728 1.012.329.516.72 1.178 1.152 1.937a186.767 186.767 0 012.844 5.243 441.916 441.916 0 013.503 6.82l-2.591 2.112-5.33 1.022h-6.894l-4.378-1.026-4.03-2.19z" fill="#fff" stroke="#0288D1"/></symbol><symbol fill="none" viewBox="0 0 125 106" id="svg-invitation" xmlns="http://www.w3.org/2000/svg"><g clip-path="url(#cclip0)"><circle r="5" transform="matrix(.93192 -.36272 .36256 .93194 116.36 39.806)" fill="#FFCEA8" stroke="#FFCEA8"/><circle r="2.5" transform="matrix(.93192 -.36272 .36256 .93194 81.315 29.225)" fill="#BFD4C3" stroke="#BFD4C3"/><circle r="5" transform="matrix(.93192 -.36272 .36256 .93194 94.956 10.502)" fill="#B3DBF2" stroke="#B3DBF2"/><path d="M30.544 101.12c.08 1.446 1.045 2.652 2.331 3.134a3.22 3.22 0 001.206.241c.964 0 1.928-.402 2.652-1.205l7.072-7.796 13.502 9.403a4.04 4.04 0 002.17.643c1.768 0 3.295-1.286 3.696-2.974l12.779-60.355c.16-.724-.08-1.527-.724-2.01-.562-.482-1.366-.562-2.09-.32L2.256 70.9c-1.446.644-2.33 2.09-2.25 3.698.08 1.607 1.125 2.893 2.652 3.375l27.084 8.197.803 14.949zm4.019-1.286L34 88.663l6.59 4.58-6.027 6.59zm24.833 1.527L34.804 84.403l35.683-35.602-11.09 52.56zm6.831-54.007l-35.12 35.04-26.682-8.037 61.802-27.003z" fill="#0288D1"/></g><defs><clipPath id="cclip0"><path fill="#fff" d="M0 0h124.385v105.54H0z"/></clipPath></defs></symbol><symbol fill="none" viewBox="0 0 150 143" id="svg-join-group" xmlns="http://www.w3.org/2000/svg"><g clip-path="url(#dclip0)"><path d="M31.668 19.29c5.163-1.462 93.668 4.836 93.147 9.79-.52 4.956-.95 90.08-9.79 93.159-8.839 3.079-88.478-1.785-93.147-9.791-4.67-8.006 4.627-91.697 9.79-93.158z" fill="#fff" stroke="#0288D1" stroke-width="2"/><path d="M49.344 23.916c0 12.656-10.258 22.916-22.913 22.916-12.655 0-22.913-10.26-22.913-22.916S13.776 1 26.43 1c12.655 0 22.913 10.26 22.913 22.916z" fill="#E5F3FA" stroke="#0288D1" stroke-width="2"/><path d="M30.913 19.432a4.98 4.98 0 11-9.96 0 4.98 4.98 0 019.96 0zM14.626 43.132c.03-.077.06-.16.092-.25.132-.368.3-.871.5-1.466l.012-.037c.4-1.19.925-2.76 1.544-4.421.626-1.68 1.345-3.446 2.12-5.005.78-1.567 1.598-2.884 2.41-3.697 1.626-1.626 3.333-1.954 4.802-1.728 1.499.23 2.775 1.043 3.46 1.728.142.142.388.479.724 1.007.327.515.718 1.175 1.148 1.93.86 1.511 1.869 3.39 2.833 5.225a434.73 434.73 0 013.49 6.796l-2.58 2.103-5.31 1.019h-6.87l-4.361-1.023-4.014-2.181z" fill="#fff" stroke="#0288D1"/><path d="M148.983 23.916c0 12.656-10.259 22.916-22.913 22.916-12.655 0-22.914-10.26-22.914-22.916S113.415 1 126.07 1c12.654 0 22.913 10.26 22.913 22.916z" fill="#E5F3FA" stroke="#0288D1" stroke-width="2"/><path d="M130.552 19.432a4.98 4.98 0 11-9.961 0 4.98 4.98 0 019.961 0zM114.265 43.132c.029-.077.06-.16.092-.25.132-.368.3-.871.5-1.466l.012-.037c.399-1.19.924-2.76 1.544-4.421.626-1.68 1.344-3.446 2.12-5.005.78-1.567 1.598-2.884 2.411-3.697 1.625-1.626 3.331-1.954 4.801-1.728 1.498.23 2.775 1.043 3.459 1.728.143.142.388.479.725 1.007.327.515.718 1.175 1.148 1.93.86 1.511 1.869 3.39 2.833 5.225a439.68 439.68 0 012.558 4.953c.338.665.616 1.215.81 1.6l.122.243-2.58 2.103-5.31 1.019h-6.869l-4.362-1.023-4.014-2.181z" fill="#fff" stroke="#0288D1"/><path d="M143.004 115.595c0 12.656-10.258 22.916-22.913 22.916-12.654 0-22.913-10.26-22.913-22.916 0-12.657 10.259-22.916 22.913-22.916 12.655 0 22.913 10.259 22.913 22.916z" fill="#E0F4FC" stroke="#0288D1" stroke-width="2"/><path d="M124.574 111.111a4.98 4.98 0 11-9.961-.001 4.98 4.98 0 019.961.001zM108.286 134.811c.029-.077.06-.16.092-.251.132-.367.301-.87.5-1.466l.012-.036c.399-1.19.925-2.759 1.544-4.421.626-1.68 1.345-3.446 2.12-5.005.78-1.567 1.598-2.884 2.411-3.697 1.626-1.626 3.332-1.954 4.801-1.728 1.499.23 2.775 1.043 3.459 1.727.143.143.389.48.725 1.008.328.515.718 1.175 1.148 1.93.86 1.511 1.869 3.389 2.833 5.225a426.155 426.155 0 013.491 6.795l-2.581 2.104-5.31 1.018h-6.869l-4.362-1.023-4.014-2.18z" fill="#fff" stroke="#0288D1"/><ellipse rx="23.913" ry="23.916" transform="rotate(6.022 -1086.98 307.626) skewX(.043)" fill="#fff"/><path d="M49.985 111.439c.119.681.21 1.371.27 2.069l-.997.087a23.204 23.204 0 010 3.999l.997.086c-.06.699-.151 1.389-.27 2.069l-.985-.172a22.736 22.736 0 01-1.031 3.857l.94.342c-.24.657-.506 1.3-.8 1.928l-.906-.423a22.872 22.872 0 01-2 3.457l.819.575c-.4.57-.824 1.122-1.271 1.654l-.766-.643a23.091 23.091 0 01-2.825 2.826l.643.765c-.532.447-1.084.872-1.654 1.272l-.575-.819a22.853 22.853 0 01-3.457 2.001l.423.906c-.628.293-1.271.56-1.928.799l-.342-.939c-1.239.451-2.528.798-3.857 1.031l.173.985c-.68.119-1.37.209-2.07.27l-.085-.997a23.195 23.195 0 01-4 0l-.086.997a24.236 24.236 0 01-2.069-.27l.173-.985a22.774 22.774 0 01-3.857-1.031l-.343.939c-.656-.239-1.3-.506-1.927-.799l.423-.906a22.858 22.858 0 01-3.457-2.001l-.575.819c-.57-.4-1.122-.825-1.654-1.272l.643-.765a23.102 23.102 0 01-2.825-2.826l-.766.643a24.012 24.012 0 01-1.27-1.654l.818-.575a22.876 22.876 0 01-2-3.457l-.906.423a23.661 23.661 0 01-.8-1.928l.94-.342a22.732 22.732 0 01-1.03-3.857l-.986.172c-.119-.68-.21-1.37-.27-2.069l.997-.086a23.237 23.237 0 010-3.999l-.997-.087c.06-.698.151-1.388.27-2.069l.985.173a22.73 22.73 0 011.031-3.857l-.94-.342c.24-.657.506-1.3.8-1.928l.906.423a22.935 22.935 0 012-3.458l-.819-.574c.4-.57.824-1.122 1.271-1.654l.766.643a23.06 23.06 0 012.825-2.826l-.643-.766a24.028 24.028 0 011.654-1.271l.575.819a22.897 22.897 0 013.457-2l-.423-.907c.628-.293 1.27-.56 1.927-.8l.343.94a22.737 22.737 0 013.857-1.031l-.173-.985c.68-.12 1.37-.21 2.069-.27l.086.996a23.237 23.237 0 014 0l.086-.996c.699.06 1.389.15 2.069.27l-.173.985a22.74 22.74 0 013.857 1.031l.342-.94c.657.24 1.3.507 1.928.8l-.423.906a22.892 22.892 0 013.457 2l.575-.818c.57.4 1.122.824 1.654 1.272l-.643.765a23.048 23.048 0 012.825 2.826l.766-.643c.447.532.87 1.084 1.27 1.654l-.818.574a22.94 22.94 0 012 3.458l.906-.423c.294.628.56 1.271.8 1.928l-.94.342a22.736 22.736 0 011.03 3.857l.986-.173z" stroke="#0288D1" stroke-width="2" stroke-dasharray="4 2"/><path d="M17.83 114.83l12.238 1.287 4.113.432" stroke="#0288D1" stroke-width="2" stroke-linecap="round" stroke-linejoin="round"/><path d="M26.219 106.497c.504 5.183-.239 8.147-.78 13.29l-.382 3.639-.154 1.47" stroke="#0288D1" stroke-width="2" stroke-linecap="round" stroke-linejoin="round"/></g><defs><clipPath id="dclip0"><path fill="#fff" d="M0 0h149.983v142.019H0z"/></clipPath></defs></symbol></svg>