<?xml version="1.0" encoding="utf-8"?><svg viewBox="0 0 123 86" fill="none" xmlns="http://www.w3.org/2000/svg" class="aora" width="123" height="86"><path fill-rule="evenodd" clip-rule="evenodd" d="M25.716 7.879c1.334 0 2.431 1.117 2.431 2.444 0 1.326-1.097 2.443-2.43 2.443-1.333 0-2.42-1.117-2.42-2.444 0-1.326 1.087-2.443 2.42-2.443z" fill="#BFD4C3"/><path fill-rule="evenodd" clip-rule="evenodd" d="M17.052 7.879c1.333 0 2.42 1.117 2.42 2.444 0 1.326-1.087 2.443-2.42 2.443-1.332 0-2.43-1.104-2.43-2.444 0-1.339 1.098-2.443 2.43-2.443z" fill="#FFCEA8"/><path fill-rule="evenodd" clip-rule="evenodd" d="M8.376 7.879c1.333 0 2.42 1.117 2.42 2.444 0 1.326-1.087 2.443-2.42 2.443-1.332 0-2.43-1.104-2.43-2.444 0-1.339 1.098-2.443 2.43-2.443z" fill="#EBB3B3"/><path fill-rule="evenodd" clip-rule="evenodd" d="M101.187 0C106.029 0 110 4 110 8.868v54.274c0 4.879-3.971 8.88-8.813 8.88H8.8c-4.842 0-8.8-4.004-8.8-8.88V8.868C0 4.002 3.958 0 8.8 0h92.387zm0 2.578H8.8c-3.447 0-6.242 2.829-6.242 6.29v8.48h104.884v-8.48c0-3.459-2.808-6.29-6.255-6.29zm6.255 17.348H2.558v43.216c0 3.476 2.795 6.303 6.242 6.303h92.387c3.447 0 6.255-2.83 6.255-6.303V19.926z" fill="#0288D1"/><path d="M121.751 66.546c0 9.753-7.901 17.658-17.645 17.658-9.745 0-17.645-7.905-17.645-17.657 0-9.753 7.9-17.658 17.645-17.658 9.744 0 17.645 7.905 17.645 17.657z" fill="#fff" stroke="#0288D1" stroke-width="2"/><path d="M113.161 75.609l-.102-3.605-6.767-6.809a5.79 5.79 0 00.32-1.892c0-3.214-2.588-5.819-5.781-5.819-3.193 0-5.782 2.605-5.782 5.819 0 3.213 2.589 5.818 5.782 5.818.544 0 1.069-.081 1.569-.223l1.449 1.459h2.865v2.471h3.172v2.78h3.275zM99.398 63.663c-.99 0-1.791-.807-1.791-1.803 0-.995.802-1.802 1.791-1.802.99 0 1.791.807 1.791 1.802 0 .996-.801 1.803-1.791 1.803z" fill="#0288D1"/></svg>