<svg xmlns="http://www.w3.org/2000/svg" fill="none" viewBox="0 0 117 120"><path fill="inherit" d="M41.4663 79.663c-.7293-.724-1.9075-.7206-2.6317.0061-.724.7293-.7214 1.9058.0061 2.6317L53.5423 96.933c4.5305 4.531 1.757 7.308.8469 8.218-2.5105 2.511-5.3083 2.256-8.3196-.753L29.2192 87.5051c-.2864-.2854-.8124-1.0035-.9672-1.8772-.1592-.8946.115-1.6584.8642-2.4076.686-.6869 1.3522-1.0191 2.039-1.0191 1.0736-.0009 1.9508.795 2.1948 1.0364l16.9249 16.9664c.481.481.7258.827.7258 1.03 0 .084-.0917.277-.3512.536-.1082.108-.1661.128-.1653.128-.0649.009-.4784-.095-1.1497-.768L32.4382 84.2472c-.7267-.7241-1.9049-.7258-2.6317.0009-.7258.7284-.7258 1.9049.0009 2.6316l16.8963 16.8783c.7543.756 1.5338 1.289 2.3167 1.582 1.5278.575 3.086.234 4.2588-.941 1.193-1.19 1.4422-2.38 1.4422-3.169 0-1.8479-1.2735-3.1205-1.8159-3.6602l-16.9222-16.963c-.6402-.6401-2.3912-2.1281-4.8282-2.1281h-.0008c-1.1679 0-2.9267.3668-4.6699 2.1099-1.5926 1.591-2.2656 3.6119-1.8963 5.6897.3746 2.0988 1.6273 3.4837 1.9993 3.8557l16.8504 16.892c2.0105 2.011 4.6699 3.536 7.471 3.535 2.0251 0 4.1265-.796 6.1102-2.778 3.9536-3.956 3.6387-8.9954-.8495-13.4836L41.4663 79.663Zm16.8635-12.1624c.4516 0 .9041-.1635 1.264-.494l5.9959-5.5426 4.5999 2.8254c.8746.5373 2.0217.2656 2.559-.6116.5381-.8755.2639-2.0217-.6116-2.559l-5.8013-3.5634c-.7094-.4369-1.6247-.3469-2.2373.2197l-7.0324 6.4987c-.7544.6982-.8011 1.8756-.1029 2.629a1.8583 1.8583 0 0 0 1.3667.5978Zm56.7482-47.2365L37.1068.0604c-.4802-.1263-.9862-.0519-1.4102.1973a1.8595 1.8595 0 0 0-.8573 1.1376l-5.3005 20.4674L1.86 21.8619c-1.027 0-1.86.8331-1.86 1.8599v78.9612c0 1.027.833 1.86 1.86 1.86h16.5494C22.4547 113.636 31.5581 120 42.1351 120s19.6792-6.364 23.7234-15.457h16.5486c1.0269 0 1.86-.833 1.86-1.86v-4.9913l10.0758 2.6093c.1566.04.314.059.4671.059.8271 0 1.5823-.555 1.7994-1.3932l19.8046-76.4346c.257-.9948-.341-2.0087-1.335-2.2673l-.001-.0008ZM42.134 116.281c-12.2672 0-22.2462-9.979-22.2462-22.2444 0-12.2672 9.9797-22.2462 22.2462-22.2462 12.2666 0 22.2463 9.9797 22.2463 22.2462-.0009 12.2664-9.9797 22.2444-22.2463 22.2444Zm-3.97-64.9142-5.1767-4.9535c-.6558-.629-1.6731-.6895-2.4007-.1454L10.3537 61.3985v-2.8264l21.208-16.0813 21.2581 20.3481a1.8568 1.8568 0 0 0 1.2864.5156c.4386 0 .8807-.1549 1.2328-.4672l10.1329-8.9643 8.4398 6.0091v18.1551H62.5798C57.8251 72.0038 50.4381 68.071 42.1349 68.071s-15.6895 3.9328-20.4457 10.0162H10.3563l-.0017-12.8399c.1289.0276.2578.045.3884.045.3885 0 .7786-.1212 1.1126-.3712l19.6982-14.731 4.0382 3.8644c.7432.7093 1.9189.6834 2.6308-.058.7094-.7414.6835-1.9195-.0588-2.6297Zm-27.8094 2.5364V32.2213h63.5563v23.1432l-7.4858-5.3289c-.7042-.5035-1.6645-.4525-2.3117.1228l-9.9564 8.8093-21.1682-20.2624c-.6609-.6324-1.6817-.6912-2.4093-.1376L10.3546 53.9032Zm70.1892 46.9218H67.1677c.5891-2.1677.9299-4.4351.9299-6.7873 0-4.4198-1.1159-8.5835-3.0728-12.23h10.7438c1.0268 0 1.8599-.8331 1.8599-1.8599l.0009-49.5863c0-1.0268-.8331-1.8599-1.86-1.8599H8.4947c-1.0268 0-1.86.8331-1.86 1.8599v49.5863c0 1.0268.8332 1.8599 1.86 1.8599h10.7456c-1.956 3.6465-3.0729 7.8094-3.0729 12.23 0 2.3513.3426 4.6196.9317 6.7873H3.7195V25.5844h76.8243v75.2406ZM40.2347 21.8638l2.5002-9.6451 37.2217 9.6451H40.2347Zm43.8481 1.0692 20.1762 5.2286-5.8062 22.4035-5.9111-7.0384c-.558-.6635-1.4958-.8573-2.2683-.4611l-6.009 3.0582V23.7226c0-.2829-.0675-.5494-.1817-.7907l.0001.0011Zm11.2108 32.7571-4.7243-4.9026c-.5788-.5978-1.4845-.7414-2.2191-.3487l-4.0867 2.1931v-2.3305l6.3793-3.2467 6.6622 7.932-4.5538 17.5753-8.4884-2.1999.0018-13.5068 4.604-2.4707 3.7468 3.8894c.3642.3798.8521.5692 1.3392.5692.4654 0 .9299-.1738 1.2907-.5208.7396-.7137.762-1.8918.0483-2.6323ZM93.4717 96.236l-9.2072-2.3858V74.2064l9.356 2.4248a1.858 1.858 0 0 0 1.4101-.1972 1.8542 1.8542 0 0 0 .8573-1.1377l12.4391-48.0027c.258-.9949-.34-2.0088-1.335-2.2674L41.8659 8.1499c-.994-.2544-2.0105.3408-2.2664 1.3357l-3.2086 12.3788H33.382l4.5928-17.7337 74.3682 19.272L93.4717 96.236Z"/></svg>