<?xml version="1.0" encoding="utf-8"?><svg viewBox="0 0 52 50" fill="none" xmlns="http://www.w3.org/2000/svg" width="52" height="50"><g opacity=".5"><path d="M50.148 29.595c-3.247 12.763-16.439 20.53-29.465 17.348C7.662 43.76-.265 30.833 2.984 18.07 6.23 5.305 19.422-2.464 32.444.719 45.47 3.9 53.396 16.83 50.148 29.595z" fill="#7A7A7A"/><path d="M37.289 20.434c.484-3.17-1.98-4.875-5.348-6.011l1.093-4.295-2.668-.651-1.063 4.18c-.701-.17-1.422-.332-2.137-.492l1.07-4.209-2.665-.651-1.094 4.293c-.58-.13-1.15-.258-1.703-.393l.003-.013-3.679-.9-.71 2.792s1.98.444 1.938.472c1.08.264 1.276.965 1.243 1.52l-1.244 4.892c.074.02.17.046.277.088l-.282-.069-1.744 6.854c-.133.321-.468.804-1.223.62.027.039-1.939-.474-1.939-.474L14.09 30.98l3.471.848c.646.158 1.279.324 1.902.48l-1.104 4.344 2.664.652 1.094-4.298c.728.194 1.434.372 2.126.54l-1.09 4.278 2.668.651 1.104-4.335c4.548.844 7.969.503 9.409-3.528 1.16-3.246-.058-5.119-2.451-6.34 1.742-.394 3.055-1.517 3.406-3.838zm-6.095 8.375c-.825 3.246-6.402 1.491-8.21 1.051l1.465-5.754c1.808.442 7.606 1.318 6.745 4.703zm.825-8.422c-.752 2.953-5.394 1.453-6.9 1.085l1.328-5.22c1.506.369 6.355 1.055 5.572 4.135z" fill="#fff"/></g></svg>