<?xml version="1.0" encoding="utf-8"?><svg viewBox="0 0 52 50" fill="none" xmlns="http://www.w3.org/2000/svg" width="52" height="50"><g opacity=".5"><path d="M50.15 29.6C46.9 42.35 33.7 50.12 20.68 46.93 7.66 43.76-.26 30.84 2.98 18.07 6.23 5.3 19.42-2.46 32.44.72 45.47 3.9 53.4 16.83 50.14 29.59z" fill="var(--text_1)"/><path d="M37.29 20.43c.48-3.17-1.98-4.87-5.35-6l1.1-4.3-2.67-.65-1.07 4.18-2.13-.5 1.07-4.2-2.67-.66-1.1 4.3-1.7-.4-3.67-.9-.71 2.78s1.98.45 1.94.48c1.08.26 1.27.96 1.24 1.52l-1.25 4.89c.08.02.18.04.28.09l-.28-.07-1.74 6.85c-.14.32-.47.8-1.23.62.03.04-1.94-.47-1.94-.47l-1.32 2.99 3.47.85 1.9.48-1.1 4.34 2.66.65 1.1-4.3c.72.2 1.43.38 2.12.55l-1.09 4.27 2.67.66 1.1-4.34c4.55.84 7.97.5 9.41-3.53 1.16-3.24-.05-5.12-2.45-6.34 1.75-.4 3.06-1.52 3.4-3.84zm-6.1 8.38c-.82 3.25-6.4 1.5-8.2 1.05l1.46-5.75c1.8.44 7.6 1.31 6.74 4.7zm.83-8.42c-.75 2.95-5.4 1.45-6.9 1.08l1.33-5.22c1.5.37 6.35 1.06 5.57 4.14z" fill="var(--background_0)"/></g></svg>