<?xml version="1.0" encoding="utf-8"?><svg viewBox="0 0 160 107" fill="none" xmlns="http://www.w3.org/2000/svg" width="160" height="107"><path class="special" d="M75.91 54.75A3.98 3.98 0 0072 51.54c-.36 0-.71 0-1.07.18l-2.66.71 3.02-1.78c1.78-1.07 2.49-3.57 1.24-5.35l-2.66-4.46a3.68 3.68 0 00-2.5-1.78 4.62 4.62 0 001.25-1.97 4.55 4.55 0 00-.7-3.92l-2.14-3.21a4.58 4.58 0 00-3.38-1.78c-.36 0-.71 0-1.24.18l-4.27 1.24a10.92 10.92 0 00-7.47 13.38l1.42 4.81-10.13 6.25-2.67-2.86a10.5 10.5 0 00-8-3.56 11.3 11.3 0 00-7.1 2.67L4.08 67.41a10.76 10.76 0 00-.89 15.16l10.84 11.95a10.5 10.5 0 008 3.56c2.67 0 5.16-.89 7.12-2.67l19.02-17.12a11.07 11.07 0 003.55-7.5c.18-2.49-.53-4.98-2.13-6.95l5.16-3.2a10.69 10.69 0 009.42 5.52c.89 0 1.95-.18 2.84-.35l6.76-1.61a4.2 4.2 0 003.02-4.81l-.89-4.64zM29.7 65.45l2.67 4.46a3.8 3.8 0 003.37 1.96c.36 0 .71 0 1.25-.18L22.22 85.07l-8.35-9.46L30.22 61c-.35.54-.7 1.07-.7 1.6-.54.9-.36 1.97.17 2.86zm23.64-8.92l-6.57 4.1-3.74 2.32-3.38 2.14-3.73 2.32-2.31-3.92 3.02-1.79L40 59.56l3.73-2.31 8.36-5.18 3.73-2.31 3.56-2.14 3.73-2.32 3.2-1.96 2.31 3.92-4.26 2.67-3.74 2.32-3.55 2.14-3.74 2.14zm.18-14.8a6.69 6.69 0 014.45-8.02l4.26-1.25 2.31 3.2-4.09 1.61a3.97 3.97 0 00-2.66 4.82l.35 1.42-3.55 2.14-1.07-3.92zm-6.04 28.89a6.64 6.64 0 01-2.14 4.46L26.31 92.2a6.36 6.36 0 01-4.27 1.6 6.34 6.34 0 01-4.8-2.14L6.4 79.72a6.48 6.48 0 01.53-9.1L25.96 53.5a6.36 6.36 0 014.26-1.6c1.78 0 3.56.7 4.8 2.14l2.14 2.31-3.38 2.14-.71-.71a3.53 3.53 0 00-2.85-1.25c-.89 0-1.95.36-2.66 1.07l-16.9 14.98a3.95 3.95 0 00-.35 5.53l8.89 9.99c.71.89 1.78 1.25 2.84 1.25.9 0 1.96-.36 2.67-1.07L41.6 72.94c1.42-1.25 1.6-3.21.71-4.82l3.56-2.14a7.71 7.71 0 011.6 4.64zm18.66-8.92c-.7.18-1.24.36-1.77.36a6.33 6.33 0 01-5.7-3.57l3.74-2.31a3.8 3.8 0 003.02 1.42c.36 0 .71 0 1.07-.18l5.51-1.6.89 4.28-6.76 1.6zM157.16 78.47L141.5 58.49a10.34 10.34 0 00-8.35-4.1c-2.5 0-4.8.9-6.76 2.32l-3.02 2.32-12.27-10.7 1.78-6.24c1.6-5.71-1.78-11.6-7.47-13.2l-4.98-1.78c-.53-.18-.88-.18-1.42-.18a4.66 4.66 0 00-4.09 2.85l-1.42 4.1a4.49 4.49 0 00.18 3.4 4.54 4.54 0 002.67 2.13l2.66.72a4.6 4.6 0 00-1.95 1.24l-3.38 3.93a3.95 3.95 0 00.36 5.53l1.6 1.42a28.35 28.35 0 00-3.74-.89c-.35 0-.7-.18-1.06-.18a4.77 4.77 0 00-4.63 4.1l-.35 3.4c-.36 2.31 1.42 4.63 3.73 5.16 1.78.36 3.73.72 5.51 1.25.9.18 1.96.36 2.85.36 3.2 0 6.22-1.43 8.35-3.92l6.58 5.7a10.92 10.92 0 00-1.07 14.45l15.65 19.97a10.34 10.34 0 008.35 4.1c2.5 0 4.8-.89 6.76-2.32l12.62-10.16a10.23 10.23 0 001.96-14.8zM101.69 51.9l-3.56-3.04-.88-.71 1.6-1.78 1.42-1.6 2.84 2.49 3.38 2.85 3.56 3.03 10.13 8.92 3.2 2.85 3.02 2.68 2.67 2.32-3.02 3.39-3.38-2.86-3.03-2.67-3.2-2.86-8-6.95-3.55-3.03-3.2-3.03zm24.36 25.68c1.06 0 2.3-.54 3.02-1.43l3.38-3.92a4.1 4.1 0 00.53-4.46l13.51 17.12-9.96 7.84-12.26-15.51c.53.36 1.06.36 1.78.36zM97.6 35.48l-.53 2.15.53-2.14 1.42-4.1 5.16 1.78h.18a6.38 6.38 0 014.44 8.03l-1.24 4.28-3.38-2.86.35-1.07a3.97 3.97 0 00-2.66-4.81l-4.27-1.25zm.53 26.05c-.53 0-1.24 0-1.77-.18-1.96-.54-3.91-.9-5.7-1.43-.17 0-.35-.18-.35-.36l.36-3.38c0-.18.18-.36.35-.36h.18c1.25.18 2.49.53 3.56.89l1.42.36c.35.18.71.18 1.07.18 1.06 0 1.95-.36 2.66-1.07l3.38 2.85a6.31 6.31 0 01-5.16 2.5zm54.76 28.7l-12.62 10.17a6.33 6.33 0 01-4.1 1.43c-1.95 0-3.9-.9-4.97-2.5l-15.64-19.97a6.46 6.46 0 01.88-8.92l3.03 2.68a4.02 4.02 0 000 4.81l14.04 17.84a3.8 3.8 0 003.02 1.42c.9 0 1.78-.35 2.5-.89l10.48-8.38a3.74 3.74 0 00.53-5.35L136 64.74a3.8 3.8 0 00-3.02-1.43c-.89 0-1.78.36-2.49.89l-.71.54-3.02-2.68 2.3-1.96a6.33 6.33 0 014.1-1.43c1.95 0 3.9.9 4.97 2.5l15.65 19.97a6.48 6.48 0 01-.89 9.1z" fill="var(--primary_0)"/><path d="M66.85 69.73l-9.78 9.1c-.9.7-.9 2.13-.18 3.03.36.53 1.07.7 1.6.7s1.07-.17 1.42-.53l9.78-9.1c.89-.7.89-2.13.18-3.02-.71-1.07-2.14-1.07-3.02-.18z" fill="var(--success_1)"/><path d="M81.24 72.94c-1.24 0-2.13.89-2.13 2.14v11.95c0 1.25.89 2.14 2.13 2.14 1.25 0 2.14-.9 2.14-2.14V75.08a2.16 2.16 0 00-2.14-2.14z" fill="var(--primary_1)"/><path d="M95.82 71.33a2.04 2.04 0 00-3.02-.17 2.06 2.06 0 00-.18 3.03l4.98 5.88c.36.54 1.07.72 1.6.72s1.07-.18 1.42-.54a2.06 2.06 0 00.18-3.03l-4.98-5.89z" fill="var(--warning_1)"/><path d="M89.78 24.25c.35.36.89.54 1.24.54.71 0 1.25-.36 1.6-.71l8.18-10.17c.71-.9.53-2.32-.36-3.03a2.21 2.21 0 00-3.02.36l-8 10.16c-.7.9-.53 2.14.36 2.85z" fill="var(--success_1)"/><path d="M65.24 25.68c.36.36.9.71 1.6.71.54 0 1.07-.18 1.43-.53.89-.9.89-2.14 0-3.03l-7.65-7.67c-.89-.9-2.13-.9-3.02 0-.89.89-.89 2.14 0 3.03l7.64 7.49z" fill="var(--warning_1)"/><path d="M80.36 19.97c1.24-.17 2.13-1.07 1.95-2.31l-1.24-14.8C80.89 1.6 80 .7 78.76.88c-1.25.18-2.14 1.07-1.96 2.32l1.24 14.8a2.31 2.31 0 002.32 1.96c-.18 0 0 0 0 0z" fill="var(--primary_1)"/></svg>