<?xml version="1.0" encoding="utf-8"?><svg viewBox="0 0 160 107" fill="none" xmlns="http://www.w3.org/2000/svg" width="160" height="107"><path d="M75.912 54.748c-.356-1.961-2.134-3.21-3.912-3.21-.355 0-.71 0-1.066.179l-2.667.713 3.022-1.783c1.778-1.07 2.49-3.567 1.245-5.35l-2.667-4.459c-.533-.891-1.422-1.605-2.489-1.783.534-.535 1.067-1.248 1.245-1.962.355-1.248.177-2.675-.712-3.923l-2.133-3.21c-.889-1.07-2.133-1.783-3.378-1.783-.355 0-.71 0-1.244.178l-4.267 1.248c-5.689 1.605-9.066 7.669-7.466 13.375l1.422 4.815-10.133 6.242-2.667-2.853c-1.956-2.319-4.978-3.567-8-3.567-2.667 0-5.156 1.07-7.111 2.675L4.089 67.41C-.355 71.333-.71 78.288 3.2 82.568l10.845 11.949c1.955 2.318 4.978 3.566 8 3.566 2.666 0 5.155-.891 7.111-2.675l19.022-17.12a11.065 11.065 0 003.556-7.49c.177-2.496-.534-4.993-2.134-6.955l5.156-3.21c1.778 3.389 5.511 5.529 9.422 5.529.89 0 1.956-.179 2.845-.357l6.755-1.605c2.133-.535 3.378-2.675 3.022-4.815l-.888-4.637zm-46.223 10.7l2.667 4.459c.711 1.248 1.956 1.961 3.378 1.961.355 0 .71 0 1.244-.178L22.223 85.065l-8.356-9.452L30.223 60.99c-.356.535-.711 1.07-.711 1.605-.534.892-.356 1.962.177 2.853zm23.645-8.916l-6.578 4.101-3.733 2.319-3.378 2.14-3.734 2.318-2.31-3.923 3.022-1.784L40 59.563l3.734-2.318 8.355-5.172 3.734-2.318 3.555-2.14 3.733-2.318 3.2-1.962 2.312 3.923-4.267 2.675-3.733 2.319-3.556 2.14-3.733 2.14zm.177-14.802c-.888-3.388 1.067-6.955 4.445-8.025l4.267-1.248 2.31 3.21-4.088 1.605c-1.956.535-3.2 2.675-2.667 4.815l.356 1.426-3.556 2.14-1.067-3.923zm-6.044 28.89c-.178 1.783-.889 3.388-2.133 4.458L26.31 92.198c-1.244 1.07-2.666 1.605-4.266 1.605-1.778 0-3.556-.713-4.8-2.14L6.4 79.715c-2.31-2.675-2.133-6.777.534-9.095L25.956 53.5c1.244-1.07 2.667-1.605 4.267-1.605 1.777 0 3.555.713 4.8 2.14l2.133 2.318-3.378 2.14-.71-.713c-.712-.892-1.779-1.248-2.845-1.248-.89 0-1.956.356-2.667 1.07l-16.889 14.98c-1.6 1.426-1.778 3.923-.355 5.528l8.888 9.987c.712.891 1.778 1.248 2.845 1.248.889 0 1.955-.357 2.666-1.07l16.89-15.337c1.422-1.248 1.6-3.21.71-4.815l3.556-2.14c1.067 1.427 1.6 3.032 1.6 4.637zm18.667-8.917c-.711.179-1.245.357-1.778.357-2.489 0-4.622-1.427-5.689-3.567l3.733-2.318c.712.892 1.778 1.427 3.023 1.427.355 0 .71 0 1.066-.179L72 55.818l.89 4.28-6.756 1.605zM157.157 78.467l-15.645-19.974c-1.955-2.675-5.155-4.101-8.355-4.101-2.489 0-4.8.891-6.756 2.318l-3.022 2.319-12.267-10.7 1.778-6.242c1.6-5.707-1.778-11.592-7.467-13.197l-4.978-1.783c-.533-.178-.888-.178-1.422-.178-1.777 0-3.377 1.248-4.089 2.853l-1.422 4.101c-.355 1.07-.355 2.319.178 3.389.533 1.07 1.6 1.783 2.667 2.14l2.666.713c-.71.178-1.422.714-1.955 1.248l-3.378 3.924c-1.422 1.605-1.245 4.102.356 5.528l1.6 1.427c-1.245-.357-2.49-.714-3.734-.892-.355 0-.711-.178-1.067-.178-2.31 0-4.266 1.783-4.622 4.101l-.355 3.389c-.356 2.318 1.422 4.637 3.733 5.172 1.778.356 3.733.713 5.511 1.248.889.178 1.956.356 2.845.356 3.2 0 6.222-1.426 8.355-3.923l6.578 5.707c-3.911 3.745-4.445 9.987-1.067 14.445l15.645 19.973c1.955 2.675 5.155 4.102 8.355 4.102 2.489 0 4.8-.892 6.756-2.319l12.622-10.165c4.8-3.388 5.689-10.165 1.956-14.801zM101.69 51.895l-3.556-3.032-.888-.713 1.6-1.783 1.422-1.605 2.844 2.496 3.378 2.854 3.555 3.032 10.134 8.916 3.2 2.853 3.022 2.675 2.667 2.319-3.023 3.388-3.377-2.853-3.023-2.675-3.2-2.853-8-6.956-3.555-3.031-3.2-3.032zm24.355 25.68c1.067 0 2.312-.535 3.023-1.427l3.377-3.923c1.067-1.248 1.245-3.031.534-4.458l13.511 17.12-9.956 7.847-12.266-15.515c.533.356 1.066.356 1.777.356zM97.601 35.488l-.533 2.14.533-2.14 1.422-4.101 5.156 1.783h.178c3.377.892 5.511 4.459 4.444 8.025l-1.244 4.28-3.378-2.853.355-1.07c.534-2.14-.711-4.28-2.666-4.815l-4.267-1.248zm.533 26.037c-.533 0-1.244 0-1.777-.178-1.956-.535-3.912-.892-5.69-1.427-.177 0-.355-.178-.355-.357l.356-3.388c0-.178.177-.356.355-.356h.178c1.245.178 2.489.534 3.556.891l1.422.357c.355.178.71.178 1.067.178 1.066 0 1.955-.356 2.666-1.07l3.378 2.854c-1.245 1.604-3.022 2.496-5.156 2.496zm54.756 28.712l-12.622 10.165c-1.067.891-2.489 1.426-4.089 1.426-1.956 0-3.911-.891-4.978-2.496l-15.644-19.973c-2.134-2.675-1.778-6.599.888-8.917l3.023 2.675a4.022 4.022 0 000 4.815l14.044 17.833c.711.892 1.778 1.427 3.022 1.427.889 0 1.778-.357 2.489-.892l10.489-8.382c1.6-1.248 1.956-3.745.533-5.35l-14.044-17.833c-.711-.892-1.778-1.426-3.022-1.426-.889 0-1.778.356-2.489.891l-.711.535-3.022-2.675 2.311-1.962c1.066-.891 2.489-1.426 4.089-1.426 1.955 0 3.911.892 4.977 2.497l15.645 19.973c2.311 2.853 1.778 6.955-.889 9.095z" fill="#0288D1"/><path d="M66.846 69.728l-9.778 9.095c-.89.714-.89 2.14-.178 3.032.355.535 1.067.713 1.6.713.533 0 1.067-.178 1.422-.535l9.778-9.095c.889-.713.889-2.14.178-3.031-.711-1.07-2.134-1.07-3.022-.179z" fill="#BFD4C3"/><path d="M81.245 72.938c-1.245 0-2.134.892-2.134 2.14v11.949c0 1.248.89 2.14 2.134 2.14 1.244 0 2.133-.892 2.133-2.14V75.078c0-1.248-1.067-2.14-2.133-2.14z" fill="#B3DBF2"/><path d="M95.823 71.333c-.71-.891-2.133-1.07-3.022-.178-.889.713-1.066 2.14-.177 3.032l4.977 5.885c.356.535 1.067.713 1.6.713.534 0 1.067-.178 1.422-.535.889-.713 1.067-2.14.178-3.032l-4.978-5.885z" fill="#FFCEA8"/><path d="M89.779 24.253c.355.357.889.535 1.244.535.711 0 1.245-.356 1.6-.713l8.178-10.165c.711-.892.533-2.318-.356-3.032-.888-.713-2.31-.535-3.022.357l-8 10.165c-.71.892-.533 2.14.356 2.853z" fill="#BFD4C3"/><path d="M65.245 25.68c.355.357.889.713 1.6.713.533 0 1.066-.178 1.422-.535.889-.891.889-2.14 0-3.031l-7.644-7.669c-.89-.891-2.134-.891-3.023 0-.889.892-.889 2.14 0 3.032l7.645 7.49z" fill="#FFCEA8"/><path d="M80.356 19.973c1.244-.178 2.133-1.07 1.955-2.318L81.067 2.853C80.889 1.605 80 .713 78.756.892c-1.245.178-2.134 1.07-1.956 2.318l1.244 14.802c.178 1.07 1.067 1.961 2.312 1.961-.178 0 0 0 0 0z" fill="#B3DBF2"/></svg>