<?xml version="1.0" encoding="utf-8"?><svg viewBox="0 0 156 154" fill="none" xmlns="http://www.w3.org/2000/svg" width="156" height="154"><path d="M25.07 39.24c4.62-2.76 92.06-19.64 92.84-14.7.78 4.94 22.48 87.56 14.7 92.84-7.76 5.28-86.23 21.25-92.84 14.7-6.6-6.54-19.33-90.08-14.7-92.84z" stroke="var(--primary_0)" stroke-width="2" stroke-dasharray="4 2"/><circle cx="24" cy="36" r="23" fill="var(--primary_2)" stroke="var(--primary_0)" stroke-width="2" class="special"/><circle cx="23.5" cy="31.5" r="5" fill="var(--background_0)" stroke="var(--primary_0)" class="special"/><path d="M12.15 55.28l.1-.25.5-1.47v-.04c.4-1.19.93-2.76 1.56-4.43a53.47 53.47 0 012.12-5.02c.79-1.58 1.6-2.9 2.42-3.72a5.42 5.42 0 014.82-1.73 6.58 6.58 0 013.48 1.73c.14.15.39.49.72 1.02.33.51.72 1.17 1.16 1.93.86 1.52 1.87 3.4 2.84 5.25a437.12 437.12 0 013.5 6.82l-2.59 2.1-5.33 1.03h-6.9l-4.37-1.03-4.03-2.19z" fill="var(--background_0)" stroke="var(--primary_0)" class="special"/><circle cx="120" cy="24" r="23" fill="var(--primary_2)" stroke="var(--primary_0)" stroke-width="2" class="special"/><circle cx="119.5" cy="19.5" r="5" fill="var(--background_0)" stroke="var(--primary_0)" class="special"/><path d="M108.15 43.28l.1-.25.5-1.47v-.04c.4-1.2.93-2.76 1.56-4.43a53.42 53.42 0 012.12-5.03 14.7 14.7 0 012.42-3.7 5.42 5.42 0 014.82-1.74 6.58 6.58 0 013.48 1.73c.14.15.39.48.72 1.02.33.51.72 1.17 1.16 1.93.86 1.52 1.87 3.4 2.84 5.25a440.76 440.76 0 013.38 6.57l.12.25-2.59 2.1-5.33 1.03h-6.9l-4.37-1.03-4.03-2.19z" fill="var(--background_0)" stroke="var(--primary_0)" class="special"/><circle cx="132" cy="118" r="23" fill="var(--primary_2)" stroke="var(--primary_0)" stroke-width="2" class="special"/><circle cx="131.5" cy="113.5" r="5" fill="var(--background_0)" stroke="var(--primary_0)" class="special"/><path d="M120.15 137.28l.1-.25.5-1.47v-.03c.4-1.2.93-2.77 1.56-4.44a53.32 53.32 0 012.12-5.02c.79-1.58 1.6-2.9 2.42-3.72a5.42 5.42 0 014.82-1.73 6.57 6.57 0 013.48 1.73c.14.15.39.48.72 1.02.33.51.72 1.17 1.16 1.93.86 1.52 1.87 3.4 2.84 5.25a446.44 446.44 0 013.38 6.57l.12.25-2.59 2.1-5.33 1.03h-6.9l-4.37-1.03-4.03-2.19z" fill="var(--background_0)" stroke="var(--primary_0)" class="special"/><circle cx="38" cy="130" r="23" fill="var(--primary_2)" stroke="var(--primary_0)" stroke-width="2" class="special"/><circle cx="37.5" cy="125.5" r="5" fill="var(--background_0)" stroke="var(--primary_0)" class="special"/><path d="M26.15 149.28l.1-.25.5-1.47v-.03a138 138 0 011.56-4.44 53.37 53.37 0 012.12-5.02c.79-1.58 1.6-2.9 2.42-3.72a5.42 5.42 0 014.82-1.73 6.58 6.58 0 013.48 1.73c.14.15.39.49.72 1.02.33.51.72 1.17 1.16 1.93.86 1.52 1.87 3.4 2.84 5.25a441.92 441.92 0 013.5 6.82l-2.59 2.1-5.33 1.03h-6.9l-4.37-1.03-4.03-2.19z" fill="var(--background_0)" stroke="var(--primary_0)" class="special"/></svg>