<?xml version="1.0" encoding="utf-8"?><svg viewBox="0 0 156 154" fill="none" xmlns="http://www.w3.org/2000/svg" width="156" height="154"><path d="M25.07 39.242c4.625-2.758 92.06-19.644 92.842-14.705.782 4.938 22.474 87.562 14.705 92.843-7.77 5.28-86.237 21.252-92.843 14.704-6.605-6.547-19.33-90.085-14.705-92.842z" fill="#fff" stroke="#0288D1" stroke-width="2" stroke-dasharray="4 2"/><circle cx="24" cy="36.001" r="23" fill="#E5F3FA" stroke="#0288D1" stroke-width="2"/><circle cx="23.5" cy="31.5" r="5" fill="#fff" stroke="#0288D1"/><path d="M12.15 55.285l.093-.253c.132-.368.301-.874.501-1.471l.013-.036c.4-1.195.927-2.77 1.549-4.437.628-1.686 1.35-3.459 2.128-5.023.782-1.573 1.604-2.895 2.42-3.71 1.631-1.633 3.345-1.962 4.82-1.735 1.504.231 2.786 1.047 3.472 1.734.144.144.39.481.728 1.012.329.516.72 1.178 1.152 1.937a187.177 187.177 0 012.844 5.243 437.12 437.12 0 013.503 6.82l-2.591 2.112-5.33 1.023h-6.894l-4.378-1.027-4.03-2.19z" fill="#fff" stroke="#0288D1"/><circle cx="120" cy="24" r="23" fill="#E5F3FA" stroke="#0288D1" stroke-width="2"/><circle cx="119.5" cy="19.5" r="5" fill="#fff" stroke="#0288D1"/><path d="M108.15 43.284l.093-.253c.132-.368.301-.873.501-1.47l.013-.037c.4-1.195.927-2.769 1.549-4.437.628-1.686 1.35-3.458 2.128-5.022.782-1.573 1.603-2.895 2.42-3.711 1.631-1.632 3.345-1.962 4.82-1.735 1.504.232 2.786 1.048 3.472 1.735.144.143.39.48.728 1.011.329.517.721 1.179 1.152 1.937a187.772 187.772 0 012.844 5.243 440.76 440.76 0 013.38 6.575l.123.246-2.591 2.111-5.33 1.023h-6.894l-4.378-1.027-4.03-2.189z" fill="#fff" stroke="#0288D1"/><circle cx="132" cy="118" r="23" fill="#E5F3FA" stroke="#0288D1" stroke-width="2"/><circle cx="131.5" cy="113.5" r="5" fill="#fff" stroke="#0288D1"/><path d="M120.15 137.284l.093-.252c.132-.368.301-.874.501-1.471l.013-.036c.4-1.195.927-2.769 1.549-4.437.628-1.686 1.35-3.459 2.128-5.022.782-1.574 1.603-2.896 2.42-3.712 1.631-1.632 3.345-1.961 4.82-1.734 1.504.231 2.786 1.047 3.472 1.734.144.144.39.481.728 1.012.329.516.721 1.178 1.152 1.937a187.489 187.489 0 012.844 5.243 446.439 446.439 0 013.38 6.575l.123.245-2.591 2.112-5.33 1.022h-6.894l-4.378-1.026-4.03-2.19z" fill="#fff" stroke="#0288D1"/><circle cx="38" cy="130" r="23" fill="#E5F3FA" stroke="#0288D1" stroke-width="2"/><circle cx="37.5" cy="125.5" r="5" fill="#fff" stroke="#0288D1"/><path d="M26.15 149.284l.093-.252c.132-.368.301-.874.501-1.471l.013-.036c.4-1.195.927-2.769 1.549-4.437.628-1.686 1.35-3.459 2.128-5.022.782-1.574 1.604-2.896 2.42-3.712 1.631-1.632 3.345-1.961 4.82-1.734 1.504.231 2.786 1.047 3.472 1.734.144.144.39.481.728 1.012.329.516.72 1.178 1.152 1.937a186.767 186.767 0 012.844 5.243 441.916 441.916 0 013.503 6.82l-2.591 2.112-5.33 1.022h-6.894l-4.378-1.026-4.03-2.19z" fill="#fff" stroke="#0288D1"/></svg>