<?xml version="1.0" encoding="utf-8"?><svg viewBox="0 0 97 132" fill="none" xmlns="http://www.w3.org/2000/svg" width="97" height="132"><path d="M31.1.23l.74.32c2.01.81 3.52 2.08 4.34 4.17 2.77 6.98 4.56 14.23 5.95 21.59l.48 2.54c1.02-5.61 2.02-11.41 3.14-17.18.62-3.26 3.68-5.14 6.93-4.47a5.82 5.82 0 014.42 6.88c-1.3 6.62-1.94 13.3-2.07 20.08.18-.48.36-.96.52-1.45 1.28-3.7 2.8-7.28 5.1-10.48 2.11-2.94 5.6-3.6 8.36-1.62 2.69 1.93 3.15 5.47 1.12 8.37-2.77 3.97-3.98 8.54-4.96 13.19-1.02 4.85-.07 9.53 1.05 14.26 2.95 12.5 3.5 25.17 2.4 37.95a108.9 108.9 0 01-8.64 34.08c-.37.84-1.17 1.5-1.76 2.25h-.73c-1.82-.94-2.07-1.67-1.26-3.65 3.15-7.63 5.79-15.41 7.15-23.58 1.65-9.94 2.2-19.92 1.4-29.97a113.57 113.57 0 00-3.19-19.16c-2.01-7.87-.46-15.4 2.55-22.7.71-1.76 1.76-3.39 2.73-5.03.66-1.11.64-2.11-.23-2.75-.94-.7-1.9-.48-2.72.72a39.97 39.97 0 00-5.91 14.36c-.52 2.48-.71 5.04-.95 7.57-.18 1.91-1.3 3.17-3.04 3.18-1.75 0-2.9-1.2-3.02-3.16-.69-11.02.08-21.95 2.1-32.8.16-.87.16-1.67-.6-2.27-1.1-.87-2.62-.26-2.88 1.24-1 5.88-2.05 11.75-2.86 17.66-.5 3.58-.58 7.21-.82 10.83-.12 1.8-1.14 2.97-2.74 3.04-1.75.07-2.88-.9-3.06-2.78-.83-9.22-2.38-18.3-4.98-27.2-.82-2.81-1.87-5.57-2.87-8.34-.37-1-1.65-1.8-2.55-1.64-1.07.18-1.66.92-1.84 1.94-.07.44.02.95.16 1.39a165.26 165.26 0 016.83 31.8c.06.5.08 1.02.1 1.54.03 1.56-.84 2.74-2.2 2.99-1.46.27-2.6-.52-3.29-1.96-1.32-2.75-2.52-5.6-4.21-8.12-3.76-5.56-8.85-9.68-14.87-12.67a3.57 3.57 0 00-1.23-.39c-.93-.09-1.9-.12-2.22 1.07-.31 1.12-.06 1.98 1 2.64a48.08 48.08 0 019.47 7.67c4.3 4.52 7.74 9.62 8.83 15.83.43 2.45 1.42 3.32 3.67 3.9 3.66.96 6.97 2.77 9.82 5.31.9.82 1 2.06.31 2.88-.7.84-1.93.92-2.91.19l-.1-.08c-4.55-3.82-9.93-5.61-15.75-5.9a76.6 76.6 0 00-10.98.46c-1.49.15-2.95.92-4.35 1.58a2.61 2.61 0 00-1.4 3.4c.51 1.38 1.84 2.07 3.39 1.69 7.34-1.82 14.02-.4 20.04 4.1 3.03 2.27 4.6 5.4 4.75 9.12.8 18.32-2.61 35.85-10.34 52.52-.61 1.33-1 2.9-2.6 3.53h-.72c-1.72-1.05-2-1.79-1.22-3.37a103.3 103.3 0 008.57-24.84c1.95-9.22 2.89-18.54 2.26-27.96a7.7 7.7 0 00-3.24-5.87C20.47 65 15 63.83 8.93 65.34a6.76 6.76 0 01-8.27-4.5c-.07-.22-.19-.42-.28-.63v-2.86c.93-2.94 3.1-4.57 5.87-5.64 2.91-1.13 5.96-1.44 9.04-1.52 2.43-.07 4.85-.01 7.33-.01a19.18 19.18 0 00-2.2-6.96c-3.34-6.59-8.5-11.5-14.7-15.35-3.33-2.06-3.4-6.03-2.12-8.37 1.41-2.57 5.07-3.6 8-2.2a43.46 43.46 0 0114.56 11.06c1.28 1.5 2.43 3.12 3.8 4.89-.09-.63-.13-1.01-.2-1.4a162.4 162.4 0 00-5.65-23.38A6.31 6.31 0 0126.9 1.1c.57-.34 1.2-.59 1.8-.88h2.4z" fill="var(--primary_1)"/><path d="M84.34 23.6a30.78 30.78 0 01-6.33 18.64c-.26.35-.54.7-.88.97-.77.64-1.63.65-2.42.06-.83-.61-1.07-1.46-.63-2.42.15-.32.38-.6.6-.9 5.71-7.72 7.07-16.14 4.04-25.26a3.5 3.5 0 01-.2-1.61c.15-.92.84-1.45 1.76-1.52 1.04-.07 1.75.46 2.1 1.43a30.55 30.55 0 011.87 9.06l.09 1.55z" fill="var(--warning_1)"/><path d="M96.62 25.63a23.74 23.74 0 01-4.08 13.47c-.87 1.29-1.98 1.63-3.02.95-1.03-.67-1.17-1.9-.36-3.14 3.55-5.39 4.23-11.2 2.6-17.35-.07-.23-.16-.45-.21-.68-.27-1.25.26-2.18 1.42-2.5 1.06-.28 2.12.2 2.4 1.4 0 0 1.28 5.92 1.25 7.85z" fill="var(--success_1)"/></svg>