<?xml version="1.0" encoding="utf-8"?><svg viewBox="0 0 97 132" fill="none" xmlns="http://www.w3.org/2000/svg" width="97" height="132"><path d="M31.096.23c.25.106.496.215.749.318 2.007.813 3.514 2.084 4.34 4.17 2.768 6.985 4.557 14.23 5.944 21.587l.48 2.542c1.02-5.611 2.02-11.41 3.137-17.182.628-3.252 3.681-5.137 6.937-4.47 3.064.627 5.044 3.708 4.42 6.888-1.295 6.613-1.945 13.295-2.07 20.077.174-.483.353-.964.52-1.448 1.274-3.702 2.806-7.28 5.1-10.484 2.107-2.937 5.591-3.603 8.353-1.622 2.694 1.932 3.155 5.472 1.127 8.372-2.776 3.972-3.982 8.54-4.959 13.19-1.024 4.855-.075 9.535 1.044 14.26 2.951 12.503 3.496 25.173 2.4 37.955-1.013 11.843-3.94 23.178-8.642 34.076-.365.843-1.167 1.502-1.76 2.246h-.721c-1.821-.936-2.078-1.666-1.26-3.644 3.148-7.627 5.784-15.413 7.142-23.58 1.648-9.937 2.204-19.917 1.4-29.97a113.568 113.568 0 00-3.186-19.159c-2.014-7.87-.462-15.396 2.545-22.71.717-1.754 1.765-3.378 2.733-5.018.665-1.117.64-2.114-.228-2.753-.946-.696-1.905-.484-2.72.717-2.967 4.377-4.835 9.234-5.915 14.367-.52 2.477-.71 5.034-.944 7.563-.18 1.915-1.298 3.17-3.038 3.177-1.75.003-2.909-1.198-3.027-3.156-.687-11.018.083-21.945 2.097-32.79.162-.878.168-1.675-.592-2.28-1.096-.867-2.62-.26-2.88 1.242-1.001 5.878-2.055 11.75-2.863 17.658-.49 3.577-.575 7.215-.82 10.826-.12 1.813-1.138 2.972-2.735 3.044-1.753.075-2.887-.899-3.06-2.783-.838-9.213-2.383-18.3-4.982-27.188-.825-2.82-1.872-5.578-2.873-8.343-.366-1.01-1.654-1.8-2.544-1.647-1.075.184-1.67.924-1.843 1.942-.075.442.015.951.158 1.387 3.387 10.36 5.531 20.988 6.828 31.794a16.1 16.1 0 01.098 1.549c.038 1.557-.836 2.74-2.188 2.988-1.47.273-2.612-.52-3.299-1.955-1.321-2.752-2.515-5.612-4.212-8.124-3.753-5.555-8.845-9.684-14.867-12.664-.382-.19-.81-.358-1.232-.394-.932-.09-1.891-.125-2.22 1.07-.308 1.124-.061 1.98 1.006 2.64a48.077 48.077 0 019.461 7.668c4.314 4.52 7.75 9.617 8.839 15.828.43 2.455 1.42 3.32 3.668 3.909 3.655.958 6.965 2.768 9.814 5.307.91.814 1.012 2.053.314 2.88-.707.834-1.929.914-2.913.185-.032-.024-.061-.054-.09-.079-4.552-3.82-9.933-5.612-15.76-5.894-3.647-.176-7.334.104-10.977.455-1.49.145-2.953.921-4.346 1.585-1.42.676-1.911 2.079-1.412 3.398.519 1.372 1.846 2.067 3.397 1.683 7.343-1.817 14.018-.394 20.041 4.11 3.034 2.269 4.592 5.402 4.754 9.11.796 18.327-2.618 35.852-10.34 52.522-.617 1.333-1.001 2.893-2.609 3.527h-.72c-1.72-1.043-2.003-1.784-1.214-3.366 3.94-7.91 6.747-16.207 8.571-24.838 1.945-9.221 2.884-18.54 2.257-27.963-.157-2.367-1.235-4.401-3.237-5.87-5-3.665-10.48-4.84-16.538-3.33-3.68.918-7.025-.946-8.274-4.504-.074-.214-.188-.416-.283-.62v-2.868c.936-2.934 3.11-4.564 5.869-5.634 2.917-1.13 5.966-1.442 9.047-1.522 2.422-.066 4.845-.015 7.332-.015-.22-2.46-1.082-4.757-2.198-6.954-3.345-6.59-8.507-11.508-14.713-15.348-3.328-2.065-3.394-6.031-2.111-8.37 1.41-2.577 5.07-3.602 7.994-2.21 5.627 2.677 10.515 6.335 14.56 11.071 1.28 1.5 2.43 3.112 3.801 4.881-.086-.628-.126-1.009-.193-1.388-1.36-7.923-3.136-15.743-5.654-23.39-.921-2.804.265-5.822 2.778-7.355.568-.346 1.201-.587 1.806-.878.8-.004 1.602-.004 2.4-.004z" fill="#B3DBF2"/><path d="M84.34 23.602c-.094 6.89-2.151 13.121-6.328 18.636-.263.349-.543.7-.877.974-.776.641-1.631.644-2.423.06-.83-.617-1.073-1.463-.632-2.425.148-.32.383-.604.596-.889 5.718-7.73 7.07-16.148 4.046-25.27-.168-.509-.295-1.1-.207-1.61.157-.918.84-1.45 1.768-1.514 1.038-.073 1.748.455 2.1 1.423a30.545 30.545 0 011.866 9.067c.028.515.058 1.03.09 1.548z" fill="#FFCEA8"/><path d="M96.62 25.628c-.03 4.888-1.323 9.401-4.082 13.477-.87 1.285-1.978 1.622-3.017.942-1.028-.669-1.172-1.898-.357-3.136 3.55-5.389 4.223-11.196 2.587-17.346-.063-.232-.152-.454-.203-.685-.269-1.25.263-2.18 1.418-2.492 1.066-.291 2.122.199 2.402 1.385 0 0 1.278 5.93 1.252 7.855z" fill="#BFD4C3"/></svg>