<svg width="28" height="26" viewBox="0 0 28 26" fill="none" xmlns="http://www.w3.org/2000/svg">
<path d="M17.0916 8.93677C17.7554 9.02248 18.2136 9.37802 18.4663 10.0034C18.7189 10.6288 18.6363 11.2028 18.2184 11.7256L19.7856 15.6045C19.8539 15.7735 19.8579 15.9783 19.7979 16.2189C19.7378 16.4594 19.5725 16.6343 19.3021 16.7436C19.1161 16.8187 18.9232 16.8278 18.7233 16.771L15.8718 15.9177C14.3943 15.4726 12.9373 15.5403 11.5007 16.1207L10.7908 16.4075C10.8324 16.7052 10.9079 16.9893 11.0171 17.2598C11.3108 17.9865 11.7934 18.5485 12.465 18.9456C12.7602 19.1409 12.8898 19.413 12.8538 19.7617C12.8246 20.1274 12.6494 20.3752 12.3283 20.5049L10.4268 21.2731C10.0888 21.4097 9.79411 21.3617 9.54281 21.129C8.75834 20.4039 8.16807 19.5512 7.772 18.5709C7.66274 18.3005 7.57038 18.0232 7.49493 17.7391L6.63294 18.0874C6.17659 18.2718 5.72639 18.2767 5.28234 18.1022C4.84836 17.904 4.53918 17.5767 4.3548 17.1204L3.37146 14.6865C3.18708 14.2302 3.18555 13.7884 3.36687 13.3613C3.55825 12.9104 3.88212 12.5928 4.33847 12.4084L9.20618 10.4417C10.6428 9.86125 11.738 8.89778 12.4916 7.55129L13.95 4.95664C14.0543 4.77687 14.1994 4.64942 14.3853 4.5743C14.6558 4.46504 14.8962 4.47606 15.1065 4.60735C15.3168 4.73864 15.4561 4.88879 15.5244 5.05781L17.0916 8.93677ZM17.4767 14.5615L14.5881 7.412L14.0178 8.4092C13.0556 10.1152 11.6702 11.3336 9.86175 12.0643L10.8451 14.4981C12.6536 13.7674 14.4965 13.6815 16.3737 14.2403L17.4767 14.5615Z" fill="#0288D1"/>
<line x1="23" y1="11.8482" x2="28" y2="11.8482" stroke="#0288D1"/>
<line x1="22.7428" y1="7.91946" x2="27.7428" y2="4.91946" stroke="#0288D1"/>
<line x1="19.584" y1="4.07086" x2="21.584" y2="1.07086" stroke="#0288D1"/>
</svg>
