<?xml version="1.0" encoding="utf-8"?><svg viewBox="0 0 125 106" fill="none" xmlns="http://www.w3.org/2000/svg" width="125" height="106"><g clip-path="url(#hclip0)"><circle r="5" transform="matrix(.93192 -.36272 .36256 .93194 116.36 39.806)" fill="#FFCEA8" stroke="#FFCEA8"/><circle r="2.5" transform="matrix(.93192 -.36272 .36256 .93194 81.315 29.225)" fill="#BFD4C3" stroke="#BFD4C3"/><circle r="5" transform="matrix(.93192 -.36272 .36256 .93194 94.956 10.502)" fill="#B3DBF2" stroke="#B3DBF2"/><path d="M30.544 101.12c.08 1.446 1.045 2.652 2.331 3.134a3.22 3.22 0 001.206.241c.964 0 1.928-.402 2.652-1.205l7.072-7.796 13.502 9.403a4.04 4.04 0 002.17.643c1.768 0 3.295-1.286 3.696-2.974l12.779-60.355c.16-.724-.08-1.527-.724-2.01-.562-.482-1.366-.562-2.09-.32L2.256 70.9c-1.446.644-2.33 2.09-2.25 3.698.08 1.607 1.125 2.893 2.652 3.375l27.084 8.197.803 14.949zm4.019-1.286L34 88.663l6.59 4.58-6.027 6.59zm24.833 1.527L34.804 84.403l35.683-35.602-11.09 52.56zm6.831-54.007l-35.12 35.04-26.682-8.037 61.802-27.003z" fill="#0288D1"/></g><defs><clipPath id="hclip0"><path fill="#fff" d="M0 0h124.385v105.54H0z"/></clipPath></defs></svg>