<?xml version="1.0" encoding="utf-8"?><svg viewBox="0 0 125 106" fill="none" xmlns="http://www.w3.org/2000/svg" width="125" height="106"><g clip-path="url(#hclip0)"><circle r="5" transform="matrix(.93192 -.36272 .36256 .93194 116.36 39.8)" fill="var(--warning_1)" stroke="var(--warning_1)"/><circle r="2.5" transform="matrix(.93192 -.36272 .36256 .93194 81.32 29.22)" fill="var(--success_1)" stroke="var(--success_1)"/><circle r="5" transform="matrix(.93192 -.36272 .36256 .93194 94.96 10.5)" fill="var(--primary_1)" stroke="var(--primary_1)"/><path d="M30.54 101.12a3.58 3.58 0 002.34 3.13c.4.17.8.25 1.2.25.97 0 1.93-.4 2.65-1.21l7.08-7.8 13.5 9.4c.64.4 1.36.65 2.17.65 1.76 0 3.3-1.29 3.7-2.97L75.94 42.2a1.97 1.97 0 00-.72-2 2.15 2.15 0 00-2.1-.33L2.27 70.9a3.8 3.8 0 00.4 7.07l27.08 8.2.8 14.95zm4.02-1.29L34 88.66l6.59 4.58-6.03 6.6zm24.84 1.53L34.8 84.4 70.5 48.8l-11.1 52.56zm6.83-54L31.1 82.38 4.43 74.36l61.8-27z" fill="var(--primary_0)" class="special"/></g><defs><clipPath id="hclip0"><path fill="var(--background_0)" d="M0 0h124.39v105.54H0z"/></clipPath></defs></svg>