<?xml version="1.0" encoding="utf-8"?><svg viewBox="0 0 150 143" fill="none" xmlns="http://www.w3.org/2000/svg" width="150" height="143"><g clip-path="url(#iclip0)"><path d="M31.668 19.29c5.163-1.462 93.668 4.836 93.147 9.79-.52 4.956-.95 90.08-9.79 93.159-8.839 3.079-88.478-1.785-93.147-9.791-4.67-8.006 4.627-91.697 9.79-93.158z" fill="#fff" stroke="#0288D1" stroke-width="2"/><path d="M49.344 23.916c0 12.656-10.258 22.916-22.913 22.916-12.655 0-22.913-10.26-22.913-22.916S13.776 1 26.43 1c12.655 0 22.913 10.26 22.913 22.916z" fill="#E5F3FA" stroke="#0288D1" stroke-width="2"/><path d="M30.913 19.432a4.98 4.98 0 11-9.96 0 4.98 4.98 0 019.96 0zM14.626 43.132c.03-.077.06-.16.092-.25.132-.368.3-.871.5-1.466l.012-.037c.4-1.19.925-2.76 1.544-4.421.626-1.68 1.345-3.446 2.12-5.005.78-1.567 1.598-2.884 2.41-3.697 1.626-1.626 3.333-1.954 4.802-1.728 1.499.23 2.775 1.043 3.46 1.728.142.142.388.479.724 1.007.327.515.718 1.175 1.148 1.93.86 1.511 1.869 3.39 2.833 5.225a434.73 434.73 0 013.49 6.796l-2.58 2.103-5.31 1.019h-6.87l-4.361-1.023-4.014-2.181z" fill="#fff" stroke="#0288D1"/><path d="M148.983 23.916c0 12.656-10.259 22.916-22.913 22.916-12.655 0-22.914-10.26-22.914-22.916S113.415 1 126.07 1c12.654 0 22.913 10.26 22.913 22.916z" fill="#E5F3FA" stroke="#0288D1" stroke-width="2"/><path d="M130.552 19.432a4.98 4.98 0 11-9.961 0 4.98 4.98 0 019.961 0zM114.265 43.132c.029-.077.06-.16.092-.25.132-.368.3-.871.5-1.466l.012-.037c.399-1.19.924-2.76 1.544-4.421.626-1.68 1.344-3.446 2.12-5.005.78-1.567 1.598-2.884 2.411-3.697 1.625-1.626 3.331-1.954 4.801-1.728 1.498.23 2.775 1.043 3.459 1.728.143.142.388.479.725 1.007.327.515.718 1.175 1.148 1.93.86 1.511 1.869 3.39 2.833 5.225a439.68 439.68 0 012.558 4.953c.338.665.616 1.215.81 1.6l.122.243-2.58 2.103-5.31 1.019h-6.869l-4.362-1.023-4.014-2.181z" fill="#fff" stroke="#0288D1"/><path d="M143.004 115.595c0 12.656-10.258 22.916-22.913 22.916-12.654 0-22.913-10.26-22.913-22.916 0-12.657 10.259-22.916 22.913-22.916 12.655 0 22.913 10.259 22.913 22.916z" fill="#E0F4FC" stroke="#0288D1" stroke-width="2"/><path d="M124.574 111.111a4.98 4.98 0 11-9.961-.001 4.98 4.98 0 019.961.001zM108.286 134.811c.029-.077.06-.16.092-.251.132-.367.301-.87.5-1.466l.012-.036c.399-1.19.925-2.759 1.544-4.421.626-1.68 1.345-3.446 2.12-5.005.78-1.567 1.598-2.884 2.411-3.697 1.626-1.626 3.332-1.954 4.801-1.728 1.499.23 2.775 1.043 3.459 1.727.143.143.389.48.725 1.008.328.515.718 1.175 1.148 1.93.86 1.511 1.869 3.389 2.833 5.225a426.155 426.155 0 013.491 6.795l-2.581 2.104-5.31 1.018h-6.869l-4.362-1.023-4.014-2.18z" fill="#fff" stroke="#0288D1"/><ellipse rx="23.913" ry="23.916" transform="rotate(6.022 -1086.98 307.626) skewX(.043)" fill="#fff"/><path d="M49.985 111.439c.119.681.21 1.371.27 2.069l-.997.087a23.204 23.204 0 010 3.999l.997.086c-.06.699-.151 1.389-.27 2.069l-.985-.172a22.736 22.736 0 01-1.031 3.857l.94.342c-.24.657-.506 1.3-.8 1.928l-.906-.423a22.872 22.872 0 01-2 3.457l.819.575c-.4.57-.824 1.122-1.271 1.654l-.766-.643a23.091 23.091 0 01-2.825 2.826l.643.765c-.532.447-1.084.872-1.654 1.272l-.575-.819a22.853 22.853 0 01-3.457 2.001l.423.906c-.628.293-1.271.56-1.928.799l-.342-.939c-1.239.451-2.528.798-3.857 1.031l.173.985c-.68.119-1.37.209-2.07.27l-.085-.997a23.195 23.195 0 01-4 0l-.086.997a24.236 24.236 0 01-2.069-.27l.173-.985a22.774 22.774 0 01-3.857-1.031l-.343.939c-.656-.239-1.3-.506-1.927-.799l.423-.906a22.858 22.858 0 01-3.457-2.001l-.575.819c-.57-.4-1.122-.825-1.654-1.272l.643-.765a23.102 23.102 0 01-2.825-2.826l-.766.643a24.012 24.012 0 01-1.27-1.654l.818-.575a22.876 22.876 0 01-2-3.457l-.906.423a23.661 23.661 0 01-.8-1.928l.94-.342a22.732 22.732 0 01-1.03-3.857l-.986.172c-.119-.68-.21-1.37-.27-2.069l.997-.086a23.237 23.237 0 010-3.999l-.997-.087c.06-.698.151-1.388.27-2.069l.985.173a22.73 22.73 0 011.031-3.857l-.94-.342c.24-.657.506-1.3.8-1.928l.906.423a22.935 22.935 0 012-3.458l-.819-.574c.4-.57.824-1.122 1.271-1.654l.766.643a23.06 23.06 0 012.825-2.826l-.643-.766a24.028 24.028 0 011.654-1.271l.575.819a22.897 22.897 0 013.457-2l-.423-.907c.628-.293 1.27-.56 1.927-.8l.343.94a22.737 22.737 0 013.857-1.031l-.173-.985c.68-.12 1.37-.21 2.069-.27l.086.996a23.237 23.237 0 014 0l.086-.996c.699.06 1.389.15 2.069.27l-.173.985a22.74 22.74 0 013.857 1.031l.342-.94c.657.24 1.3.507 1.928.8l-.423.906a22.892 22.892 0 013.457 2l.575-.818c.57.4 1.122.824 1.654 1.272l-.643.765a23.048 23.048 0 012.825 2.826l.766-.643c.447.532.87 1.084 1.27 1.654l-.818.574a22.94 22.94 0 012 3.458l.906-.423c.294.628.56 1.271.8 1.928l-.94.342a22.736 22.736 0 011.03 3.857l.986-.173z" stroke="#0288D1" stroke-width="2" stroke-dasharray="4 2"/><path d="M17.83 114.83l12.238 1.287 4.113.432" stroke="#0288D1" stroke-width="2" stroke-linecap="round" stroke-linejoin="round"/><path d="M26.219 106.497c.504 5.183-.239 8.147-.78 13.29l-.382 3.639-.154 1.47" stroke="#0288D1" stroke-width="2" stroke-linecap="round" stroke-linejoin="round"/></g><defs><clipPath id="iclip0"><path fill="#fff" d="M0 0h149.983v142.019H0z"/></clipPath></defs></svg>