<?xml version="1.0" encoding="utf-8"?><svg viewBox="0 0 150 143" fill="none" xmlns="http://www.w3.org/2000/svg" width="150" height="143"><g clip-path="url(#iclip0)"><path d="M31.67 19.29c5.16-1.46 93.67 4.84 93.14 9.8-.52 4.95-.95 90.07-9.78 93.15-8.84 3.08-88.48-1.79-93.15-9.8-4.67-8 4.62-91.69 9.79-93.15z" stroke="var(--primary_0)" stroke-width="2"/><path d="M49.34 23.92a22.91 22.91 0 11-45.83 0 22.91 22.91 0 0145.83 0z" fill="var(--primary_2)" stroke="var(--primary_0)" class="special" stroke-width="2"/><path d="M30.91 19.43a4.98 4.98 0 11-9.96 0 4.98 4.98 0 019.96 0zM14.63 43.13l.09-.25.5-1.46.01-.04c.4-1.2.92-2.76 1.54-4.42a53.31 53.31 0 012.12-5c.78-1.57 1.6-2.9 2.41-3.7a5.4 5.4 0 014.8-1.73 6.55 6.55 0 013.47 1.73c.14.14.38.47.72 1 .33.52.72 1.18 1.15 1.93.86 1.51 1.87 3.4 2.83 5.23a434.73 434.73 0 013.5 6.8l-2.59 2.1-5.3 1.02H23l-4.36-1.03-4.01-2.18z" fill="var(--background_0)" stroke="var(--primary_0)" class="special"/><path d="M148.98 23.92a22.91 22.91 0 11-45.83 0 22.91 22.91 0 0145.83 0z" fill="var(--primary_2)" stroke="var(--primary_0)" stroke-width="2" class="special"/><path d="M130.55 19.43a4.98 4.98 0 11-9.96 0 4.98 4.98 0 019.96 0zM114.27 43.13l.09-.25.5-1.46v-.04c.4-1.2.93-2.76 1.55-4.42a53.07 53.07 0 012.12-5c.78-1.57 1.6-2.9 2.41-3.7a5.4 5.4 0 014.8-1.73 6.55 6.55 0 013.46 1.73c.15.14.4.47.73 1 .33.52.72 1.18 1.15 1.93.86 1.51 1.87 3.4 2.83 5.23.96 1.83 1.88 3.62 2.56 4.95l.8 1.6.13.24-2.58 2.1-5.31 1.03h-6.87l-4.36-1.03-4.02-2.18z" fill="var(--background_0)" stroke="var(--primary_0)" class="special"/><path d="M143 115.6a22.91 22.91 0 11-45.82 0 22.91 22.91 0 0145.82 0z" fill="var(--primary_2)" stroke="var(--primary_0)" class="special" stroke-width="2"/><path d="M124.57 111.11a4.98 4.98 0 11-9.96 0 4.98 4.98 0 019.96 0zM108.29 134.81l.09-.25.5-1.47.01-.03c.4-1.2.92-2.76 1.54-4.42a53.44 53.44 0 012.12-5 14.7 14.7 0 012.42-3.7 5.4 5.4 0 014.8-1.73 6.55 6.55 0 013.45 1.72c.15.15.4.48.73 1.01.33.52.72 1.18 1.15 1.93.86 1.51 1.87 3.4 2.83 5.23a426.16 426.16 0 013.5 6.8l-2.59 2.1-5.3 1.01h-6.88L112.3 137l-4.01-2.18z" fill="var(--background_0)" stroke="var(--primary_0)" class="special"/><path d="M50.05 118.23a23.9 23.9 0 01-26.27 21.28 23.94 23.94 0 01-21.29-26.3 23.9 23.9 0 0126.27-21.27 23.94 23.94 0 0121.3 26.3z" fill="var(--background_0)"/><ellipse cx="26.43" cy="115.59" rx="23.91" ry="23.92" stroke="var(--primary_0)" stroke-width="2" stroke-dasharray="4 2" class="special"/><path d="M17.83 114.83l12.24 1.29 4.11.43" stroke="var(--primary_0)" stroke-width="2" stroke-linecap="round" stroke-linejoin="round" class="special"/><path d="M26.22 106.5c.5 5.18-.24 8.14-.78 13.29l-.38 3.64-.16 1.47" stroke="var(--primary_0)" stroke-width="2" stroke-linecap="round" stroke-linejoin="round" class="special"/></g><defs><clipPath id="iclip0"><path fill="var(--background_0)" d="M0 0h149.98v142.02H0z"/></clipPath></defs></svg>