<?xml version="1.0" encoding="utf-8"?><svg viewBox="0 0 42 48" fill="none" xmlns="http://www.w3.org/2000/svg" width="42" height="48"><path d="M10.64 48c4.03 0 7.53-2.28 9.27-5.6l1.15.03h.57a13.86 13.86 0 00.9-.04l.57-.04c.15 0 .3-.02.47-.04 5.09-.47 8.44-2.24 8.62-4.5 0-.06.2-1.1.2-2.18 0-.87-.12-1.7-.18-2.05a13 13 0 00.18-2.03c0-.43-.03-1.12-.18-2.03.15-.9.18-1.6.18-2.04 0-.87-.12-1.7-.18-2.02.06-.34.18-1.15.18-2 0-.88-.13-1.71-.18-2.04.05-.32.18-1.15.18-2.03 0-.93-.14-1.81-.19-2.08-.05-3.1-5.76-4.78-11.14-4.78-5.4 0-11.13 1.68-11.14 4.8-.05.3-.18 1.16-.18 2.06 0 .88.12 1.7.18 2.03-.06.32-.18 1.15-.18 2.03 0 .87.12 1.69.18 2.02-.06.3-.17 1.07-.18 1.88a10.4 10.4 0 00-9.55 10.3C.2 43.35 4.88 48 10.64 48zm17.4-19.56a.81.81 0 00-1-.54c-1.73.5-3.8.77-5.98.77-3.5 0-6.74-.71-8.47-1.85-.46-.31-1-.79-1.05-1.34v-.03-.08l-.01-.04-.01-.06c-.03-.17-.12-.76-.16-1.42l.3.21a.81.81 0 001.11-.21.8.8 0 00-.21-1.11c-.37-.25-1-.75-1.02-1.3v-.02-.09l-.01-.06s-.13-.68-.16-1.46c2.04 1.54 5.95 2.35 9.69 2.35 3.75 0 7.66-.81 9.7-2.36-.04.79-.16 1.47-.16 1.47v.03l-.01.06v.06c-.02.42-.39.9-1.06 1.34-1.72 1.14-4.96 1.85-8.47 1.85-2.43 0-4.77-.34-6.57-.96a.8.8 0 00-1.03.5.8.8 0 00.5 1.01c1.97.68 4.49 1.05 7.1 1.05 3.87 0 7.37-.8 9.37-2.12l.33-.24c-.03.66-.12 1.24-.15 1.42l-.01.06-.02.12v.02c0 .42-.38.9-1.05 1.34l-.4.25a.8.8 0 00-.32 1.09.8.8 0 001.1.3 7.5 7.5 0 00.55-.33l.3-.22c-.02.37-.06.84-.16 1.44a.8.8 0 00-.02.18c0 .42-.36.88-1 1.32-.02 0-.03.02-.05.03-1.72 1.14-4.96 1.85-8.47 1.85-.44 0-.85-.02-1.26-.04a10.41 10.41 0 00-2.08-2.62c1.06.13 2.18.2 3.34.2 2.33 0 4.56-.28 6.43-.83a.8.8 0 00.54-1zm-4.65 12.28c-.13.01-.25.03-.4.03l-.55.04h-.07l-.25.01c-.17.02-.35.02-.55.03h-.99c.26-.79.41-1.6.47-2.45h.01c.42 0 .83-.01 1.24-.03a.8.8 0 00.77-.84.8.8 0 00-.84-.76c-.39.02-.79.02-1.18.02-.08-.85-.26-1.68-.53-2.46l.54.01c3.84 0 7.31-.78 9.32-2.09l.04-.03.03-.02.31-.22a12.49 12.49 0 01-.18 1.61v.01c-.01.57-.66 1.08-1.04 1.34-.02 0-.03.02-.04.03a12.5 12.5 0 01-4.67 1.54.8.8 0 10.25 1.58 13.91 13.91 0 005.36-1.83l.32-.23c-.03.8-.16 1.5-.16 1.5l-.01.1v.03c-.04 1.19-2.73 2.67-7.2 3.08zm-2.33-26.6c5.88 0 9.5 1.87 9.52 3.21v.03c-.03 1.35-3.65 3.2-9.52 3.2-5.85 0-9.46-1.84-9.52-3.18v-.06c.05-1.34 3.66-3.2 9.52-3.2zM10.64 28.9a8.8 8.8 0 018.83 8.75 8.8 8.8 0 01-8.83 8.75 8.8 8.8 0 01-8.83-8.75 8.8 8.8 0 018.83-8.75z" fill="var(--primary_0)"/><path d="M10.55 38.44h.1c.37 0 .74.19.97.5a1.19 1.19 0 01-.97 1.88c-.52 0-.99-.33-1.15-.82a.78.78 0 00-.75-.52.8.8 0 00-.66.33c-.15.21-.31.46-.24.68a3.44 3.44 0 001.7 1.78l.03.02v.89c0 .42.6.79 1.06.79.47 0 1.06-.37 1.06-.8v-.88l.04-.02a3.4 3.4 0 001.61-1.57c.35-.8.24-1.83-.29-2.75a2.74 2.74 0 00-2.34-1.25h-.08c-.47 0-.8-.16-1-.46a1.1 1.1 0 01-.1-1.09c.14-.34.46-.58.84-.66.08-.02.17-.02.25-.02.52 0 .99.33 1.15.82.1.31.41.53.75.53.26 0 .5-.12.66-.33.13-.18.32-.46.24-.68a3.47 3.47 0 00-1.7-1.77l-.03-.01v-.91c0-.42-.6-.79-1.06-.79-.47 0-1.06.37-1.06.79v.9l-.04.02a3.3 3.3 0 00-1.63 1.6c-.34.84-.2 1.81.4 2.74.42.66 1.26 1.06 2.24 1.06zM1.12 21.35h5.59a.8.8 0 00.8-.8.8.8 0 00-.8-.8H1.12a.8.8 0 00-.8.8c0 .44.36.8.8.8zM34.6 20.55c0 .44.37.8.82.8H41a.8.8 0 00.8-.8.8.8 0 00-.8-.8h-5.58a.8.8 0 00-.81.8zM6.4 6.02a.8.8 0 000 1.13l3.94 3.91a.81.81 0 001.14 0 .8.8 0 000-1.13L7.54 6.02a.81.81 0 00-1.15 0zM20.25.8v5.53c0 .44.37.8.81.8a.8.8 0 00.8-.8V.8a.8.8 0 00-.8-.8.8.8 0 00-.8.8zM35.73 6.02a.81.81 0 00-1.14 0l-3.95 3.91a.8.8 0 000 1.13.8.8 0 001.14 0l3.95-3.91a.8.8 0 000-1.13z" fill="var(--primary_0)"/></svg>