<?xml version="1.0" encoding="utf-8"?><svg viewBox="0 0 42 48" fill="none" xmlns="http://www.w3.org/2000/svg" width="42" height="48"><path d="M10.641 48c4.032 0 7.531-2.277 9.273-5.598.389.016.774.027 1.147.027.187 0 .368 0 .568-.005.196-.004.391-.01.583-.022a6.242 6.242 0 00.32-.011l.571-.04c.149-.01.29-.023.468-.038 5.085-.474 8.436-2.238 8.616-4.511.01-.055.201-1.086.201-2.175 0-.864-.12-1.701-.179-2.047.146-.905.179-1.605.179-2.034 0-.424-.032-1.114-.178-2.03.145-.904.178-1.603.178-2.031 0-.879-.122-1.709-.174-2.024.056-.339.173-1.152.173-2.008 0-.877-.123-1.706-.177-2.03.054-.323.177-1.153.177-2.029 0-.932-.14-1.815-.187-2.087-.046-3.106-5.76-4.781-11.139-4.781-5.394 0-11.126 1.685-11.14 4.807-.05.302-.18 1.155-.18 2.056 0 .877.122 1.706.176 2.03a13.077 13.077 0 00-.177 2.029c0 .869.121 1.692.176 2.021a13.112 13.112 0 00-.176 1.878C4.4 27.802.193 32.245.193 37.65.193 43.357 4.88 48 10.641 48zm17.393-19.56a.81.81 0 00-1.002-.542c-1.725.504-3.79.77-5.97.77-3.496 0-6.741-.71-8.468-1.85-.002 0-.004-.003-.006-.004-.461-.307-1.005-.784-1.046-1.337l-.001-.012v-.014c0-.027-.005-.053-.008-.08-.002-.013-.001-.027-.004-.04l-.002-.01a12.277 12.277 0 01-.163-1.47c.095.072.182.143.288.213a.811.811 0 001.121-.214.795.795 0 00-.216-1.111c-.37-.248-.988-.745-1.015-1.3v-.021c0-.03-.005-.058-.008-.086-.002-.02 0-.04-.005-.062a12.229 12.229 0 01-.163-1.462c2.044 1.541 5.95 2.354 9.694 2.354 3.748 0 7.656-.814 9.7-2.357a12.12 12.12 0 01-.165 1.47c-.002.01 0 .02-.002.03a1.722 1.722 0 00-.006.052c-.001.021-.005.041-.005.063-.01.423-.38.897-1.048 1.338-1.722 1.146-4.969 1.857-8.473 1.857-2.435 0-4.77-.342-6.575-.963a.808.808 0 00-1.028.494.799.799 0 00.498 1.018c1.97.678 4.494 1.05 7.105 1.05 3.866 0 7.37-.795 9.37-2.125.12-.08.224-.16.33-.241-.03.657-.123 1.239-.155 1.421-.005.02-.007.041-.01.062v.002l-.001.006c-.005.038-.011.075-.011.114V25.47c-.006.42-.38.897-1.053 1.343a5.655 5.655 0 01-.406.245.796.796 0 00-.31 1.088.809.809 0 001.098.31 7.502 7.502 0 00.55-.338c.107-.072.201-.145.297-.217-.018.365-.06.84-.158 1.442v.001a.795.795 0 00-.017.177c-.01.415-.365.88-1.006 1.314l-.05.03c-1.717 1.143-4.962 1.852-8.469 1.852-.438 0-.855-.014-1.256-.034a10.415 10.415 0 00-2.085-2.625c1.062.136 2.185.209 3.342.209 2.332 0 4.555-.29 6.426-.835a.798.798 0 00.548-.994zm-4.647 12.282c-.127.012-.25.023-.393.032l-.555.04-.066.001c-.083.005-.161.004-.249.01-.175.011-.354.015-.55.02-.166.004-.328.004-.494.004-.158 0-.329-.005-.496-.008.254-.778.41-1.598.47-2.444h.007c.42 0 .833-.01 1.24-.028a.803.803 0 00.77-.835.806.806 0 00-.843-.763c-.387.018-.785.023-1.182.023a10.17 10.17 0 00-.525-2.463c.18.003.356.009.54.009 3.835 0 7.311-.78 9.318-2.09.016-.008.03-.018.045-.027l.027-.02c.113-.075.21-.151.31-.227-.017.365-.058.842-.157 1.446a.842.842 0 00-.02.17l.002.009c-.017.572-.665 1.083-1.05 1.338l-.038.027-.004.002c-1.05.686-2.707 1.234-4.666 1.544a.8.8 0 00-.67.916.806.806 0 00.926.663c2.21-.35 4.043-.968 5.29-1.78a.998.998 0 00.07-.05c.118-.077.217-.156.32-.235-.035.798-.164 1.496-.165 1.504-.007.035-.007.07-.009.104l-.003.021c-.036 1.192-2.726 2.67-7.2 3.087zM21.06 14.126c5.884 0 9.502 1.863 9.524 3.206l-.001.032c-.035 1.343-3.65 3.199-9.523 3.199-5.855 0-9.464-1.845-9.52-3.186v-.06c.047-1.341 3.658-3.191 9.52-3.191zM10.64 28.9c4.871 0 8.834 3.925 8.834 8.75 0 4.824-3.963 8.749-8.834 8.749-4.87 0-8.833-3.925-8.833-8.75 0-4.824 3.963-8.749 8.833-8.749z" fill="#0288D1"/><path d="M10.545 38.444h.096c.383 0 .748.185.977.493.222.3.285.688.172 1.058-.13.394-.468.704-.864.792-.078.02-.164.03-.28.03-.52 0-.983-.329-1.15-.816a.779.779 0 00-.75-.521c-.258 0-.501.123-.652.33-.155.214-.314.46-.24.682.255.782 1.054 1.47 1.69 1.778l.034.017v.89c0 .419.594.79 1.063.79.467 0 1.062-.372 1.062-.79v-.891l.037-.017c.558-.249 1.302-.845 1.615-1.566.34-.8.23-1.83-.295-2.757-.434-.748-1.372-1.25-2.335-1.25h-.085c-.468 0-.807-.154-1.007-.456a1.095 1.095 0 01-.095-1.088c.144-.337.458-.586.842-.665.084-.018.168-.018.249-.018.524 0 .988.33 1.155.822.103.313.41.531.745.531.26 0 .505-.122.659-.332.127-.181.32-.455.244-.684-.288-.849-1.17-1.52-1.694-1.763l-.036-.016v-.908c0-.416-.594-.785-1.062-.785-.469 0-1.063.37-1.063.785v.909l-.037.016c-.569.248-1.32.854-1.625 1.598-.343.84-.205 1.811.388 2.734.428.668 1.266 1.068 2.242 1.068zM1.124 21.349h5.584a.804.804 0 00.808-.8c0-.442-.362-.8-.808-.8H1.124a.804.804 0 00-.808.8c0 .442.362.8.808.8zM34.61 20.549c0 .442.361.8.807.8h5.584a.804.804 0 00.808-.8c0-.442-.362-.8-.808-.8h-5.584a.804.804 0 00-.808.8zM6.393 6.019a.794.794 0 000 1.13l3.948 3.912a.81.81 0 00.572.234.81.81 0 00.571-.234.794.794 0 000-1.131L7.536 6.019a.813.813 0 00-1.143 0zM20.254.8v5.531c0 .442.362.8.808.8a.804.804 0 00.807-.8V.8c0-.442-.362-.8-.807-.8a.804.804 0 00-.808.8zM35.732 6.019a.813.813 0 00-1.142 0l-3.949 3.91a.794.794 0 000 1.132.81.81 0 00.571.234.81.81 0 00.572-.234l3.948-3.911a.795.795 0 000-1.131z" fill="#0288D1"/></svg>