<?xml version="1.0" encoding="utf-8"?><svg viewBox="0 0 126 107" fill="none" xmlns="http://www.w3.org/2000/svg" width="126" height="107"><g clip-path="url(#kclip0)"><path class="special" d="M125.11 29.67l-1.5-2.6-6.5 3.75-10.74-18.57 6.25-3.6-1.5-2.6-8.85 5.1 1.8 3.1c-1.44.1-2.73.16-3.92.16-3.56 0-6.4-.51-11.04-1.6a7.02 7.02 0 00-1.6-.19c-4.63 0-7.72 4.46-8.84 6.37a844.29 844.29 0 00-3.5 6.05l-2.77 4.78-2.18-1.3-14.1 21.24h-9.6L32.9 60.4h-.02v12.16h5.53v33.6h3v-33.6h57.2v33.6h3v-33.6h5.52V60.4h-.01l.02-.02-13.7-10.62h-2.27l4-6.46-3.13-1.86.16-.07c1.85-.74 3.55-.99 5.5-.81.37.03.75.05 1.13.05 2.75 0 5.38-.92 7.22-2.53.5-.44.96-.78 1.52-1.14l7.02-4.5 1.43 2.47 9.1-5.24zm-20.98 39.9H35.88v-6.18h68.25v6.18zM92.42 52.76l9.85 7.64h-64.5l9.79-7.64h6.58l-1.33 2h-3.06v3h40.52v-3h-2.2l1.24-2h3.1zm-1.4-8.44l-6.4 10.3-28.11-.01 14.63-22.05 1.78 1.05 2.69 1.83a6.01 6.01 0 006.15 10.15l6.78-2.74 2.48 1.47zm14.93-9.9c-.7.44-1.26.86-1.88 1.4a8.03 8.03 0 01-5.24 1.8c-.3 0-.58-.02-.86-.04-2.46-.23-4.6.09-6.9 1.02l-10.43 4.22a3.1 3.1 0 01-3.94-1.67 3.02 3.02 0 011.67-3.93l3.98-1.6 10.1-4.63a1.5 1.5 0 00.64-2.17l-.29-.44a5.39 5.39 0 00-4.65-2.5c-1.55 0-2.94.6-4 1.75a20.2 20.2 0 00-2.45 3.67c-.3.56-.63 1.13-.86 1.45-.45.27-1.66.81-2.33 1.04l-3.54-2.41 2.8-4.85a833.7 833.7 0 013.5-6.03c1.77-3.06 4.1-4.88 6.24-4.88.3 0 .6.04.91.1 4.77 1.12 7.9 1.69 11.73 1.69 1.65 0 3.49-.1 5.58-.28l7.35 12.71-7.13 4.58zm-20.54-3.5c.31-.48.63-.92.94-1.26a2.38 2.38 0 012.05-.78c.34.03.65.11.93.25l-3.92 1.8z" fill="var(--primary_0)"/><path d="M43.9 18.18L37.93 0" stroke="var(--success_1)" stroke-width="3"/><path d="M30.4 40.14L15.98 26.4" stroke="var(--primary_1)" stroke-width="3"/><path d="M27.9 54.11L.65 62.57" stroke="var(--warning_1)" stroke-width="3"/></g><defs><clipPath id="kclip0"><path fill="var(--background_0)" d="M0 0h126v107H0z"/></clipPath></defs></svg>