<?xml version="1.0" encoding="utf-8"?><svg viewBox="0 0 126 107" fill="none" xmlns="http://www.w3.org/2000/svg" width="126" height="107"><g clip-path="url(#kclip0)"><path d="M125.115 29.668l-1.5-2.593-6.502 3.747-10.745-18.573 6.253-3.602-1.5-2.593-8.851 5.1 1.795 3.1c-1.435.102-2.728.16-3.916.16-3.562 0-6.397-.518-11.042-1.603a7.019 7.019 0 00-1.601-.187c-4.625 0-7.718 4.451-8.833 6.365a844.29 844.29 0 00-3.502 6.046c-.597 1.04-1.192 2.078-2.77 4.787l-2.184-1.294-14.09 21.235h-9.603L32.897 60.396l.003.004h-.015v12.162h5.528v33.596h3V72.562H98.6v33.596h3V72.562h5.533V60.4h-.014l.015-.02-13.69-10.617h-2.278l4.012-6.465-3.142-1.859.165-.066c1.848-.747 3.55-.993 5.5-.814.369.033.744.051 1.125.051 2.75 0 5.383-.922 7.223-2.53.503-.438.958-.78 1.521-1.141l7.014-4.502 1.432 2.475 9.098-5.244zm-20.981 39.9h-68.25v-6.175h68.25v6.175zM92.417 52.757l9.853 7.643H37.763l9.794-7.643h6.585l-1.332 2.008h-3.06v2.993h40.517v-2.993h-2.203l1.246-2.008h3.107zm-1.398-8.44l-6.4 10.312-28.11-.019 14.636-22.053 1.776 1.052 2.687 1.827a6.008 6.008 0 003.907 10.595 5.97 5.97 0 002.25-.438l6.778-2.742 2.476 1.465zm14.928-9.898c-.693.445-1.253.865-1.873 1.406-1.301 1.138-3.214 1.79-5.247 1.79-.29 0-.574-.015-.853-.04-2.465-.223-4.601.093-6.9 1.022l-10.436 4.22c-1.506.607-3.336-.182-3.938-1.663a3.02 3.02 0 011.666-3.93l3.983-1.612 10.104-4.618a1.494 1.494 0 00.633-2.173l-.284-.438a5.386 5.386 0 00-4.142-2.49 5.582 5.582 0 00-.514-.021c-1.548 0-2.931.608-4 1.758-.937 1.009-1.771 2.484-2.441 3.67-.314.556-.64 1.128-.863 1.45-.451.269-1.658.812-2.327 1.042l-3.55-2.414c1.605-2.757 2.206-3.804 2.81-4.853.679-1.184 1.36-2.37 3.492-6.03 1.778-3.053 4.11-4.875 6.239-4.875.305 0 .612.036.916.106 4.77 1.115 7.894 1.683 11.727 1.683 1.654 0 3.491-.108 5.578-.278l7.354 12.71-7.134 4.578zM85.41 30.922c.31-.48.628-.924.938-1.258.493-.53 1.099-.8 1.8-.8.083 0 .167.003.253.011.342.03.652.115.93.255l-3.921 1.792z" fill="#0288D1"/><path d="M43.908 18.185L37.924 0" stroke="#BFD4C3" stroke-width="3"/><path d="M30.41 40.14L15.965 26.4" stroke="#B3DBF2" stroke-width="3"/><path d="M27.91 54.11L.643 62.574" stroke="#FFCEA8" stroke-width="3"/></g><defs><clipPath id="kclip0"><path fill="#fff" d="M0 0h126v107H0z"/></clipPath></defs></svg>