<?xml version="1.0" encoding="utf-8"?><svg viewBox="0 0 97 98" fill="none" xmlns="http://www.w3.org/2000/svg" width="97" height="98"><g clip-path="url(#lclip0)"><path d="M1.49 49.42c.3-.13.63-.23.96-.23.83 0 1.62.46 2.12 1.25l3.74 6.57s.36-.1.99-.13L6.65 38.13c-.33-1.39.43-2.74 1.66-3.1l.3-.07c1.25-.33 2.54.53 2.9 1.92l2.02 12.14 1.63-.3-1.23-15.08c-.2-1.42.7-2.7 1.95-2.9l.14.03c1.25-.17 2.45.8 2.68 2.18l1.65 15.22 1.62.06-.5-12.7c-.03-.27 0-.5.04-.73-1.03-7-1.69-14.53-1.75-15.65a4.87 4.87 0 013.07-5.61 4.88 4.88 0 016.42 3.17c0 .06.04.13.04.16l1.29 7.03-1.2-13.93V9.9a5.27 5.27 0 014.77-5.54 5.3 5.3 0 015.82 4.82l.87 7.56-.4-11.46v-.1A5.28 5.28 0 0145.77.03H46c2.91 0 5.3 2.35 5.33 5.25l.9 13.5.26-9.5v-.13a5.27 5.27 0 011.98-3.57 5.26 5.26 0 013.9-1.12l.47.06a5.38 5.38 0 014.7 5.68v22.22l2.75-6.24c0-.03.03-.03.03-.07a5.55 5.55 0 016.49-2.9 5.45 5.45 0 013.84 6.6l-.1.46c-.76 2.97-1.46 5.85-2.12 8.2l-1.16 8.6 1.79.17 3.17-14.92a2.61 2.61 0 013.15-1.82l.13.04a2.56 2.56 0 011.89 3.13l-2.72 14.86 1.76.5 3.34-11.86a2.6 2.6 0 013.34-1.52l.3.14a2.57 2.57 0 011.52 3.3l-4.6 18.29c.7.13 1.1.26 1.1.26l4.7-6.04a2.8 2.8 0 012.11-.99 2.77 2.77 0 012.42 4.06c-1.52 2.8-3.94 7.36-4.87 8.65a28.11 28.11 0 01-4.73 5.31 11.33 11.33 0 01-5.6 2.58l-.79 3.17c.07 0 .14.03.17.07 4.53 1.68 4.4 3.36 4.23 4.06l-.03.13-4.83 18.02c-.2.73-.86 1.22-1.59 1.22-.13 0-.3 0-.43-.06a1.6 1.6 0 01-1.16-2.02l4.14-15.51c-.6-.03-1.16-.1-1.62-.17-2.32-.3-5.5-.92-9.17-1.85a82.02 82.02 0 01-3.7-.99V96.2c0 .93-.73 1.65-1.66 1.65-.93 0-1.66-.72-1.66-1.65V68.24c-.06.03-.13.03-.2.06-.56.14-1.19.27-1.95.43a66.43 66.43 0 01-8.3 1.16A70.38 70.38 0 0132.5 68.6c-.2-.03-.37-.1-.56-.13V96.2c0 .93-.73 1.65-1.66 1.65-.93 0-1.65-.72-1.65-1.65V78.37c-1.76.4-4 .8-6.72 1.2-3.41.45-6.32.72-8.47.72h-.27c-.3 0-.66 0-1.03-.03l2.35 15.68c.14.89-.5 1.75-1.39 1.88h-.23c-.8 0-1.52-.6-1.62-1.42L8.5 78.18v-.07-.07-.1-.1c-.06-1.48 1.36-2.64 4.27-3.43.07-.03.14-.03.24-.03l-.47-3.24a10.71 10.71 0 01-4.83-3.23 27.54 27.54 0 01-3.84-5.84c-.73-1.4-2.55-6.21-3.67-9.18-.5-1.32.03-2.87 1.29-3.47zM23.03 18.5c.04.1.04.16.04.26 0 .13.6 7.26 1.55 14.23.6 4.23 1.3 8.39 2.12 10.83.07.23.13.43.23.63.66 1.71 1.26 3.1 1.89 4.25a16.6 16.6 0 004.83 5.58c.4.33.83.66 1.29 1 .43.3.66.79.66 1.32v9.2c2.19.4 4.34.67 6.39.8a236.78 236.78 0 0010.06 0c2.35-.17 4.47-.43 6.25-.73v-8.68c0-.66.4-1.26 1-1.52l.43-.2c3.04-1.38 5.26-3.76 7.08-6.86l.8-1.42a56.74 56.74 0 002.18-4.89c.63-1.62 1.95-6.73 2.98-10.76.2-.73.36-1.42.53-2.08l.13-.46a2.2 2.2 0 00-1.56-2.68c-1.02-.3-2.11.2-2.61 1.16l-3.94 8.91-.43.96c-.3.66-1 1.05-1.72.99 0 0-.63-.07-1.62.03-.83.1-1.95.3-3.15.76-1.42.6-2.48 1.29-2.51 1.29a1.64 1.64 0 11-1.82-2.74 16.34 16.34 0 016.09-2.48l.03-25.09v-.16c.1-1.1-.7-2.05-1.75-2.18L58 7.69c-.53-.06-1.06.1-1.49.43-.4.33-.66.8-.72 1.29l-.5 17.23c0 .43-.2.86-.53 1.16-.33.3-.76.46-1.2.46L51 28.19a1.63 1.63 0 01-1.6-1.55L48.03 5.41v-.1c0-1.08-.9-2-2.02-2h-.2a2 2 0 00-2.02 1.9l.76 21.4c.04.82-.56 1.55-1.39 1.68l-2.51.4c-.43.06-.9-.03-1.26-.3-.36-.26-.6-.7-.63-1.12L36.73 9.5v-.07a1.99 1.99 0 00-.72-1.38c-.43-.37-.93-.5-1.5-.47a1.97 1.97 0 00-1.78 2.08l1.82 21.16a1.6 1.6 0 01-1 1.66l-2.44 1.05c-.47.2-1 .17-1.43-.06a1.71 1.71 0 01-.86-1.16l-2.74-14.79c-.13-.4-.43-.73-.8-.9a1.6 1.6 0 00-1.29-.06 1.67 1.67 0 00-.96 1.92z" fill="var(--primary_1)"/></g><defs><clipPath id="lclip0"><path fill="var(--background_0)" transform="rotate(-180 48.5 48.93)" d="M0 0h97v97.85H0z"/></clipPath></defs></svg>