<?xml version="1.0" encoding="utf-8"?><svg viewBox="0 0 97 98" fill="none" xmlns="http://www.w3.org/2000/svg" width="97" height="98"><g clip-path="url(#lclip0)"><path d="M1.488 49.421c.298-.132.629-.23.96-.23.827 0 1.621.461 2.118 1.254l3.74 6.57s.364-.1.992-.133L6.651 38.131c-.331-1.387.43-2.74 1.655-3.103l.297-.066c1.258-.33 2.549.528 2.913 1.914l2.018 12.149 1.622-.297-1.224-15.087c-.199-1.42.695-2.707 1.952-2.905l.133.033c1.257-.165 2.449.792 2.68 2.179l1.655 15.219 1.622.066-.497-12.71c-.033-.264 0-.495.033-.727-1.026-6.998-1.688-14.525-1.754-15.648-.53-2.377.795-4.754 3.078-5.612 1.258-.495 2.68-.396 3.905.198 1.225.594 2.118 1.684 2.515 2.971 0 .066.034.132.034.165l1.29 7.032-1.191-13.931v-.066a5.265 5.265 0 014.765-5.547 5.447 5.447 0 013.939 1.189 5.302 5.302 0 011.886 3.631l.86 7.56-.397-11.455v-.1c.1-2.905 2.416-5.15 5.329-5.15H46c2.913 0 5.295 2.345 5.328 5.25l.894 13.502.265-9.508v-.132a5.273 5.273 0 011.985-3.565 5.26 5.26 0 013.906-1.123l.463.066c2.813.33 4.898 2.873 4.7 5.679V32.42l2.746-6.24c0-.033.033-.033.033-.066a5.552 5.552 0 016.487-2.905c2.846.76 4.567 3.697 3.839 6.602l-.1.463c-.76 2.97-1.456 5.843-2.118 8.187l-1.158 8.616 1.787.165 3.177-14.922c.364-1.353 1.787-2.145 3.144-1.815l.133.033c1.39.33 2.25 1.75 1.886 3.136L80.683 48.53l1.754.495 3.343-11.852c.496-1.353 2.019-2.014 3.342-1.518l.298.132a2.567 2.567 0 011.523 3.301l-4.6 18.29a9.35 9.35 0 011.092.264l4.699-6.042a2.806 2.806 0 012.118-.99c.463 0 .927.132 1.357.363 1.29.726 1.754 2.377 1.059 3.697-1.522 2.806-3.938 7.362-4.865 8.65-1.555 2.146-3.078 3.961-4.733 5.315-1.654 1.353-3.441 2.245-5.592 2.575l-.795 3.17c.066 0 .133.032.166.065 4.534 1.684 4.401 3.368 4.236 4.06 0 .034-.033.1-.033.133L80.22 96.663a1.658 1.658 0 01-1.589 1.222c-.132 0-.297 0-.43-.067-.893-.23-1.423-1.122-1.158-2.013l4.137-15.517c-.596-.032-1.159-.099-1.622-.165-2.317-.297-5.494-.924-9.167-1.848a82.02 82.02 0 01-3.707-.99V96.2c0 .924-.728 1.65-1.654 1.65a1.637 1.637 0 01-1.655-1.65V68.239c-.066.033-.133.033-.199.066-.562.132-1.191.264-1.952.429-.662.132-1.357.264-2.151.396a76.329 76.329 0 01-6.156.76c-3.376.263-7.28.362-11.517 0a69.016 69.016 0 01-8.902-1.288c-.199-.033-.364-.1-.563-.132V96.2c0 .925-.728 1.651-1.655 1.651a1.637 1.637 0 01-1.654-1.65V78.374c-1.754.396-4.005.792-6.719 1.188-3.408.462-6.32.727-8.472.727h-.264c-.298 0-.662 0-1.026-.034l2.35 15.682a1.669 1.669 0 01-1.39 1.881h-.232c-.795 0-1.523-.594-1.622-1.42L8.504 78.177v-.066-.066-.1-.099c-.066-1.485 1.357-2.64 4.27-3.433.066-.033.132-.033.231-.033l-.463-3.235C10.655 70.55 9.1 69.46 7.71 67.908c-1.39-1.518-2.615-3.499-3.84-5.843-.727-1.386-2.547-6.206-3.673-9.177-.496-1.32.034-2.873 1.291-3.467zm21.545-30.933c.033.099.033.165.033.264 0 .132.596 7.263 1.555 14.229.596 4.225 1.29 8.385 2.118 10.828.066.231.133.43.232.627.662 1.717 1.258 3.103 1.886 4.259 1.291 2.377 2.648 3.862 4.832 5.58.397.33.827.66 1.29.99.431.297.663.792.663 1.32v9.21c2.184.397 4.335.661 6.387.793 1.522.033 3.276.066 5.262.066 1.754 0 3.343-.033 4.799-.066 2.35-.165 4.467-.43 6.254-.726v-8.683c0-.66.398-1.254.993-1.518.133-.066.298-.132.43-.198 3.045-1.387 5.263-3.764 7.083-6.867.265-.462.53-.924.794-1.42.761-1.485 1.49-3.136 2.184-4.886.63-1.617 1.953-6.734 2.979-10.762.198-.726.364-1.42.53-2.08l.132-.462c.297-1.188-.397-2.344-1.556-2.674-1.026-.297-2.118.198-2.614 1.155l-3.939 8.914-.43.957a1.715 1.715 0 01-1.72.99s-.63-.065-1.622.034c-.828.099-1.953.297-3.144.76-1.423.593-2.482 1.287-2.515 1.287-.762.495-1.788.297-2.284-.463-.496-.759-.298-1.782.463-2.277a16.337 16.337 0 013.475-1.75 15.104 15.104 0 012.615-.726l.033-25.09v-.165a2.017 2.017 0 00-1.754-2.18l-.463-.065c-.53-.066-1.06.099-1.49.429-.397.33-.662.792-.728 1.287L55.3 26.642c0 .43-.199.858-.53 1.156a1.798 1.798 0 01-1.191.462l-2.581-.066c-.86-.033-1.556-.694-1.589-1.552l-1.39-21.227v-.1c0-1.089-.893-2.013-2.019-2.013h-.198c-1.092 0-1.953.825-2.02 1.915l.762 21.392a1.645 1.645 0 01-1.39 1.684l-2.515.396a1.717 1.717 0 01-1.258-.297 1.563 1.563 0 01-.629-1.123L36.734 9.51v-.067c-.033-.528-.298-1.023-.728-1.386s-.927-.495-1.49-.462a1.974 1.974 0 00-1.787 2.08l1.82 21.16a1.596 1.596 0 01-.992 1.652l-2.45 1.056a1.653 1.653 0 01-1.422-.066 1.714 1.714 0 01-.86-1.156l-2.748-14.79a1.515 1.515 0 00-.794-.89 1.596 1.596 0 00-1.29-.067c-.729.33-1.159 1.123-.96 1.915z" fill="#B3DBF2"/></g><defs><clipPath id="lclip0"><path fill="#fff" transform="rotate(-180 48.5 48.925)" d="M0 0h97v97.851H0z"/></clipPath></defs></svg>