<svg width="52" height="50" viewBox="0 0 52 50" fill="none" xmlns="http://www.w3.org/2000/svg">
<g opacity="0.5">
<path d="M50.1483 29.5946C46.9011 42.3581 33.7092 50.1258 20.6829 46.9429C7.66198 43.7608 -0.264709 30.8327 2.98407 18.0699C6.22981 5.3049 19.4217 -2.46356 32.4442 0.718578C45.4697 3.90071 53.3956 16.8303 50.1483 29.5946Z" fill="#7A7A7A"/>
<path d="M37.2887 20.434C37.7726 17.2637 35.3095 15.5595 31.9414 14.4226L33.0339 10.1281L30.3664 9.47665L29.3027 13.6579C28.6015 13.4867 27.8812 13.3252 27.1655 13.1651L28.2368 8.95622L25.5707 8.30475L24.4774 12.5977C23.897 12.4682 23.3271 12.3401 22.774 12.2054L22.7771 12.192L19.0983 11.2918L18.3886 14.0838C18.3886 14.0838 20.3678 14.5283 20.326 14.5559C21.4064 14.8202 21.6017 15.5208 21.569 16.0762L20.3245 20.9685C20.399 20.9871 20.4955 21.0139 20.6018 21.0556C20.513 21.034 20.418 21.0102 20.32 20.9871L18.5755 27.8406C18.4433 28.1622 18.1083 28.6447 17.3531 28.4615C17.3797 28.4995 15.4141 27.9872 15.4141 27.9872L14.0898 30.9795L17.5612 31.8275C18.207 31.9861 18.8399 32.1522 19.4629 32.3085L18.359 36.6521L21.0235 37.3036L22.1168 33.0062C22.8447 33.1997 23.5513 33.3784 24.2427 33.5467L23.1532 37.824L25.8207 38.4755L26.9246 34.1401C31.4734 34.9836 34.8939 34.6434 36.3336 30.6117C37.4938 27.3656 36.2759 25.4931 33.8826 24.272C35.6255 23.8782 36.9384 22.7547 37.2887 20.434ZM31.1938 28.8092C30.3694 32.0554 24.792 30.3005 22.9837 29.8605L24.4486 24.106C26.2568 24.5482 32.0554 25.4238 31.1938 28.8092ZM32.0189 20.387C31.2667 23.3399 26.6245 21.8396 25.1187 21.4718L26.4468 16.2527C27.9526 16.6205 32.8022 17.3069 32.0189 20.387Z" fill="white"/>
</g>
</svg>
