<svg width="97" height="132" viewBox="0 0 97 132" fill="none" xmlns="http://www.w3.org/2000/svg">
<path d="M31.0955 0.229736C31.3452 0.335876 31.592 0.444924 31.8446 0.548156C33.8524 1.36093 35.3593 2.6317 36.1843 4.71815C38.9529 11.703 40.7417 18.9482 42.1289 26.3053C42.3027 27.2286 42.4779 28.1547 42.6093 28.8468C43.6285 23.236 44.6288 17.4375 45.7458 11.6652C46.3737 8.4127 49.427 6.52835 52.6833 7.19572C55.7469 7.82239 57.7269 10.9034 57.1034 14.0832C55.8082 20.6959 55.1584 27.3783 55.0328 34.1597C55.2066 33.6769 55.3862 33.1957 55.5526 32.7115C56.8274 29.0097 58.3592 25.4329 60.6532 22.2284C62.7603 19.2913 66.2443 18.6254 69.0056 20.6057C71.6997 22.538 72.1611 26.0785 70.1329 28.9777C67.357 32.95 66.1509 37.5183 65.174 42.1681C64.1504 47.023 65.0995 51.7033 66.218 56.4287C69.1691 68.9314 69.7138 81.6014 68.6186 94.3832C67.6053 106.226 64.6775 117.561 59.9756 128.459C59.6106 129.302 58.8089 129.961 58.2161 130.705C57.9737 130.705 57.7342 130.705 57.4947 130.705C55.6738 129.769 55.4168 129.039 56.2346 127.061C59.3828 119.434 62.0185 111.648 63.3765 103.481C65.0251 93.5443 65.5814 83.5642 64.7768 73.5114C64.257 67.034 63.2056 60.654 61.5906 54.3524C59.577 46.4821 61.1292 38.9563 64.1358 31.6414C64.8528 29.8879 65.9012 28.2638 66.8693 26.6237C67.5337 25.5071 67.5089 24.5096 66.6415 23.8713C65.6953 23.1749 64.7359 23.3872 63.9211 24.5882C60.954 28.9646 59.0864 33.8223 58.0058 38.9549C57.486 41.4324 57.2961 43.9885 57.0625 46.5184C56.8814 48.4333 55.7644 49.6881 54.0238 49.6954C52.2745 49.6983 51.1151 48.4973 50.9968 46.5388C50.3105 35.5206 51.08 24.594 53.0936 13.7488C53.2557 12.8706 53.2616 12.0738 52.5023 11.4689C51.4056 10.6024 49.8812 11.2087 49.6227 12.7106C48.621 18.5891 47.5667 24.4617 46.7592 30.3691C46.2686 33.9459 46.1839 37.5838 45.9386 41.1954C45.8188 43.0085 44.8011 44.1674 43.2036 44.2386C41.4513 44.3142 40.3168 43.34 40.1445 41.4557C39.3063 32.2433 37.7614 23.156 35.1622 14.2678C34.3372 11.4486 33.2902 8.69041 32.2885 5.92495C31.9234 4.91589 30.6355 4.12493 29.7448 4.2776C28.6701 4.46225 28.0758 5.20232 27.902 6.22011C27.8275 6.66211 27.9166 7.17101 28.0597 7.6072C31.4474 17.9668 33.591 28.5953 34.8877 39.4012C34.9505 39.9145 34.9724 40.4321 34.9855 40.9497C35.0235 42.5069 34.1503 43.6905 32.7981 43.9376C31.3277 44.211 30.1858 43.4171 29.4995 41.9835C28.178 39.2311 26.9835 36.3712 25.2868 33.8587C21.534 28.3045 16.4422 24.1752 10.4203 21.1946C10.0377 21.0056 9.60989 20.8369 9.18789 20.8006C8.25627 20.7119 7.29691 20.6755 6.96836 21.8707C6.66026 22.9946 6.90703 23.851 7.97445 24.5111C11.4498 26.6659 14.6111 29.2234 17.4352 32.1793C21.7487 36.6997 25.1845 41.7959 26.2739 48.0073C26.7046 50.4616 27.6932 51.3267 29.9419 51.9156C33.5968 52.8737 36.9072 54.6839 39.756 57.2226C40.6658 58.0368 40.768 59.2756 40.07 60.1029C39.3632 60.9375 38.141 61.0175 37.1568 60.2876C37.1247 60.2643 37.0955 60.2338 37.0663 60.209C32.5148 56.3895 27.1339 54.5967 21.3077 54.3146C17.6601 54.1387 13.973 54.4193 10.3298 54.7697C8.84036 54.9151 7.37722 55.6915 5.98418 56.3546C4.56485 57.0307 4.07276 58.4337 4.57215 59.7525C5.09053 61.125 6.41786 61.82 7.96861 61.4362C15.312 59.6187 21.9867 61.0422 28.0101 65.5466C31.0444 67.8148 32.6024 70.9481 32.7645 74.6557C33.5603 92.9831 30.1464 110.508 22.4233 127.178C21.8071 128.511 21.423 130.071 19.8153 130.705C19.5759 130.705 19.3349 130.705 19.0954 130.705C17.3753 129.662 17.092 128.921 17.8806 127.339C21.8217 119.429 24.6282 111.132 26.452 102.501C28.397 93.2797 29.3359 83.9612 28.7095 74.5379C28.5518 72.1709 27.4742 70.1368 25.4722 68.6683C20.4724 65.0028 14.9922 63.828 8.93381 65.3387C5.25407 66.2561 1.90872 64.3921 0.660232 60.8343C0.585761 60.6205 0.471867 60.4184 0.376953 60.2134C0.376953 59.2567 0.376953 58.3014 0.376953 57.3462C1.31295 54.4121 3.48721 52.7822 6.24556 51.712C9.16307 50.5823 12.212 50.2697 15.2931 50.1897C17.7155 50.1243 20.138 50.1752 22.6248 50.1752C22.4043 47.715 21.5428 45.4178 20.4272 43.2208C17.0818 36.6314 11.92 31.7126 5.71404 27.8727C2.38621 25.808 2.3205 21.8416 3.60257 19.5036C5.01314 16.9257 8.6739 15.9007 11.5972 17.2921C17.2235 19.9703 22.1123 23.6285 26.1571 28.3641C27.4377 29.8632 28.5868 31.4756 29.958 33.2451C29.8718 32.617 29.8324 32.2361 29.7652 31.8566C28.4058 23.9339 26.6287 16.1144 24.1113 8.46649C23.1899 5.66323 24.3756 2.64479 26.8886 1.1123C27.4566 0.766252 28.0904 0.524893 28.6949 0.234098C29.4951 0.229736 30.2968 0.229736 31.0955 0.229736Z" fill="#B3DBF2"/>
<path d="M84.3395 23.6024C84.246 30.4913 82.1886 36.723 78.0124 42.2379C77.7495 42.5869 77.4692 42.9373 77.1348 43.2121C76.3594 43.8533 75.5037 43.8562 74.7123 43.2717C73.8814 42.6552 73.639 41.809 74.08 40.8465C74.2275 40.5266 74.4626 40.2431 74.6758 39.9581C80.394 32.2288 81.7461 23.8103 78.722 14.688C78.5541 14.1792 78.4271 13.5888 78.5147 13.0785C78.6724 12.1596 79.3558 11.6274 80.283 11.5635C81.3212 11.4908 82.0309 12.0186 82.3828 12.9869C83.4619 15.9152 84.0913 18.9366 84.249 22.0539C84.2767 22.5686 84.3074 23.0847 84.3395 23.6024Z" fill="#FFCEA8"/>
<path d="M96.6195 25.6278C96.5903 30.516 95.2966 35.0291 92.5382 39.1046C91.6679 40.3899 90.5596 40.7273 89.5214 40.0468C88.4934 39.378 88.3489 38.1494 89.1637 36.9106C92.7134 31.5222 93.3866 25.715 91.7512 19.5647C91.6884 19.3335 91.5993 19.111 91.5482 18.8799C91.2795 17.6294 91.811 16.7004 92.9661 16.3877C94.032 16.097 95.0878 16.5869 95.3681 17.7734C95.3681 17.7734 96.6458 23.7027 96.6195 25.6278Z" fill="#BFD4C3"/>
</svg>
