<svg width="150" height="143" viewBox="0 0 150 143" fill="none" xmlns="http://www.w3.org/2000/svg">
<g clip-path="url(#clip0)">
<path d="M31.6678 19.2895C36.8308 17.8283 125.336 24.1256 124.815 29.0808C124.295 34.0361 123.865 119.16 115.025 122.239C106.186 125.318 26.5466 120.454 21.8776 112.448C17.2087 104.442 26.5049 20.7507 31.6678 19.2895Z" fill="white" stroke="#0288D1" stroke-width="2"/>
<path d="M49.3443 23.9161C49.3443 36.5724 39.0855 46.8322 26.4309 46.8322C13.7763 46.8322 3.51758 36.5724 3.51758 23.9161C3.51758 11.2598 13.7763 1 26.4309 1C39.0855 1 49.3443 11.2598 49.3443 23.9161Z" fill="#E5F3FA" stroke="#0288D1" stroke-width="2"/>
<path d="M30.9115 19.4318C30.9115 22.1827 28.6817 24.4126 25.9313 24.4126C23.1809 24.4126 20.9512 22.1827 20.9512 19.4318C20.9512 16.681 23.1809 14.451 25.9313 14.451C28.6817 14.451 30.9115 16.681 30.9115 19.4318Z" fill="white" stroke="#0288D1"/>
<path d="M14.6263 43.1317C14.6552 43.0554 14.686 42.9716 14.7183 42.8813C14.8499 42.5142 15.0188 42.0106 15.2182 41.4155L15.2303 41.3793C15.6292 40.1888 16.1548 38.6199 16.7741 36.9579C17.4002 35.2779 18.1188 33.5117 18.894 31.9535C19.674 30.3855 20.4919 29.0686 21.3049 28.2555C22.9304 26.6298 24.6368 26.3016 26.1063 26.5277C27.6046 26.7582 28.8811 27.5713 29.5652 28.2555C29.7079 28.3982 29.9536 28.7347 30.29 29.2633C30.6174 29.778 31.0079 30.4376 31.4381 31.1934C32.298 32.7042 33.307 34.5825 34.2713 36.418C35.2352 38.2527 36.1527 40.0412 36.8293 41.3712C37.1676 42.0362 37.4456 42.5864 37.639 42.9703C37.6846 43.0608 37.7255 43.1421 37.7614 43.2135L35.1808 45.3166L29.8713 46.3355H23.0019L18.6399 45.3125L14.6263 43.1317Z" fill="white" stroke="#0288D1"/>
<path d="M148.983 23.9161C148.983 36.5724 138.724 46.8322 126.07 46.8322C113.415 46.8322 103.156 36.5724 103.156 23.9161C103.156 11.2598 113.415 1 126.07 1C138.724 1 148.983 11.2598 148.983 23.9161Z" fill="#E5F3FA" stroke="#0288D1" stroke-width="2"/>
<path d="M130.552 19.4318C130.552 22.1827 128.322 24.4126 125.572 24.4126C122.822 24.4126 120.592 22.1827 120.592 19.4318C120.592 16.681 122.822 14.451 125.572 14.451C128.322 14.451 130.552 16.681 130.552 19.4318Z" fill="white" stroke="#0288D1"/>
<path d="M114.265 43.1317C114.294 43.0554 114.325 42.9716 114.357 42.8813C114.489 42.5142 114.657 42.0106 114.857 41.4155L114.869 41.3793C115.268 40.1888 115.793 38.6199 116.413 36.9579C117.039 35.2779 117.757 33.5117 118.533 31.9535C119.313 30.3855 120.131 29.0686 120.944 28.2555C122.569 26.6298 124.275 26.3016 125.745 26.5277C127.243 26.7582 128.52 27.5713 129.204 28.2555C129.347 28.3982 129.592 28.7347 129.929 29.2633C130.256 29.778 130.647 30.4376 131.077 31.1934C131.937 32.7042 132.946 34.5825 133.91 36.418C134.874 38.2527 135.791 40.0412 136.468 41.3712C136.806 42.0362 137.084 42.5864 137.278 42.9703C137.323 43.0608 137.364 43.1421 137.4 43.2135L134.82 45.3166L129.51 46.3355H122.641L118.279 45.3125L114.265 43.1317Z" fill="white" stroke="#0288D1"/>
<path d="M143.004 115.595C143.004 128.251 132.746 138.511 120.091 138.511C107.437 138.511 97.1777 128.251 97.1777 115.595C97.1777 102.938 107.437 92.6785 120.091 92.6785C132.746 92.6785 143.004 102.938 143.004 115.595Z" fill="#E0F4FC" stroke="#0288D1" stroke-width="2"/>
<path d="M124.574 111.111C124.574 113.861 122.344 116.091 119.593 116.091C116.843 116.091 114.613 113.861 114.613 111.111C114.613 108.36 116.843 106.13 119.593 106.13C122.344 106.13 124.574 108.36 124.574 111.111Z" fill="white" stroke="#0288D1"/>
<path d="M108.286 134.811C108.315 134.734 108.346 134.651 108.378 134.56C108.51 134.193 108.679 133.69 108.878 133.094L108.89 133.058C109.289 131.868 109.815 130.299 110.434 128.637C111.06 126.957 111.779 125.191 112.554 123.632C113.334 122.065 114.152 120.748 114.965 119.935C116.591 118.309 118.297 117.981 119.766 118.207C121.265 118.437 122.541 119.25 123.225 119.934C123.368 120.077 123.614 120.414 123.95 120.942C124.278 121.457 124.668 122.117 125.098 122.872C125.958 124.383 126.967 126.261 127.931 128.097C128.895 129.932 129.813 131.72 130.489 133.05C130.828 133.715 131.106 134.265 131.299 134.649C131.345 134.74 131.386 134.821 131.422 134.892L128.841 136.996L123.531 138.014H116.662L112.3 136.991L108.286 134.811Z" fill="white" stroke="#0288D1"/>
<path d="M50.0543 118.233C48.6786 131.37 36.916 140.896 23.7819 139.511C10.6478 138.125 1.1157 126.353 2.49144 113.216C3.86717 100.079 15.6297 90.5531 28.7639 91.9386C41.898 93.324 51.43 105.097 50.0543 118.233Z" fill="white"/>
<ellipse cx="26.4309" cy="115.594" rx="23.9134" ry="23.9161" stroke="#0288D1" stroke-width="2" stroke-dasharray="4 2"/>
<path d="M17.8301 114.83C22.2613 115.296 25.6598 115.653 30.0677 116.117C32.8363 116.408 31.4126 116.258 34.1811 116.549" stroke="#0288D1" stroke-width="2" stroke-linecap="round" stroke-linejoin="round"/>
<path d="M26.2207 106.497C26.7252 111.68 25.9822 114.644 25.4417 119.787C25.3142 121 25.1868 122.213 25.0593 123.426C24.9784 124.196 24.9048 124.896 24.9048 124.896" stroke="#0288D1" stroke-width="2" stroke-linecap="round" stroke-linejoin="round"/>
</g>
<defs>
<clipPath id="clip0">
<rect width="149.983" height="142.019" fill="white"/>
</clipPath>
</defs>
</svg>
