<svg width="42" height="48" viewBox="0 0 42 48" fill="none" xmlns="http://www.w3.org/2000/svg">
<path d="M10.6411 48C14.6731 48 18.1721 45.7227 19.914 42.4021C20.3027 42.4181 20.6877 42.4293 21.0614 42.4293C21.2477 42.4293 21.4292 42.4293 21.629 42.4245C21.825 42.4197 22.0204 42.4149 22.2116 42.4021C22.2945 42.4016 22.3764 42.3979 22.476 42.3931C22.4948 42.3931 22.5137 42.3925 22.5325 42.3909L23.1033 42.3504C23.2519 42.3413 23.3924 42.3285 23.5712 42.3125C28.6559 41.8389 32.0073 40.0747 32.1866 37.8016C32.1963 37.7467 32.388 36.7163 32.388 35.6272C32.388 34.7632 32.2684 33.9259 32.2092 33.5803C32.3551 32.6752 32.388 31.9749 32.388 31.5456C32.388 31.1216 32.3557 30.432 32.2103 29.5157C32.3551 28.6123 32.388 27.9131 32.388 27.4848C32.388 26.6064 32.2657 25.7765 32.2135 25.4608C32.2695 25.1221 32.3869 24.3088 32.3869 23.4528C32.3869 22.5765 32.2636 21.7472 32.2098 21.4235C32.2636 21.1003 32.3869 20.2704 32.3869 19.3941C32.3869 18.4624 32.2474 17.5792 32.2001 17.3067C32.1538 14.2011 26.4401 12.5259 21.0614 12.5259C15.6666 12.5259 9.93467 14.2107 9.92121 17.3333C9.87005 17.6347 9.74028 18.4875 9.74028 19.3888C9.74028 20.2656 9.86305 21.0949 9.9169 21.4181C9.86305 21.7413 9.74028 22.5707 9.74028 23.4475C9.74028 24.3168 9.86144 25.1403 9.91582 25.4693C9.86359 25.7781 9.75213 26.5355 9.74028 27.3467C4.40036 27.8016 0.19336 32.2453 0.19336 37.6507C0.192283 43.3573 4.88013 48 10.6411 48ZM28.0345 28.4395C27.9085 28.016 27.4589 27.7744 27.0319 27.8981C25.3067 28.4021 23.2422 28.6683 21.062 28.6683C17.5657 28.6683 14.321 27.9589 12.5936 26.8181C12.592 26.8171 12.5898 26.8155 12.5877 26.8144C12.1267 26.5072 11.5834 26.0299 11.542 25.4773C11.542 25.4731 11.5409 25.4688 11.5409 25.4651C11.5409 25.4645 11.5409 25.464 11.5409 25.4635V25.4507C11.5409 25.4235 11.5355 25.3979 11.5328 25.3717C11.5312 25.3579 11.5317 25.344 11.5291 25.3301C11.5291 25.3301 11.5274 25.3221 11.5274 25.3205C11.5247 25.3051 11.5231 25.2901 11.5194 25.2747C11.4892 25.0997 11.3955 24.5136 11.3648 23.8512C11.4585 23.9227 11.5463 23.9936 11.6518 24.0645C11.7907 24.1573 11.948 24.2016 12.1041 24.2016C12.3626 24.2016 12.6173 24.0784 12.7734 23.8496C13.0238 23.4837 12.9264 22.9861 12.5575 22.7387C12.1865 22.4907 11.5694 21.9941 11.542 21.4384C11.542 21.4315 11.5414 21.4245 11.5414 21.4176C11.5414 21.3883 11.5371 21.3605 11.5344 21.3317C11.5323 21.3115 11.5334 21.2912 11.5291 21.2704C11.5274 21.2624 11.4036 20.5888 11.3659 19.8085C13.4104 21.3493 17.3159 22.1616 21.0604 22.1616C24.8075 22.1616 28.7162 21.3483 30.7597 19.8048C30.7225 20.5883 30.5971 21.2672 30.5954 21.2747C30.5933 21.2848 30.5944 21.2944 30.5928 21.3045C30.5906 21.3232 30.589 21.3387 30.5874 21.3568C30.5858 21.3781 30.5825 21.3984 30.5825 21.4203C30.5728 21.8432 30.2024 22.3173 29.5336 22.7584C27.8121 23.9035 24.5652 24.6149 21.0609 24.6149C18.626 24.6149 16.2907 24.2731 14.4863 23.6523C14.0641 23.5061 13.6037 23.728 13.4584 24.1456C13.3124 24.5632 13.5354 25.0187 13.9564 25.1637C15.9267 25.8416 18.4504 26.2149 21.0609 26.2149C24.9265 26.2149 28.4308 25.4192 30.4312 24.0885C30.5518 24.0091 30.6547 23.9285 30.7602 23.848C30.7301 24.5051 30.638 25.0869 30.6062 25.2693C30.6014 25.2896 30.5987 25.3104 30.5954 25.3312V25.3328C30.5949 25.3349 30.5954 25.3371 30.5949 25.3392C30.5895 25.3765 30.5836 25.4139 30.5836 25.4528C30.5836 25.456 30.5847 25.4592 30.5847 25.4624C30.5847 25.4651 30.5836 25.4677 30.5836 25.4709C30.5777 25.8907 30.2034 26.368 29.5309 26.8144C29.4049 26.8981 29.2692 26.9797 29.1254 27.0587C28.7361 27.2741 28.5967 27.7616 28.8142 28.1472C28.9618 28.4096 29.2369 28.5579 29.5201 28.5579C29.6537 28.5579 29.7888 28.5248 29.9132 28.4565C30.0877 28.36 30.2519 28.2597 30.4075 28.1573C30.4269 28.1456 30.4452 28.1328 30.463 28.1195C30.5701 28.0475 30.6644 27.9744 30.7597 27.9019C30.7424 28.2672 30.7004 28.7429 30.6024 29.344C30.6024 29.3445 30.6024 29.3451 30.6024 29.3451C30.5906 29.3995 30.5836 29.456 30.5836 29.5136C30.5836 29.5163 30.5841 29.5189 30.5847 29.5216C30.5755 29.9365 30.2201 30.4016 29.5794 30.8357C29.5621 30.8453 29.5454 30.856 29.5282 30.8667C27.8116 32.0091 24.5674 32.7184 21.0604 32.7184C20.6215 32.7184 20.2053 32.7045 19.8041 32.6843C19.2571 31.6981 18.5468 30.8171 17.7187 30.0592C18.7811 30.1947 19.9043 30.2677 21.0609 30.2677C23.3935 30.2677 25.6157 29.9787 27.4874 29.4325C27.9161 29.3083 28.1605 28.8635 28.0345 28.4395ZM23.3865 40.7221C23.26 40.7339 23.1361 40.7451 22.9945 40.7541L22.4388 40.7931C22.4254 40.7931 22.3866 40.7947 22.3731 40.7952C22.2902 40.7995 22.2116 40.7989 22.1244 40.8043C21.9494 40.8165 21.7701 40.8203 21.5741 40.8251C21.4077 40.8293 21.2461 40.8293 21.0803 40.8293C20.922 40.8288 20.7513 40.8245 20.5844 40.8213C20.838 40.0427 20.9936 39.2229 21.0534 38.3771C21.0561 38.3771 21.0587 38.3771 21.0614 38.3771C21.4809 38.3771 21.8944 38.3675 22.3015 38.3493C22.7474 38.3291 23.092 37.9547 23.0715 37.5136C23.0516 37.072 22.6687 36.7291 22.2283 36.7509C21.8406 36.7685 21.4427 36.7744 21.0458 36.7739C20.9726 35.9184 20.7927 35.0949 20.5214 34.3109C20.7007 34.3141 20.8767 34.32 21.0614 34.32C24.8964 34.32 28.3721 33.5397 30.379 32.2304C30.3946 32.2219 30.4091 32.2123 30.4237 32.2027C30.4328 32.1968 30.442 32.1899 30.4511 32.1835C30.5642 32.1077 30.6617 32.0315 30.7613 31.9557C30.7441 32.3211 30.7026 32.7984 30.6035 33.4016C30.5917 33.4581 30.5847 33.5163 30.5847 33.5712C30.5847 33.5744 30.5858 33.5776 30.5858 33.5808C30.5685 34.1531 29.9213 34.6645 29.5363 34.9189C29.5234 34.9275 29.5099 34.9365 29.4981 34.9461C29.497 34.9467 29.4959 34.9472 29.4943 34.9483C28.4438 35.6336 26.7869 36.1819 24.8285 36.4917C24.3886 36.5611 24.0881 36.9717 24.1587 37.408C24.2222 37.8016 24.5658 38.0816 24.9551 38.0816C24.9976 38.0816 25.0401 38.0784 25.0837 38.0715C27.2941 37.7216 29.1265 37.1035 30.3731 36.2907C30.3935 36.2779 30.4194 36.2608 30.4447 36.2416C30.5621 36.1637 30.6611 36.0848 30.764 36.0064C30.729 36.8043 30.5997 37.5024 30.5987 37.5104C30.5922 37.5451 30.5917 37.5797 30.5901 37.6139C30.5895 37.6213 30.5874 37.6277 30.5874 37.6352C30.5513 38.8267 27.8611 40.3056 23.3865 40.7221ZM21.0609 14.1259C26.9447 14.1259 30.5626 15.9888 30.5847 17.3317C30.5841 17.3424 30.5836 17.3531 30.5836 17.3643C30.5491 18.7067 26.9344 20.5627 21.0614 20.5627C15.2057 20.5627 11.5969 18.7179 11.5409 17.3765C11.5414 17.3568 11.5414 17.3371 11.5404 17.3173C11.5877 15.9755 15.1987 14.1259 21.0609 14.1259ZM10.6411 28.9013C15.5121 28.9013 19.4746 32.8261 19.4746 37.6507C19.4746 42.4752 15.5121 46.4 10.6411 46.4C5.77074 46.4 1.80821 42.4752 1.80821 37.6507C1.80821 32.8261 5.77074 28.9013 10.6411 28.9013Z" fill="#0288D1"/>
<path d="M10.5451 38.4443H10.641C11.0238 38.4443 11.3895 38.6288 11.6183 38.9371C11.8401 39.2379 11.9026 39.6245 11.7901 39.9947C11.6592 40.3888 11.3221 40.6987 10.9264 40.7867C10.8483 40.8075 10.7621 40.8165 10.6464 40.8165C10.1251 40.8165 9.66315 40.488 9.49623 40.0005C9.39392 39.6896 9.09184 39.48 8.74561 39.48C8.48823 39.48 8.24484 39.6032 8.09353 39.8107C7.939 40.024 7.78015 40.2699 7.85446 40.4917C8.10861 41.2736 8.90769 41.9616 9.54307 42.2699L9.57753 42.2869V43.1771C9.57753 43.5957 10.172 43.9675 10.6405 43.9675C11.1084 43.9675 11.7028 43.5952 11.7028 43.1771V42.2859L11.7395 42.2693C12.2984 42.0203 13.042 41.424 13.3548 40.7035C13.6957 39.9035 13.5858 38.8731 13.0603 37.9461C12.6263 37.1984 11.6878 36.696 10.7245 36.696H10.6405C10.172 36.696 9.8333 36.5424 9.633 36.2395C9.40846 35.9003 9.37507 35.5248 9.53769 35.152C9.682 34.8149 9.99646 34.5664 10.3798 34.4869C10.4644 34.4688 10.5484 34.4688 10.6286 34.4688C11.1531 34.4688 11.6172 34.7995 11.7841 35.2907C11.887 35.6037 12.1934 35.8224 12.5288 35.8224C12.7889 35.8224 13.0345 35.6997 13.1879 35.4901C13.3155 35.3088 13.5088 35.0347 13.4318 34.8059C13.1443 33.9573 12.2612 33.2869 11.7378 33.0432L11.7023 33.0267V32.1189C11.7023 31.7035 11.1078 31.3339 10.6399 31.3339C10.1715 31.3339 9.577 31.7035 9.577 32.1189V33.0277L9.54038 33.0437C8.97123 33.2917 8.22061 33.8976 7.91476 34.6421C7.5723 35.4821 7.71015 36.4533 8.303 37.376C8.73107 38.0443 9.56892 38.4443 10.5451 38.4443Z" fill="#0288D1"/>
<path d="M1.1241 21.3488H6.70848C7.15433 21.3488 7.51618 20.9909 7.51618 20.5488C7.51618 20.1066 7.15433 19.7488 6.70848 19.7488H1.1241C0.678252 19.7488 0.316406 20.1066 0.316406 20.5488C0.316406 20.9909 0.678252 21.3488 1.1241 21.3488Z" fill="#0288D1"/>
<path d="M34.6094 20.5488C34.6094 20.9909 34.9712 21.3488 35.4171 21.3488H41.0014C41.4473 21.3488 41.8091 20.9909 41.8091 20.5488C41.8091 20.1066 41.4473 19.7488 41.0014 19.7488H35.4171C34.9712 19.7488 34.6094 20.1066 34.6094 20.5488Z" fill="#0288D1"/>
<path d="M6.3929 6.01864C6.07737 6.33064 6.07737 6.83731 6.3929 7.14984L10.3414 11.0608C10.4992 11.217 10.706 11.2949 10.9127 11.2949C11.1195 11.2949 11.3263 11.217 11.4841 11.0608C11.7996 10.7488 11.7996 10.2421 11.4841 9.92957L7.53552 6.01864C7.21944 5.70611 6.70844 5.70611 6.3929 6.01864Z" fill="#0288D1"/>
<path d="M20.2539 0.8V6.3312C20.2539 6.77333 20.6158 7.1312 21.0616 7.1312C21.5074 7.1312 21.8693 6.77333 21.8693 6.3312V0.8C21.8693 0.357867 21.5074 0 21.0616 0C20.6158 0 20.2539 0.357867 20.2539 0.8Z" fill="#0288D1"/>
<path d="M35.7316 6.01864C35.416 5.70611 34.905 5.70611 34.5895 6.01864L30.641 9.92957C30.3254 10.2421 30.3254 10.7488 30.641 11.0608C30.7987 11.217 31.0055 11.2949 31.2123 11.2949C31.419 11.2949 31.6258 11.217 31.7836 11.0608L35.7321 7.14984C36.0471 6.83731 36.0471 6.33117 35.7316 6.01864Z" fill="#0288D1"/>
</svg>
