<svg width="126" height="107" viewBox="0 0 126 107" fill="none" xmlns="http://www.w3.org/2000/svg">
<g clip-path="url(#clip0)">
<path d="M125.115 29.6679L123.615 27.0752L117.113 30.8215L106.368 12.2491L112.621 8.64656L111.121 6.05396L102.27 11.1534L104.065 14.2549C102.63 14.3557 101.337 14.4136 100.149 14.4136C96.5868 14.4136 93.7518 13.8956 89.1068 12.8109C88.5798 12.6872 88.0408 12.6243 87.5058 12.6243C82.8808 12.6243 79.7878 17.075 78.6728 18.9891C76.5348 22.6574 75.8518 23.848 75.1708 25.0355C74.5738 26.0753 73.9788 27.1132 72.4018 29.8215L70.2168 28.5282L56.1278 49.7631H46.5238L32.8968 60.3959L32.8998 60.3999H32.8848V72.5616H38.4128V106.158H41.4128V72.5616H98.6008V106.158H101.601V72.5616H107.134V60.3999H107.12L107.135 60.38L93.4458 49.7631H91.1668L95.1788 43.2975L92.0368 41.4394L92.2018 41.3735C94.0498 40.6261 95.7518 40.3796 97.7028 40.5592C98.0708 40.5921 98.4458 40.6101 98.8268 40.6101C101.577 40.6101 104.21 39.688 106.05 38.0804C106.553 37.6423 107.008 37.3 107.571 36.9387L114.585 32.4371L116.017 34.9119L125.115 29.6679ZM104.134 69.5679H35.8848V63.3927H104.134V69.5679ZM92.4168 52.7568L102.27 60.3999H37.7628L47.5568 52.7568H54.1418L52.8098 54.7647H49.7508V57.7584H90.2668V54.7647H88.0638L89.3098 52.7568H92.4168ZM91.0188 44.3164L84.6188 54.6289L56.5098 54.61L71.1448 32.5568L72.9208 33.6087L75.6078 35.4359C73.6798 37.0695 72.9198 39.8157 73.9198 42.2786C74.8458 44.5579 77.0418 46.0308 79.5148 46.0308C80.2878 46.0308 81.0448 45.8841 81.7648 45.5927L88.5428 42.8514L91.0188 44.3164ZM105.947 34.419C105.254 34.864 104.694 35.2842 104.074 35.825C102.773 36.9627 100.86 37.6143 98.8268 37.6143C98.5378 37.6143 98.2528 37.6004 97.9738 37.5754C95.5088 37.3519 93.3728 37.6682 91.0748 38.5973L80.6378 42.8175C79.1318 43.4242 77.3018 42.6349 76.6998 41.154C76.0738 39.6122 76.8218 37.8498 78.3658 37.2241L82.3488 35.6115L92.4528 30.9941C92.8488 30.8135 93.1458 30.4702 93.2678 30.0521C93.3888 29.6349 93.3238 29.1859 93.0858 28.8206L92.8018 28.3835C91.8608 26.9275 90.3888 26.0424 88.6598 25.8937C88.4868 25.8777 88.3148 25.8717 88.1458 25.8717C86.5978 25.8717 85.2148 26.4795 84.1468 27.6301C83.2088 28.639 82.3748 30.1139 81.7048 31.3005C81.3908 31.8563 81.0658 32.4281 80.8418 32.7494C80.3908 33.0189 79.1838 33.5618 78.5148 33.7923L74.9658 31.3783C76.5698 28.621 77.1708 27.5742 77.7748 26.5254C78.4538 25.3408 79.1348 24.1543 81.2668 20.4959C83.0448 17.4423 85.3778 15.6201 87.5058 15.6201C87.8108 15.6201 88.1178 15.656 88.4218 15.7258C93.1928 16.8415 96.3158 17.4093 100.149 17.4093C101.803 17.4093 103.64 17.3006 105.727 17.1309L113.081 29.8405L105.947 34.419ZM85.4098 30.9222C85.7198 30.4412 86.0378 29.9982 86.3478 29.6639C86.8408 29.134 87.4468 28.8645 88.1478 28.8645C88.2308 28.8645 88.3148 28.8675 88.4008 28.8755C88.7428 28.9054 89.0528 28.9903 89.3308 29.13L85.4098 30.9222Z" fill="#0288D1"/>
<path d="M43.9081 18.1847L37.9244 3.64807e-05" stroke="#BFD4C3" stroke-width="3"/>
<path d="M30.4092 40.1391L15.9664 26.4005" stroke="#B3DBF2" stroke-width="3"/>
<path d="M27.9093 54.11L0.643612 62.5741" stroke="#FFCEA8" stroke-width="3"/>
</g>
<defs>
<clipPath id="clip0">
<rect width="126" height="107" fill="white"/>
</clipPath>
</defs>
</svg>
