<svg width="97" height="98" viewBox="0 0 97 98" fill="none" xmlns="http://www.w3.org/2000/svg">
<g clip-path="url(#clip0)">
<path d="M1.48813 49.4212C1.78598 49.2891 2.11692 49.1901 2.44787 49.1901C3.27523 49.1901 4.0695 49.6523 4.56592 50.4446L8.30559 57.0142C8.30559 57.0142 8.66964 56.9152 9.29843 56.8822L6.65087 38.1307C6.31992 36.7442 7.0811 35.3906 8.30559 35.0275L8.60344 34.9615C9.86104 34.6313 11.1517 35.4897 11.5158 36.8762L13.5345 49.025L15.1562 48.7279L13.9317 33.6409C13.7331 32.2214 14.6266 30.9339 15.8842 30.7358L16.0166 30.7688C17.2742 30.6037 18.4656 31.5611 18.6973 32.9477L20.352 48.1667L21.9736 48.2327L21.4772 35.5227C21.4441 35.2586 21.4772 35.0275 21.5103 34.7964C20.4844 27.7976 19.8225 20.2706 19.7563 19.1482C19.2268 16.7712 20.5506 14.3943 22.8341 13.536C24.0917 13.0408 25.5147 13.1398 26.7392 13.734C27.9637 14.3283 28.8573 15.4177 29.2544 16.7052C29.2544 16.7712 29.2875 16.8373 29.2875 16.8703L30.5782 23.9021L29.3868 9.97054C29.3868 9.93753 29.3868 9.93752 29.3868 9.90451C29.2213 7.06539 31.3394 4.62242 34.1524 4.35832C35.5755 4.22626 36.9985 4.65543 38.0907 5.54678C39.1828 6.47115 39.8447 7.72564 39.977 9.17822L40.8375 16.7382L40.4404 5.28268L40.4404 5.18364C40.5397 2.27849 42.8563 0.0335875 45.7686 0.0335877L46.0002 0.0335878C48.9126 0.033588 51.2954 2.37753 51.3285 5.28268L52.222 18.785L52.4868 9.27727C52.4868 9.24425 52.4868 9.17823 52.4868 9.14521C52.6522 7.72565 53.3472 6.47115 54.4724 5.57979C55.5976 4.68844 56.9876 4.29229 58.3776 4.45735L58.8409 4.52338C61.6539 4.85351 63.7389 7.39552 63.5403 10.2016L63.5403 32.4195L66.2872 26.18C66.2872 26.147 66.3203 26.147 66.3203 26.1139C67.5117 23.704 70.2254 22.4825 72.8068 23.2088C75.6529 23.9681 77.3738 26.9063 76.6458 29.8114L76.5465 30.2736C75.7853 33.2448 75.0903 36.1169 74.4284 38.4609L73.2701 47.0773L75.0572 47.2423L78.2343 32.3204C78.5983 30.9669 80.0214 30.1746 81.3783 30.5047L81.5106 30.5377C82.9006 30.8678 83.7611 32.2874 83.397 33.674L80.6833 48.5299L82.4373 49.0251L85.7798 37.1733C86.2763 35.8198 87.7986 35.1595 89.1224 35.6547L89.4202 35.7868C90.744 36.282 91.439 37.7346 90.9426 39.0881L86.3424 57.3774C87.0374 57.5094 87.4346 57.6415 87.4346 57.6415L92.134 51.6001C92.6635 50.9728 93.4578 50.6097 94.252 50.6097C94.7154 50.6097 95.1787 50.7417 95.6089 50.9728C96.8996 51.6991 97.3629 53.3498 96.6679 54.6703C95.1456 57.4764 92.7297 62.0322 91.803 63.3197C90.2476 65.4656 88.7252 67.2813 87.0705 68.6348C85.4158 69.9884 83.6287 70.8797 81.4775 71.2099L80.6833 74.3791C80.7495 74.3791 80.8157 74.4121 80.8488 74.4452C85.3827 76.1288 85.2503 77.8125 85.0849 78.5058C85.0849 78.5388 85.0518 78.6048 85.0518 78.6378L80.22 96.663C80.0214 97.3893 79.3595 97.8845 78.6314 97.8845C78.499 97.8845 78.3336 97.8845 78.2012 97.8184C77.3076 97.5873 76.7781 96.696 77.0429 95.8046L81.1797 80.2885C80.584 80.2555 80.0214 80.1894 79.5581 80.1234C77.2415 79.8263 74.0644 79.199 70.3909 78.2747C69.034 77.9445 67.8095 77.6144 66.6843 77.2843L66.6843 96.2008C66.6843 97.1252 65.9562 97.8514 65.0296 97.8514C64.1029 97.8514 63.3749 97.1252 63.3749 96.2008L63.3749 68.2387C63.3087 68.2717 63.2425 68.2717 63.1763 68.3047C62.6137 68.4368 61.9849 68.5688 61.2237 68.7339C60.5618 68.8659 59.8668 68.998 59.0726 69.13C57.3186 69.4272 55.2336 69.6913 52.917 69.8893C49.5413 70.1534 45.6362 70.2525 41.4001 69.8893C39.3151 69.7243 37.1309 69.4602 34.8805 69.064C34.0862 68.932 33.2919 68.7669 32.4977 68.6018C32.2991 68.5688 32.1336 68.5028 31.9351 68.4698L31.9351 96.2008C31.9351 97.1252 31.207 97.8514 30.2803 97.8514C29.3537 97.8514 28.6256 97.1252 28.6256 96.2008L28.6256 78.3737C26.8716 78.7699 24.6212 79.166 21.9074 79.5622C18.4987 80.0244 15.5864 80.2885 13.4352 80.2885L13.1705 80.2885C12.8726 80.2885 12.5086 80.2885 12.1446 80.2555L14.4943 95.9367C14.6266 96.828 13.9978 97.6864 13.1043 97.8184C13.005 97.8184 12.9388 97.8184 12.8726 97.8184C12.0784 97.8184 11.3503 97.2242 11.251 96.3989L8.50416 78.1756L8.50416 78.1096C8.50416 78.0766 8.50416 78.0766 8.50416 78.0436C8.50416 78.0106 8.50416 77.9775 8.50416 77.9445C8.50416 77.9115 8.50416 77.8785 8.50416 77.8455C8.43797 76.3599 9.86103 75.2044 12.7733 74.4121C12.8395 74.3791 12.9057 74.3791 13.005 74.3791L12.5417 71.1438C10.6553 70.5496 9.09986 69.4602 7.70989 67.9085C6.31993 66.3899 5.09542 64.4092 3.87093 62.0652C3.14285 60.6787 1.32265 55.8588 0.197437 52.8876C-0.298977 51.5671 0.230534 50.0154 1.48813 49.4212ZM23.0327 18.4879C23.0657 18.587 23.0657 18.653 23.0657 18.752C23.0657 18.8841 23.6615 26.0149 24.6212 32.9807C25.2169 37.2064 25.9119 41.366 26.7392 43.809C26.8054 44.0401 26.8716 44.2381 26.9709 44.4362C27.6328 46.1529 28.2285 47.5395 28.8573 48.6949C30.148 51.0719 31.5048 52.5575 33.6891 54.2741C34.0862 54.6043 34.5164 54.9344 34.9798 55.2645C35.41 55.5616 35.6417 56.0568 35.6417 56.5851L35.6417 65.7957C37.8259 66.1919 39.977 66.456 42.0289 66.588C43.5512 66.621 45.3053 66.6541 47.2909 66.6541C49.0449 66.6541 50.6335 66.621 52.0896 66.588C54.4393 66.423 56.5574 66.1589 58.3445 65.8617L58.3445 57.1793C58.3445 56.519 58.7416 55.9248 59.3373 55.6607C59.4697 55.5947 59.6352 55.5286 59.7676 55.4626C62.8122 54.0761 65.0296 51.6991 66.8498 48.5959C67.1145 48.1337 67.3793 47.6715 67.644 47.1763C68.4052 45.6907 69.1333 44.0401 69.8283 42.2904C70.4571 40.6727 71.7809 35.5557 72.8068 31.5281C73.0054 30.8018 73.1708 30.1085 73.3363 29.4483L73.4687 28.9861C73.7665 27.7976 73.0715 26.6422 71.9132 26.312C70.8873 26.0149 69.7952 26.5101 69.2988 27.4675L65.3605 36.381L64.9303 37.3384C64.6324 37.9987 63.9375 38.3948 63.2094 38.3288C63.2094 38.3288 62.5806 38.2628 61.5878 38.3618C60.7604 38.4609 59.6352 38.6589 58.4438 39.1211C57.0207 39.7154 55.9617 40.4086 55.9286 40.4086C55.1674 40.9038 54.1415 40.7057 53.6451 39.9464C53.1487 39.1871 53.3472 38.1637 54.1084 37.6685C55.2998 36.8762 56.4912 36.315 57.5833 35.9188C58.3776 35.6217 59.2711 35.3576 60.1978 35.1926L60.2309 10.1026C60.2309 10.0696 60.2309 10.0036 60.2309 9.93753C60.3302 8.8481 59.5359 7.89071 58.4769 7.75866L58.0136 7.69263C57.484 7.62661 56.9545 7.79168 56.5243 8.12181C56.1272 8.45194 55.8624 8.91412 55.7962 9.40932L55.2998 26.6422C55.2998 27.0713 55.1012 27.5005 54.7703 27.7976C54.4393 28.0947 54.0091 28.2598 53.5789 28.2598L50.9975 28.1938C50.1371 28.1608 49.4421 27.5005 49.409 26.6422L48.019 5.41473C48.019 5.38172 48.019 5.3487 48.019 5.31568C48.019 4.22625 47.1255 3.30189 46.0002 3.30189L45.8017 3.30189C44.7096 3.30189 43.8491 4.12722 43.7829 5.21665L44.5441 26.6091C44.5772 27.4345 43.9815 28.1608 43.1541 28.2928L40.6389 28.689C40.2087 28.755 39.7454 28.656 39.3813 28.3919C39.0173 28.1277 38.7856 27.6986 38.7525 27.2694L36.7338 9.50835C36.7338 9.47534 36.7338 9.47534 36.7338 9.44233C36.7007 8.91413 36.4359 8.41892 36.0057 8.05578C35.5755 7.69263 35.0791 7.56058 34.5165 7.59359C33.4574 7.69264 32.6632 8.617 32.7293 9.67342L34.5495 30.8348C34.6157 31.5611 34.2186 32.2214 33.5567 32.4855L31.1077 33.5419C30.6444 33.74 30.1149 33.707 29.6847 33.4759C29.2544 33.2448 28.9235 32.8156 28.8242 32.3204L26.0773 17.5305C25.945 17.1344 25.6471 16.8043 25.2831 16.6392C24.8859 16.4411 24.4226 16.4081 23.9924 16.5732C23.2643 16.9033 22.8341 17.6956 23.0327 18.4879Z" fill="#B3DBF2"/>
</g>
<defs>
<clipPath id="clip0">
<rect width="97" height="97.8509" fill="white" transform="translate(97 97.8508) rotate(-180)"/>
</clipPath>
</defs>
</svg>
