<svg width="124" height="106" viewBox="0 0 124 106" fill="none" xmlns="http://www.w3.org/2000/svg">
<circle r="5" transform="matrix(0.931917 -0.362717 0.362563 0.931941 116.36 39.8057)" fill="#FFCEA8" stroke="#FFCEA8"/>
<circle r="2.5" transform="matrix(0.931917 -0.362717 0.362563 0.931941 81.3151 29.2246)" fill="#BFD4C3" stroke="#BFD4C3"/>
<circle r="5" transform="matrix(0.931917 -0.362717 0.362563 0.931941 94.9556 10.5024)" fill="#B3DBF2" stroke="#B3DBF2"/>
<path d="M30.5445 101.12C30.6248 102.566 31.5892 103.772 32.8751 104.254C33.2769 104.415 33.6788 104.495 34.0806 104.495C35.045 104.495 36.0094 104.093 36.7327 103.29L43.805 95.494L57.3067 104.897C57.9496 105.299 58.6729 105.54 59.4766 105.54C61.2446 105.54 62.7716 104.254 63.1734 102.566L75.9518 42.2107C76.1125 41.4874 75.8714 40.6837 75.2285 40.2015C74.6659 39.7193 73.8622 39.639 73.1389 39.8801L2.25533 70.9017C0.808721 71.5446 -0.075315 72.9912 0.00505192 74.5986C0.0854188 76.2059 1.13019 77.4918 2.65716 77.974L29.7408 86.1714L30.5445 101.12ZM34.5628 99.8338L34.0003 88.6628L40.5903 93.2437L34.5628 99.8338ZM59.3962 101.361L34.8039 84.4033L70.4868 48.8008L59.3962 101.361ZM66.2274 47.3542L31.107 82.3942L4.42523 74.3575L66.2274 47.3542Z" fill="#0288D1"/>
</svg>
