<svg width="160" height="107" viewBox="0 0 160 107" fill="none" xmlns="http://www.w3.org/2000/svg">
<path d="M75.9115 54.7484C75.556 52.7868 73.7782 51.5384 72.0004 51.5384C71.6448 51.5384 71.2893 51.5384 70.9337 51.7168L68.2671 52.4301L71.2893 50.6468C73.0671 49.5768 73.7782 47.0801 72.5337 45.2968L69.8671 40.8384C69.3337 39.9468 68.4448 39.2334 67.3782 39.0551C67.9115 38.5201 68.4448 37.8068 68.6226 37.0934C68.9782 35.8451 68.8004 34.4184 67.9115 33.1701L65.7782 29.9601C64.8893 28.8901 63.6448 28.1768 62.4004 28.1768C62.0448 28.1768 61.6893 28.1768 61.156 28.3551L56.8893 29.6034C51.2004 31.2084 47.8226 37.2718 49.4226 42.9784L50.8448 47.7934L40.7115 54.0351L38.0448 51.1818C36.0893 48.8634 33.0671 47.6151 30.0448 47.6151C27.3782 47.6151 24.8893 48.6851 22.9337 50.2901L4.08929 67.4101C-0.355159 71.3334 -0.710715 78.2884 3.2004 82.5684L14.0448 94.5168C16.0004 96.8351 19.0226 98.0834 22.0448 98.0834C24.7115 98.0834 27.2004 97.1917 29.156 95.4084L48.1782 78.2884C50.3115 76.3268 51.556 73.6518 51.7337 70.7984C51.9115 68.3018 51.2004 65.8051 49.6004 63.8434L54.756 60.6334C56.5337 64.0218 60.2671 66.1618 64.1782 66.1618C65.0671 66.1618 66.1337 65.9834 67.0226 65.8051L73.7782 64.2001C75.9115 63.6651 77.156 61.5251 76.8004 59.3851L75.9115 54.7484ZM29.6893 65.4484L32.356 69.9068C33.0671 71.1551 34.3115 71.8684 35.7337 71.8684C36.0893 71.8684 36.4448 71.8684 36.9782 71.6901L22.2226 85.0651L13.8671 75.6134L30.2226 60.9901C29.8671 61.5251 29.5115 62.0601 29.5115 62.5951C28.9782 63.4868 29.156 64.5568 29.6893 65.4484ZM53.3337 56.5318L46.756 60.6334L43.0226 62.9518L39.6448 65.0918L35.9115 67.4101L33.6004 63.4868L36.6226 61.7034L40.0004 59.5634L43.7337 57.2451L52.0893 52.0734L55.8226 49.7551L59.3782 47.6151L63.1115 45.2968L66.3115 43.3351L68.6226 47.2584L64.356 49.9334L60.6226 52.2518L57.0671 54.3918L53.3337 56.5318ZM53.5115 41.7301C52.6226 38.3418 54.5782 34.7751 57.956 33.7051L62.2226 32.4568L64.5337 35.6668L60.4448 37.2718C58.4893 37.8068 57.2448 39.9468 57.7782 42.0868L58.1337 43.5134L54.5782 45.6534L53.5115 41.7301ZM47.4671 70.6201C47.2893 72.4034 46.5782 74.0084 45.3337 75.0784L26.3115 92.1984C25.0671 93.2684 23.6448 93.8034 22.0448 93.8034C20.2671 93.8034 18.4893 93.0901 17.2448 91.6634L6.4004 79.7151C4.08929 77.0401 4.26706 72.9384 6.93373 70.6201L25.956 53.5001C27.2004 52.4301 28.6226 51.8951 30.2226 51.8951C32.0004 51.8951 33.7782 52.6084 35.0226 54.0351L37.156 56.3534L33.7782 58.4934L33.0671 57.7801C32.356 56.8884 31.2893 56.5318 30.2226 56.5318C29.3337 56.5318 28.2671 56.8884 27.556 57.6018L10.6671 72.5818C9.06706 74.0084 8.88929 76.5051 10.3115 78.1101L19.2004 88.0968C19.9115 88.9884 20.9782 89.3451 22.0448 89.3451C22.9337 89.3451 24.0004 88.9884 24.7115 88.2751L41.6004 72.9384C43.0226 71.6901 43.2004 69.7284 42.3115 68.1234L45.8671 65.9834C46.9337 67.4101 47.4671 69.0151 47.4671 70.6201ZM66.1337 61.7034C65.4226 61.8818 64.8893 62.0601 64.356 62.0601C61.8671 62.0601 59.7337 60.6334 58.6671 58.4934L62.4004 56.1751C63.1115 57.0668 64.1782 57.6018 65.4226 57.6018C65.7782 57.6018 66.1337 57.6018 66.4893 57.4234L72.0004 55.8184L72.8893 60.0984L66.1337 61.7034Z" fill="#0288D1"/>
<path d="M157.157 78.4668L141.512 58.4935C139.557 55.8185 136.357 54.3918 133.157 54.3918C130.668 54.3918 128.357 55.2835 126.401 56.7101L123.379 59.0285L111.112 48.3285L112.89 42.0868C114.49 36.3801 111.112 30.4951 105.423 28.8901L100.445 27.1068C99.9121 26.9285 99.5566 26.9285 99.0232 26.9285C97.2455 26.9285 95.6455 28.1768 94.9344 29.7818L93.5121 33.8835C93.1566 34.9535 93.1566 36.2018 93.6899 37.2718C94.2232 38.3418 95.2899 39.0551 96.3566 39.4118L99.0232 40.1251C98.3121 40.3035 97.601 40.8385 97.0677 41.3735L93.6899 45.2968C92.2677 46.9018 92.4455 49.3985 94.0455 50.8251L95.6455 52.2518C94.401 51.8951 93.1566 51.5385 91.9121 51.3601C91.5566 51.3601 91.201 51.1818 90.8455 51.1818C88.5343 51.1818 86.5788 52.9651 86.2232 55.2835L85.8677 58.6718C85.5121 60.9901 87.2899 63.3085 89.601 63.8435C91.3788 64.2001 93.3343 64.5568 95.1121 65.0918C96.001 65.2701 97.0677 65.4485 97.9566 65.4485C101.157 65.4485 104.179 64.0218 106.312 61.5251L112.89 67.2318C108.979 70.9768 108.445 77.2185 111.823 81.6768L127.468 101.65C129.423 104.325 132.623 105.752 135.823 105.752C138.312 105.752 140.623 104.86 142.579 103.433L155.201 93.2685C160.001 89.8801 160.89 83.1035 157.157 78.4668ZM101.69 51.8951L98.1344 48.8635L97.2455 48.1501L98.8455 46.3668L100.268 44.7618L103.112 47.2585L106.49 50.1118L110.045 53.1435L120.179 62.0601L123.379 64.9135L126.401 67.5885L129.068 69.9068L126.045 73.2951L122.668 70.4418L119.645 67.7668L116.445 64.9135L108.445 57.9585L104.89 54.9268L101.69 51.8951ZM126.045 77.5751C127.112 77.5751 128.357 77.0401 129.068 76.1485L132.445 72.2251C133.512 70.9768 133.69 69.1935 132.979 67.7668L146.49 84.8868L136.534 92.7335L124.268 77.2185C124.801 77.5751 125.334 77.5751 126.045 77.5751ZM97.601 35.4885L97.0677 37.6285L97.601 35.4885L99.0232 31.3868L104.179 33.1701H104.357C107.734 34.0618 109.868 37.6285 108.801 41.1951L107.557 45.4751L104.179 42.6218L104.534 41.5518C105.068 39.4118 103.823 37.2718 101.868 36.7368L97.601 35.4885ZM98.1344 61.5251C97.601 61.5251 96.8899 61.5251 96.3566 61.3468C94.401 60.8118 92.4455 60.4551 90.6677 59.9201C90.4899 59.9201 90.3121 59.7418 90.3121 59.5635L90.6677 56.1751C90.6677 55.9968 90.8455 55.8185 91.0232 55.8185C91.0232 55.8185 91.0232 55.8185 91.201 55.8185C92.4455 55.9968 93.6899 56.3535 94.7566 56.7101L96.1788 57.0668C96.5343 57.2451 96.8899 57.2451 97.2455 57.2451C98.3121 57.2451 99.201 56.8885 99.9121 56.1751L103.29 59.0285C102.045 60.6335 100.268 61.5251 98.1344 61.5251ZM152.89 90.2368L140.268 100.402C139.201 101.293 137.779 101.828 136.179 101.828C134.223 101.828 132.268 100.937 131.201 99.3318L115.557 79.3585C113.423 76.6835 113.779 72.7601 116.445 70.4418L119.468 73.1168C118.401 74.5435 118.401 76.5051 119.468 77.9318L133.512 95.7651C134.223 96.6568 135.29 97.1918 136.534 97.1918C137.423 97.1918 138.312 96.8351 139.023 96.3001L149.512 87.9185C151.112 86.6701 151.468 84.1735 150.045 82.5685L136.001 64.7351C135.29 63.8435 134.223 63.3085 132.979 63.3085C132.09 63.3085 131.201 63.6651 130.49 64.2001L129.779 64.7351L126.757 62.0601L129.068 60.0985C130.134 59.2068 131.557 58.6718 133.157 58.6718C135.112 58.6718 137.068 59.5635 138.134 61.1685L153.779 81.1418C156.09 83.9951 155.557 88.0968 152.89 90.2368Z" fill="#0288D1"/>
<path d="M66.8455 69.7284L57.0677 78.8234C56.1788 79.5368 56.1788 80.9634 56.8899 81.8551C57.2455 82.3901 57.9566 82.5684 58.4899 82.5684C59.0233 82.5684 59.5566 82.3901 59.9121 82.0334L69.6899 72.9384C70.5788 72.2251 70.5788 70.7984 69.8677 69.9068C69.1566 68.8368 67.7344 68.8368 66.8455 69.7284Z" fill="#BFD4C3"/>
<path d="M81.2447 72.9384C80.0002 72.9384 79.1113 73.83 79.1113 75.0783V87.0267C79.1113 88.275 80.0002 89.1667 81.2447 89.1667C82.4891 89.1667 83.378 88.275 83.378 87.0267V75.0783C83.378 73.83 82.3113 72.9384 81.2447 72.9384Z" fill="#B3DBF2"/>
<path d="M95.8235 71.3334C95.1124 70.4417 93.6901 70.2634 92.8012 71.1551C91.9124 71.8684 91.7346 73.2951 92.6235 74.1867L97.6012 80.0718C97.9568 80.6068 98.6679 80.7851 99.2012 80.7851C99.7346 80.7851 100.268 80.6067 100.623 80.2501C101.512 79.5367 101.69 78.1101 100.801 77.2184L95.8235 71.3334Z" fill="#FFCEA8"/>
<path d="M89.7787 24.2534C90.1343 24.6101 90.6676 24.7884 91.0232 24.7884C91.7343 24.7884 92.2676 24.4317 92.6232 24.0751L100.801 13.9101C101.512 13.0184 101.334 11.5917 100.445 10.8784C99.5565 10.1651 98.1343 10.3434 97.4232 11.2351L89.4232 21.4001C88.7121 22.2917 88.8898 23.5401 89.7787 24.2534Z" fill="#BFD4C3"/>
<path d="M65.2447 25.68C65.6003 26.0367 66.1336 26.3934 66.8447 26.3934C67.378 26.3934 67.9114 26.215 68.2669 25.8584C69.1558 24.9667 69.1558 23.7184 68.2669 22.8267L60.6225 15.1584C59.7336 14.2667 58.4891 14.2667 57.6003 15.1584C56.7114 16.05 56.7114 17.2984 57.6003 18.19L65.2447 25.68Z" fill="#FFCEA8"/>
<path d="M80.3555 19.9734C81.6 19.7951 82.4889 18.9034 82.3111 17.6551L81.0667 2.85341C80.8889 1.60508 80 0.713408 78.7555 0.891741C77.5111 1.07007 76.6222 1.96174 76.8 3.21007L78.0444 18.0117C78.2222 19.0817 79.1111 19.9734 80.3555 19.9734C80.1778 19.9734 80.3555 19.9734 80.3555 19.9734Z" fill="#B3DBF2"/>
</svg>
