<svg width="150" height="143" viewBox="0 0 150 143" fill="none" xmlns="http://www.w3.org/2000/svg">
<g clip-path="url(#clip0)">
<path d="M31.6678 19.2895C36.8308 17.8283 125.336 24.1256 124.815 29.0808C124.295 34.0361 123.865 119.16 115.025 122.239C106.186 125.318 26.5466 120.454 21.8776 112.448C17.2087 104.442 26.5049 20.7507 31.6678 19.2895Z" fill="white" stroke="#0288D1" stroke-width="2"/>
<path d="M49.3443 23.9161C49.3443 36.5724 39.0855 46.8322 26.4309 46.8322C13.7763 46.8322 3.51758 36.5724 3.51758 23.9161C3.51758 11.2598 13.7763 1 26.4309 1C39.0855 1 49.3443 11.2598 49.3443 23.9161Z" fill="#E5F3FA" stroke="#0288D1" stroke-width="2"/>
<path d="M30.9134 19.4318C30.9134 22.1827 28.6837 24.4126 25.9333 24.4126C23.1829 24.4126 20.9531 22.1827 20.9531 19.4318C20.9531 16.681 23.1829 14.451 25.9333 14.451C28.6837 14.451 30.9134 16.681 30.9134 19.4318Z" fill="white" stroke="#0288D1"/>
<path d="M14.6263 43.1317C14.6552 43.0554 14.686 42.9716 14.7183 42.8813C14.8499 42.5142 15.0188 42.0106 15.2182 41.4155L15.2303 41.3793C15.6292 40.1888 16.1548 38.6199 16.7741 36.9579C17.4002 35.2779 18.1188 33.5117 18.894 31.9535C19.674 30.3855 20.4919 29.0686 21.3049 28.2555C22.9304 26.6298 24.6368 26.3016 26.1063 26.5277C27.6046 26.7582 28.8811 27.5713 29.5652 28.2555C29.7079 28.3982 29.9536 28.7347 30.29 29.2633C30.6174 29.778 31.0079 30.4376 31.4381 31.1934C32.298 32.7042 33.307 34.5825 34.2713 36.418C35.2352 38.2527 36.1527 40.0412 36.8293 41.3712C37.1676 42.0362 37.4456 42.5864 37.639 42.9703C37.6846 43.0608 37.7255 43.1421 37.7614 43.2135L35.1808 45.3166L29.8713 46.3355H23.0019L18.6399 45.3125L14.6263 43.1317Z" fill="white" stroke="#0288D1"/>
<path d="M148.983 23.9161C148.983 36.5724 138.724 46.8322 126.07 46.8322C113.415 46.8322 103.156 36.5724 103.156 23.9161C103.156 11.2598 113.415 1 126.07 1C138.724 1 148.983 11.2598 148.983 23.9161Z" fill="#E5F3FA" stroke="#0288D1" stroke-width="2"/>
<path d="M130.552 19.4318C130.552 22.1827 128.322 24.4126 125.572 24.4126C122.822 24.4126 120.592 22.1827 120.592 19.4318C120.592 16.681 122.822 14.451 125.572 14.451C128.322 14.451 130.552 16.681 130.552 19.4318Z" fill="white" stroke="#0288D1"/>
<path d="M114.265 43.1317C114.294 43.0554 114.325 42.9716 114.357 42.8813C114.489 42.5142 114.657 42.0106 114.857 41.4155L114.869 41.3793C115.268 40.1888 115.793 38.6199 116.413 36.9579C117.039 35.2779 117.757 33.5117 118.533 31.9535C119.313 30.3855 120.131 29.0686 120.944 28.2555C122.569 26.6298 124.275 26.3016 125.745 26.5277C127.243 26.7582 128.52 27.5713 129.204 28.2555C129.347 28.3982 129.592 28.7347 129.929 29.2633C130.256 29.778 130.647 30.4376 131.077 31.1934C131.937 32.7042 132.946 34.5825 133.91 36.418C134.874 38.2527 135.791 40.0412 136.468 41.3712C136.806 42.0362 137.084 42.5864 137.278 42.9703C137.323 43.0608 137.364 43.1421 137.4 43.2135L134.82 45.3166L129.51 46.3355H122.641L118.279 45.3125L114.265 43.1317Z" fill="white" stroke="#0288D1"/>
<path d="M143.004 115.595C143.004 128.251 132.746 138.511 120.091 138.511C107.437 138.511 97.1777 128.251 97.1777 115.595C97.1777 102.938 107.437 92.6785 120.091 92.6785C132.746 92.6785 143.004 102.938 143.004 115.595Z" fill="#E0F4FC" stroke="#0288D1" stroke-width="2"/>
<path d="M124.574 111.111C124.574 113.861 122.344 116.091 119.593 116.091C116.843 116.091 114.613 113.861 114.613 111.111C114.613 108.36 116.843 106.13 119.593 106.13C122.344 106.13 124.574 108.36 124.574 111.111Z" fill="white" stroke="#0288D1"/>
<path d="M108.286 134.811C108.315 134.734 108.346 134.651 108.378 134.56C108.51 134.193 108.679 133.69 108.878 133.094L108.89 133.058C109.289 131.868 109.815 130.299 110.434 128.637C111.06 126.957 111.779 125.191 112.554 123.632C113.334 122.065 114.152 120.748 114.965 119.935C116.591 118.309 118.297 117.981 119.766 118.207C121.265 118.437 122.541 119.25 123.225 119.934C123.368 120.077 123.614 120.414 123.95 120.942C124.278 121.457 124.668 122.117 125.098 122.872C125.958 124.383 126.967 126.261 127.931 128.097C128.895 129.932 129.813 131.72 130.489 133.05C130.828 133.715 131.106 134.265 131.299 134.649C131.345 134.74 131.386 134.821 131.422 134.892L128.841 136.996L123.531 138.014H116.662L112.3 136.991L108.286 134.811Z" fill="white" stroke="#0288D1"/>
<ellipse rx="23.9134" ry="23.9161" transform="matrix(0.994482 0.104903 -0.104155 0.994561 26.2729 115.725)" fill="white"/>
<path d="M49.9847 111.439C50.1038 112.12 50.1942 112.81 50.2546 113.508L49.2583 113.595C49.3152 114.253 49.3443 114.92 49.3443 115.594C49.3443 116.268 49.3152 116.935 49.2583 117.594L50.2546 117.68C50.1942 118.379 50.1038 119.069 49.9847 119.749L48.9997 119.577C48.7669 120.906 48.4198 122.195 47.9687 123.434L48.9084 123.776C48.6694 124.433 48.4025 125.076 48.1091 125.704L47.2031 125.281C46.6361 126.495 45.9657 127.651 45.2031 128.738L46.0218 129.313C45.6218 129.883 45.1976 130.435 44.7506 130.967L43.9848 130.324C43.1268 131.346 42.1812 132.291 41.1596 133.15L41.8029 133.915C41.2707 134.362 40.7188 134.787 40.1486 135.187L39.5742 134.368C38.4871 135.131 37.3308 135.802 36.1168 136.369L36.5401 137.275C35.9119 137.568 35.2689 137.835 34.6125 138.074L34.2703 137.135C33.0311 137.586 31.742 137.933 30.4133 138.166L30.5858 139.151C29.9056 139.27 29.2156 139.36 28.5169 139.421L28.4308 138.424C27.772 138.481 27.105 138.511 26.4309 138.511C25.7569 138.511 25.0899 138.481 24.4311 138.424L24.345 139.421C23.6463 139.36 22.9562 139.27 22.276 139.151L22.4486 138.166C21.1199 137.933 19.8307 137.586 18.5916 137.135L18.2494 138.074C17.5929 137.835 16.9499 137.568 16.3217 137.275L16.745 136.369C15.531 135.802 14.3748 135.131 13.2876 134.368L12.7133 135.187C12.1431 134.787 11.5912 134.362 11.059 133.915L11.7022 133.15C10.6807 132.291 9.73508 131.346 8.87702 130.324L8.11124 130.967C7.66426 130.435 7.24004 129.883 6.84008 129.313L7.65879 128.738C6.89621 127.651 6.22579 126.495 5.65877 125.281L4.75272 125.704C4.45933 125.076 4.19243 124.433 3.95348 123.776L4.89316 123.434C4.44209 122.195 4.09491 120.906 3.86218 119.577L2.87717 119.749C2.75804 119.069 2.66764 118.379 2.60728 117.68L3.60357 117.594C3.54665 116.935 3.51758 116.268 3.51758 115.594C3.51758 114.92 3.54665 114.253 3.60357 113.595L2.60728 113.508C2.66764 112.81 2.75804 112.12 2.87717 111.439L3.86218 111.612C4.09491 110.283 4.44208 108.994 4.89316 107.755L3.95347 107.413C4.19243 106.756 4.45933 106.113 4.75271 105.485L5.65877 105.908C6.22579 104.694 6.89621 103.538 7.65879 102.45L6.84008 101.876C7.24004 101.306 7.66426 100.754 8.11124 100.222L8.87702 100.865C9.73508 99.8431 10.6807 98.8974 11.7022 98.0391L11.059 97.2735C11.5912 96.8264 12.1431 96.4021 12.7133 96.002L13.2876 96.8206C14.3748 96.0579 15.531 95.3873 16.745 94.8201L16.3217 93.9141C16.9499 93.6207 17.5929 93.3537 18.2494 93.1147L18.5916 94.0543C19.8307 93.6031 21.1199 93.2558 22.4486 93.023L22.276 92.038C22.9562 91.9188 23.6463 91.8284 24.345 91.768L24.4311 92.7643C25.0899 92.7074 25.7569 92.6783 26.4309 92.6783C27.105 92.6783 27.772 92.7074 28.4308 92.7643L28.5169 91.768C29.2156 91.8284 29.9056 91.9188 30.5858 92.038L30.4133 93.023C31.742 93.2558 33.0311 93.6031 34.2703 94.0543L34.6125 93.1146C35.2689 93.3537 35.9119 93.6207 36.5401 93.9141L36.1168 94.8201C37.3308 95.3873 38.4871 96.0579 39.5742 96.8206L40.1486 96.002C40.7188 96.4021 41.2707 96.8264 41.8029 97.2735L41.1596 98.0391C42.1812 98.8974 43.1268 99.8431 43.9848 100.865L44.7506 100.222C45.1976 100.754 45.6218 101.306 46.0218 101.876L45.2031 102.45C45.9656 103.538 46.6361 104.694 47.2031 105.908L48.1091 105.485C48.4025 106.113 48.6694 106.756 48.9084 107.413L47.9687 107.755C48.4198 108.994 48.7669 110.283 48.9997 111.612L49.9847 111.439Z" stroke="#0288D1" stroke-width="2" stroke-dasharray="4 2"/>
<path d="M17.8301 114.83C22.2613 115.296 25.6598 115.653 30.0677 116.117C32.8363 116.408 31.4126 116.258 34.1811 116.549" stroke="#0288D1" stroke-width="2" stroke-linecap="round" stroke-linejoin="round"/>
<path d="M26.2188 106.497C26.7232 111.68 25.9803 114.644 25.4398 119.787C25.3123 121 25.1848 122.213 25.0573 123.426C24.9765 124.196 24.9029 124.896 24.9029 124.896" stroke="#0288D1" stroke-width="2" stroke-linecap="round" stroke-linejoin="round"/>
</g>
<defs>
<clipPath id="clip0">
<rect width="149.983" height="142.019" fill="white"/>
</clipPath>
</defs>
</svg>
