<svg width="156" height="154" viewBox="0 0 156 154" fill="none" xmlns="http://www.w3.org/2000/svg">
<path d="M25.0693 39.2417C29.6949 36.4842 117.13 19.5984 117.912 24.5368C118.694 29.4753 140.386 112.099 132.617 117.38C124.847 122.66 46.3797 138.632 39.7741 132.084C33.1686 125.537 20.4437 41.9992 25.0693 39.2417Z" fill="white" stroke="#0288D1" stroke-width="2" stroke-dasharray="4 2"/>
<circle cx="24" cy="36.0005" r="23" fill="#E5F3FA" stroke="#0288D1" stroke-width="2"/>
<circle cx="23.5" cy="31.5005" r="5" fill="white" stroke="#0288D1"/>
<path d="M12.1498 55.2845C12.179 55.2076 12.2101 55.123 12.2427 55.0319C12.3748 54.6635 12.5443 54.1581 12.7444 53.5609L12.7566 53.5246C13.1569 52.3299 13.6844 50.7556 14.306 49.0877C14.9343 47.4018 15.6555 45.6293 16.4336 44.0655C17.2164 42.4921 18.0375 41.1703 18.8536 40.3542C20.4854 38.7223 22.1986 38.3928 23.674 38.6198C25.1782 38.8512 26.4596 39.6673 27.1464 40.3542C27.2898 40.4975 27.5365 40.8353 27.8741 41.3658C28.2027 41.8823 28.5947 42.5442 29.0264 43.3027C29.8895 44.8189 30.9021 46.7037 31.8699 48.5456C32.8373 50.3868 33.7581 52.1816 34.4372 53.5163C34.7767 54.1836 35.0557 54.7357 35.2498 55.121C35.2958 55.2123 35.3371 55.2943 35.3732 55.3662L32.7819 57.478L27.4525 58.5005H20.5578L16.1796 57.4738L12.1498 55.2845Z" fill="white" stroke="#0288D1"/>
<circle cx="120" cy="24" r="23" fill="#E5F3FA" stroke="#0288D1" stroke-width="2"/>
<circle cx="119.5" cy="19.5" r="5" fill="white" stroke="#0288D1"/>
<path d="M108.15 43.284C108.179 43.2071 108.21 43.1225 108.243 43.0314C108.375 42.663 108.544 42.1576 108.744 41.5604L108.757 41.5241C109.157 40.3294 109.684 38.7551 110.306 37.0872C110.934 35.4013 111.656 33.6288 112.434 32.065C113.216 30.4916 114.037 29.1698 114.854 28.3537C116.485 26.7218 118.199 26.3923 119.674 26.6193C121.178 26.8507 122.46 27.6668 123.146 28.3537C123.29 28.497 123.536 28.8348 123.874 29.3653C124.203 29.8818 124.595 30.5437 125.026 31.3022C125.889 32.8184 126.902 34.7032 127.87 36.5452C128.837 38.3863 129.758 40.1811 130.437 41.5158C130.777 42.1831 131.056 42.7352 131.25 43.1205C131.296 43.2119 131.337 43.2939 131.373 43.3658L128.782 45.4775L123.452 46.5H116.558L112.18 45.4733L108.15 43.284Z" fill="white" stroke="#0288D1"/>
<circle cx="132" cy="118" r="23" fill="#E5F3FA" stroke="#0288D1" stroke-width="2"/>
<circle cx="131.5" cy="113.5" r="5" fill="white" stroke="#0288D1"/>
<path d="M120.15 137.284C120.179 137.208 120.21 137.123 120.243 137.032C120.375 136.664 120.544 136.158 120.744 135.561L120.757 135.525C121.157 134.33 121.684 132.756 122.306 131.088C122.934 129.402 123.656 127.629 124.434 126.066C125.216 124.492 126.037 123.17 126.854 122.354C128.485 120.722 130.199 120.393 131.674 120.62C133.178 120.851 134.46 121.667 135.146 122.354C135.29 122.498 135.536 122.835 135.874 123.366C136.203 123.882 136.595 124.544 137.026 125.303C137.889 126.819 138.902 128.704 139.87 130.546C140.837 132.387 141.758 134.182 142.437 135.516C142.777 136.184 143.056 136.736 143.25 137.121C143.296 137.212 143.337 137.294 143.373 137.366L140.782 139.478L135.452 140.5H128.558L124.18 139.474L120.15 137.284Z" fill="white" stroke="#0288D1"/>
<circle cx="38" cy="130" r="23" fill="#E5F3FA" stroke="#0288D1" stroke-width="2"/>
<circle cx="37.5" cy="125.5" r="5" fill="white" stroke="#0288D1"/>
<path d="M26.1498 149.284C26.179 149.208 26.2101 149.123 26.2427 149.032C26.3748 148.664 26.5443 148.158 26.7444 147.561L26.7566 147.525C27.1569 146.33 27.6844 144.756 28.306 143.088C28.9343 141.402 29.6555 139.629 30.4336 138.066C31.2164 136.492 32.0375 135.17 32.8536 134.354C34.4854 132.722 36.1986 132.393 37.674 132.62C39.1782 132.851 40.4596 133.667 41.1464 134.354C41.2898 134.498 41.5365 134.835 41.8741 135.366C42.2027 135.882 42.5947 136.544 43.0264 137.303C43.8895 138.819 44.9021 140.704 45.8699 142.546C46.8373 144.387 47.7581 146.182 48.4372 147.516C48.7767 148.184 49.0557 148.736 49.2498 149.121C49.2958 149.212 49.3371 149.294 49.3732 149.366L46.7819 151.478L41.4525 152.5H34.5578L30.1796 151.474L26.1498 149.284Z" fill="white" stroke="#0288D1"/>
</svg>
